<svg width="1600" height="798" viewBox="0 0 1600 798" fill="none" xmlns="http://www.w3.org/2000/svg">
<path d="M0 0H1600V587L0 798V0Z" fill="#04C497"/>
<g clip-path="url(#clip0)">
<path d="M1411.41 598.909L1262.32 599.404C1222.76 587.5 1190.36 546.153 1190.15 484.162C1190.11 474.823 1190.82 465.496 1192.26 456.27L1312.34 429.247L1404.98 408.403C1411.81 414.525 1418.17 421.15 1424.01 428.221L1335.43 475.072L1293.64 497.174L1340.6 480.948L1438.06 447.269C1444.14 456.577 1449.55 466.302 1454.27 476.373L1424.86 506.814L1458.12 485C1458.27 485.334 1458.41 485.669 1458.55 486.004C1479.63 536.137 1453.47 598.77 1411.41 598.909Z" fill="#F2F2F2"/>
<path d="M1386.9 394.372C1364.36 400.857 1336.64 409.052 1308.14 417.57C1266.93 429.888 1224.1 442.888 1192.91 452.39L1192.93 452.279C1194.08 445.611 1196.79 439.31 1200.84 433.891C1223.94 403.805 1253.36 382.788 1286.1 374.983H1286.1C1295.31 372.783 1304.74 371.657 1314.2 371.625C1340.25 371.539 1364.92 379.721 1386.9 394.372Z" fill="#F2F2F2"/>
<path d="M1236.3 612.989C1318.2 612.989 1384.6 608.03 1384.6 601.913C1384.6 595.797 1318.2 590.838 1236.3 590.838C1154.39 590.838 1088 595.797 1088 601.913C1088 608.03 1154.39 612.989 1236.3 612.989Z" fill="#3F3D56"/>
<path d="M1214.18 418.361C1214.18 498.391 1166.68 526.334 1108.09 526.334C1049.5 526.334 1002 498.391 1002 418.361C1002 338.331 1108.09 236.521 1108.09 236.521C1108.09 236.521 1214.18 338.331 1214.18 418.361Z" fill="#F2F2F2"/>
<path d="M1104.23 514.092L1105.31 447.115L1150.53 364.254L1105.48 436.608L1105.97 406.492L1137.14 346.543L1106.1 398.522V398.523L1106.98 344.358L1140.35 296.631L1107.12 335.84L1107.67 236.521L1104.22 368.002L1104.5 362.577L1070.57 310.559L1103.96 372.99L1100.8 433.483L1100.7 431.877L1061.59 377.134L1100.58 437.549L1100.19 445.114L1100.12 445.228L1100.15 445.849L1092.13 599.324H1102.84L1104.13 520.051L1143.03 459.785L1104.23 514.092Z" fill="#3F3D56"/>
<path d="M1340.81 157.978V580.28C1340.81 585.31 1338.81 590.133 1335.26 593.689C1331.71 597.245 1326.89 599.243 1321.87 599.245H1150.7C1148.22 599.249 1145.75 598.762 1143.45 597.81C1141.15 596.859 1139.06 595.462 1137.3 593.701C1135.54 591.939 1134.15 589.846 1133.19 587.543C1132.24 585.24 1131.75 582.772 1131.76 580.28V157.978C1131.76 155.486 1132.25 153.018 1133.2 150.715C1134.15 148.413 1135.55 146.32 1137.31 144.558C1139.07 142.796 1141.15 141.398 1143.45 140.444C1145.75 139.491 1148.22 139 1150.7 139H1176.32V142.29C1176.32 146.434 1177.96 150.409 1180.89 153.34C1183.81 156.271 1187.78 157.918 1191.92 157.92H1278.97C1282.3 157.927 1285.54 156.857 1288.22 154.871C1288.76 154.476 1289.27 154.045 1289.76 153.581C1291.28 152.123 1292.49 150.371 1293.32 148.43C1294.15 146.489 1294.57 144.4 1294.57 142.29V139H1321.87C1324.36 138.999 1326.82 139.49 1329.12 140.443C1331.42 141.397 1333.51 142.794 1335.27 144.557C1337.03 146.319 1338.42 148.412 1339.37 150.715C1340.33 153.018 1340.82 155.486 1340.81 157.978Z" fill="#3F3D56"/>
<path d="M1228.5 304.351C1228.5 316.136 1221.51 320.254 1212.88 320.258C1212.68 320.258 1212.48 320.256 1212.29 320.251C1211.89 320.243 1211.49 320.225 1211.1 320.197C1203.31 319.649 1197.26 315.326 1197.25 304.366C1197.25 293.023 1211.71 278.703 1212.8 277.644L1212.8 277.643C1212.84 277.602 1212.86 277.582 1212.86 277.582C1212.86 277.582 1228.49 292.567 1228.5 304.351Z" fill="#04C497"/>
<path d="M1212.31 318.456L1218.02 310.456L1212.3 319.333L1212.29 320.252C1211.89 320.243 1211.49 320.225 1211.1 320.197L1211.71 308.407L1211.7 308.316L1211.71 308.299L1211.77 307.184L1206.03 298.291L1211.79 306.35L1211.8 306.586L1212.26 297.678L1207.34 288.487L1212.32 296.113L1212.8 277.644L1212.8 277.582V277.643L1212.73 292.207L1217.62 286.431L1212.71 293.462L1212.58 301.438L1217.15 293.781L1212.56 302.611L1212.49 307.046L1219.12 296.388L1212.47 308.593L1212.31 318.456Z" fill="#3F3D56"/>
<path d="M1310.44 454.782H1162.14V469.296V491.4V503.835L1174.55 491.4H1310.44V454.782Z" fill="#04C497"/>
<path d="M1278.65 463.673H1195.22V470.448H1278.65V463.673Z" fill="white"/>
<path d="M1278.65 473.836H1195.22V480.612H1278.65V473.836Z" fill="white"/>
<path d="M1162.14 388.003H1310.44V402.518V424.621V437.057L1298.02 424.621H1162.14V388.003Z" fill="#04C497"/>
<path d="M1270.85 397.546H1187.42V404.321H1270.85V397.546Z" fill="white"/>
<path d="M1270.85 407.709H1187.42V414.485H1270.85V407.709Z" fill="white"/>
<path d="M1156.28 234.409V354.019H1316.29V234.409H1156.28ZM1176.9 235.915C1177.41 235.915 1177.91 236.066 1178.33 236.35C1178.76 236.634 1179.09 237.037 1179.28 237.509C1179.48 237.98 1179.53 238.499 1179.43 239C1179.33 239.501 1179.08 239.961 1178.72 240.322C1178.36 240.683 1177.9 240.929 1177.4 241.028C1176.9 241.128 1176.39 241.077 1175.91 240.882C1175.44 240.686 1175.04 240.355 1174.76 239.931C1174.47 239.506 1174.32 239.007 1174.32 238.497C1174.32 238.158 1174.39 237.822 1174.52 237.509C1174.65 237.195 1174.84 236.911 1175.08 236.671C1175.32 236.431 1175.6 236.241 1175.91 236.112C1176.23 235.982 1176.56 235.915 1176.9 235.915V235.915ZM1161.44 241.078C1160.93 241.078 1160.43 240.927 1160 240.643C1159.58 240.359 1159.25 239.956 1159.06 239.484C1158.86 239.013 1158.81 238.494 1158.91 237.993C1159.01 237.492 1159.25 237.032 1159.61 236.671C1159.97 236.31 1160.43 236.064 1160.93 235.965C1161.43 235.865 1161.95 235.916 1162.42 236.112C1162.89 236.307 1163.3 236.638 1163.58 237.062C1163.86 237.487 1164.01 237.986 1164.01 238.497C1164.01 239.181 1163.74 239.838 1163.26 240.322C1162.78 240.806 1162.12 241.078 1161.44 241.078V241.078ZM1166.59 238.497C1166.59 237.986 1166.74 237.487 1167.03 237.062C1167.31 236.638 1167.71 236.307 1168.18 236.112C1168.65 235.916 1169.17 235.865 1169.67 235.965C1170.17 236.064 1170.63 236.31 1170.99 236.671C1171.35 237.032 1171.6 237.492 1171.7 237.993C1171.8 238.494 1171.74 239.013 1171.55 239.484C1171.35 239.956 1171.02 240.359 1170.6 240.643C1170.18 240.927 1169.68 241.078 1169.17 241.078C1168.83 241.078 1168.5 241.011 1168.18 240.882C1167.87 240.752 1167.59 240.562 1167.35 240.322C1167.11 240.082 1166.92 239.798 1166.79 239.484C1166.66 239.171 1166.59 238.836 1166.59 238.497V238.497ZM1255.29 320.459H1169.17V256.352H1255.29V320.459Z" fill="#F2F2F2"/>
<path d="M1312.85 236.56H1307.7V237.206H1312.85V236.56Z" fill="white"/>
<path d="M1312.85 238.497H1307.7V239.142H1312.85V238.497Z" fill="white"/>
<path d="M1312.85 240.433H1307.7V241.078H1312.85V240.433Z" fill="white"/>
<path d="M1307.7 255.276H1268.82V257.213H1307.7V255.276Z" fill="white"/>
<path d="M1307.7 261.945H1268.82V263.881H1307.7V261.945Z" fill="white"/>
<path d="M1307.7 268.614H1268.82V270.55H1307.7V268.614Z" fill="white"/>
<path d="M1307.7 275.283H1268.82V277.219H1307.7V275.283Z" fill="white"/>
<path d="M1307.7 281.952H1268.82V283.888H1307.7V281.952Z" fill="white"/>
<path d="M1307.7 288.621H1268.82V290.557H1307.7V288.621Z" fill="white"/>
<path d="M1307.7 295.29H1268.82V297.226H1307.7V295.29Z" fill="white"/>
<path d="M1307.7 301.959H1268.82V303.895H1307.7V301.959Z" fill="white"/>
<path d="M1307.7 308.628H1268.82V310.564H1307.7V308.628Z" fill="white"/>
<path d="M1307.7 315.297H1268.82V317.233H1307.7V315.297Z" fill="white"/>
<path d="M1174.32 327.559C1175.75 327.559 1176.9 326.403 1176.9 324.977C1176.9 323.551 1175.75 322.396 1174.32 322.396C1172.9 322.396 1171.75 323.551 1171.75 324.977C1171.75 326.403 1172.9 327.559 1174.32 327.559Z" fill="white"/>
<path d="M1183.13 327.559C1184.55 327.559 1185.71 326.403 1185.71 324.977C1185.71 323.551 1184.55 322.396 1183.13 322.396C1181.71 322.396 1180.55 323.551 1180.55 324.977C1180.55 326.403 1181.71 327.559 1183.13 327.559Z" fill="white"/>
<path d="M1191.93 327.559C1193.36 327.559 1194.51 326.403 1194.51 324.977C1194.51 323.551 1193.36 322.396 1191.93 322.396C1190.51 322.396 1189.36 323.551 1189.36 324.977C1189.36 326.403 1190.51 327.559 1191.93 327.559Z" fill="white"/>
<path d="M1307.7 337.67H1268.82V348.641H1307.7V337.67Z" fill="#04C497"/>
<path d="M1096.25 487.891L1094.83 537.848L1079.63 596.369C1079.63 596.369 1082.95 606.36 1080.58 608.739C1078.2 611.118 1067.28 615.4 1067.28 615.4L1076.3 490.745L1096.25 487.891Z" fill="#2F2E41"/>
<path d="M1063.25 608.495C1063.25 608.495 1057.83 620.44 1065.42 621.526C1073.01 622.612 1108.06 625.508 1105.89 619.354C1103.73 613.201 1077.35 607.41 1077.35 607.41L1063.25 608.495Z" fill="#2F2E41"/>
<path d="M1043.05 443.643C1043.05 443.643 1048.75 474.569 1052.55 479.802C1056.35 485.036 1050.65 523.098 1050.65 523.098C1050.65 523.098 1042.1 577.813 1045.9 586.378C1049.7 594.942 1048.75 592.087 1048.28 596.845C1047.8 601.603 1046.85 605.409 1048.28 609.691C1049.7 613.973 1049.7 613.497 1050.18 615.876C1050.65 618.255 1050.18 631.101 1050.18 631.101C1050.18 631.101 1070.6 638.238 1073.93 627.771C1073.93 627.771 1069.18 621.11 1070.6 615.876C1072.09 610.609 1072.89 605.172 1072.98 599.699V589.708L1094.83 507.873L1100.05 478.375C1100.05 478.375 1098.63 448.401 1093.4 445.546C1088.18 442.691 1043.05 443.643 1043.05 443.643Z" fill="#2F2E41"/>
<path d="M1051.6 628.722C1051.6 628.722 1044.48 644.423 1054.45 645.85C1064.43 647.278 1110.5 651.084 1107.65 642.996C1104.8 634.907 1070.13 627.295 1070.13 627.295L1051.6 628.722Z" fill="#2F2E41"/>
<path d="M1060.63 306.638C1071.13 306.638 1079.63 298.117 1079.63 287.606C1079.63 277.096 1071.13 268.575 1060.63 268.575C1050.14 268.575 1041.63 277.096 1041.63 287.606C1041.63 298.117 1050.14 306.638 1060.63 306.638Z" fill="#FFB9B9"/>
<path d="M1047.28 296.016L1047.63 320.32L1070.93 320.399C1070.93 320.399 1065.02 301.373 1067.66 297.395C1070.31 293.416 1047.28 296.016 1047.28 296.016Z" fill="#FFB9B9"/>
<path d="M1082 333.737C1082 333.737 1065.38 312.327 1052.55 321.367C1039.73 330.407 1034.98 351.817 1034.98 351.817L1037.83 411.765C1037.83 411.765 1044.95 420.329 1040.68 426.039C1036.4 431.748 1034.03 430.321 1037.35 434.603C1040.68 438.885 1044.48 442.215 1043.05 443.643C1041.63 445.07 1044.48 446.022 1044.48 446.022L1094.83 447.449C1094.83 447.449 1093.4 445.546 1097.68 439.837C1101.95 434.127 1096.73 426.515 1097.68 423.66C1098.63 420.805 1099.58 424.136 1100.05 417.475C1100.53 410.814 1082 333.737 1082 333.737Z" fill="#3F3D56"/>
<path d="M1077.25 456.489C1077.25 456.489 1078.2 468.384 1085.33 470.287C1088 471 1090 469.64 1091.46 467.661C1092.83 465.764 1093.59 463.5 1093.66 461.164C1093.73 458.827 1093.09 456.523 1091.84 454.552L1090.08 451.731L1077.25 456.489Z" fill="#FFB9B9"/>
<path d="M1033.31 309.71C1033.31 309.71 1032.84 319.226 1033.31 320.653C1033.79 322.081 1034.26 323.508 1033.31 324.935C1032.36 326.363 1032.84 331.12 1033.79 331.596C1034.74 332.072 1031.89 336.354 1032.84 339.209C1033.79 342.063 1034.74 343.015 1035.21 343.967C1035.69 344.918 1036.45 346.623 1036.45 346.623C1036.45 346.623 1050.41 316.847 1061.81 323.984C1073.21 331.12 1082.24 333.499 1082.24 333.499C1082.24 333.499 1076.06 300.195 1033.31 309.71Z" fill="#3F3D56"/>
<path d="M1053.98 331.834C1053.98 331.834 1038.78 333.261 1039.73 353.244C1040.68 373.227 1038.3 404.629 1038.3 404.629C1038.3 404.629 1064.43 444.595 1068.7 447.449C1072.98 450.304 1073.45 449.828 1072.98 452.207C1072.5 454.586 1072.03 456.489 1073.93 458.392C1075.05 459.523 1076.33 460.485 1077.73 461.247C1077.73 461.247 1092.93 456.013 1091.5 451.255C1090.08 446.498 1083.43 438.885 1083.43 438.885C1083.43 438.885 1072.03 420.33 1071.55 417.475C1071.08 414.62 1071.08 415.096 1069.65 413.669C1068.23 412.241 1064.43 406.532 1064.43 403.677V394.637L1068.41 346.328C1068.59 344.361 1068.35 342.377 1067.71 340.508C1067.08 338.638 1066.05 336.926 1064.7 335.482C1062.44 333.113 1059.02 331.228 1053.98 331.834Z" fill="#3F3D56"/>
<path d="M1072.89 272.93C1074.12 273.273 1075.43 273.303 1076.68 273.015C1077.93 272.728 1079.09 272.133 1080.06 271.284C1081.92 269.517 1082.54 266.455 1081.22 264.257C1080.08 262.359 1077.86 261.431 1075.75 260.771C1071.09 259.317 1066.24 258.576 1061.36 258.573C1059.04 258.573 1056.61 258.771 1054.62 259.977C1053.63 260.573 1052.8 261.392 1051.83 262.007C1050.04 263.137 1047.89 263.512 1045.92 264.297C1043.91 265.115 1042.1 266.356 1040.61 267.936C1039.12 269.516 1037.99 271.398 1037.29 273.455C1036.84 274.85 1036.55 276.294 1036.45 277.756C1036.13 281.762 1036.83 285.783 1038.5 289.438C1041.15 295.227 1046.2 300.094 1046.91 306.422C1049.62 304.139 1050.42 300.309 1052.52 297.45C1054.09 295.336 1056.32 293.817 1058.86 293.14C1059.57 293.046 1060.24 292.747 1060.78 292.28C1061.15 291.774 1061.36 291.171 1061.38 290.547L1062.69 281.145C1062.95 279.232 1063.31 277.141 1064.78 275.885C1065.7 275.2 1066.76 274.737 1067.89 274.532C1070.56 273.868 1073.28 273.424 1076.02 273.205" fill="#2F2E41"/>
<path opacity="0.1" d="M1040.61 411.425L1067.28 446.086C1067.28 446.086 1042.72 425.527 1040.61 411.425Z" fill="black"/>
<path opacity="0.1" d="M1066.21 373.05L1065.95 405.784L1081.44 429.052L1068.77 402.964L1066.21 373.05Z" fill="black"/>
<path d="M1354.4 590.007L1351.31 587.71C1351.31 587.71 1349.27 599.14 1351.55 600.852C1353.83 602.565 1362.38 605.419 1362.38 608.844C1362.38 612.269 1381.75 616.835 1382.32 611.698C1382.89 606.561 1380.61 603.707 1380.61 603.707C1380.61 603.707 1371.5 594.573 1370.36 592.861C1369.22 591.149 1366.37 587.724 1366.37 587.724L1354.4 590.007Z" fill="#2F2E41"/>
<path d="M1399.99 447.873C1399.99 447.873 1399.9 448.376 1399.76 449.295C1399.62 450.111 1399.43 451.264 1399.2 452.685C1396.81 467.315 1389.83 510.384 1390.3 511.805C1390.87 513.517 1394.86 519.796 1390.3 521.509C1389.68 521.869 1389.19 522.408 1388.88 523.056C1387.9 524.875 1387.1 526.783 1386.47 528.753C1383.75 536.653 1380.85 549.296 1379.17 558.053C1378.43 561.9 1377.93 564.994 1377.78 566.615C1377.73 566.99 1377.72 567.369 1377.76 567.745C1378.33 570.028 1374.34 578.02 1372.63 580.303C1370.93 582.586 1368.08 584.87 1368.65 587.153C1369.22 589.436 1354.4 595.715 1352.69 591.719C1350.98 587.724 1350.98 585.44 1350.41 584.299C1349.84 583.157 1349.27 575.166 1352.12 574.024C1354.97 572.882 1353.26 552.904 1356.11 548.908C1357.06 547.578 1358.51 543.074 1360.03 537.657C1360.63 535.534 1361.24 533.273 1361.83 531.007C1364.23 521.72 1366.37 512.376 1366.37 512.376L1365.8 445.59L1397.14 441.594L1397.94 443.37L1399.54 446.892L1399.99 447.873Z" fill="#2F2E41"/>
<path d="M1401.7 557.47C1401.7 557.47 1406.26 552.904 1408.54 557.47C1410.82 562.037 1413.1 579.732 1417.09 583.728C1421.08 587.724 1426.2 607.702 1420.51 608.844C1414.81 609.986 1408.54 607.132 1407.97 603.707C1407.4 600.282 1395.43 582.586 1395.43 580.874C1395.43 579.161 1403.41 572.883 1403.41 572.883L1401.7 557.47Z" fill="#2F2E41"/>
<path d="M1331.6 416.479C1331.6 416.479 1339.01 483.264 1340.72 489.543C1342.43 495.822 1351.55 519.796 1354.4 523.792C1357.25 527.788 1375.48 560.324 1377.76 562.037C1380.04 563.749 1384.6 568.316 1384.6 568.316C1384.6 568.316 1393.15 576.878 1394.29 578.591C1395.43 580.303 1405.12 575.166 1405.69 571.741C1406.26 568.316 1405.12 562.608 1404.55 560.324C1403.98 558.041 1405.69 554.616 1403.98 552.904C1402.27 551.191 1393.72 542.629 1393.72 538.633C1393.72 534.638 1378.9 511.234 1373.2 506.097C1367.51 500.959 1368.65 492.397 1368.65 492.397V457.577L1399.99 447.873C1399.99 447.873 1398.28 420.474 1394.29 420.474C1390.3 420.474 1337.87 411.341 1331.6 416.479Z" fill="#2F2E41"/>
<path d="M1377.76 321.152C1388.15 321.152 1396.57 312.719 1396.57 302.315C1396.57 291.912 1388.15 283.478 1377.76 283.478C1367.38 283.478 1358.96 291.912 1358.96 302.315C1358.96 312.719 1367.38 321.152 1377.76 321.152Z" fill="#9F616A"/>
<path d="M1371.49 317.156C1371.49 317.156 1369.22 325.719 1366.37 328.002C1363.52 330.285 1373.77 339.989 1373.77 339.989L1393.15 341.131L1396.57 330.285C1396.57 330.285 1390.3 317.727 1392.01 309.736C1393.72 301.744 1371.49 317.156 1371.49 317.156Z" fill="#9F616A"/>
<path d="M1363.52 326.86C1363.52 326.86 1368.65 327.431 1369.79 329.144C1370.93 330.856 1378.9 335.993 1385.17 334.852C1391.44 333.71 1395.43 331.998 1396.57 332.568C1397.71 333.139 1399.99 345.126 1399.99 345.126L1393.72 363.393L1394.86 413.624L1396.57 427.324C1396.57 427.324 1399.99 422.758 1386.31 425.612C1372.63 428.466 1354.97 423.328 1349.27 422.758C1343.57 422.187 1333.88 420.474 1333.31 417.049C1332.74 413.624 1335.02 401.067 1335.02 401.067L1344.14 362.822L1349.84 342.272L1363.52 326.86Z" fill="#3F3D56"/>
<path d="M1368.91 324.284C1368.91 324.284 1364.09 321.723 1362.38 324.006C1360.67 326.289 1339.01 329.714 1339.01 331.427C1339.01 333.139 1334.45 379.375 1335.59 383.371C1336.73 387.367 1333.31 391.933 1333.31 391.933L1329.32 409.058C1329.32 409.058 1318.5 441.595 1323.05 442.736C1327.61 443.878 1331.6 442.736 1333.31 442.736C1335.02 442.736 1334.45 421.045 1339.01 415.337C1343.57 409.629 1349.84 395.358 1350.98 392.504C1352.12 389.65 1366.37 350.264 1365.8 345.697C1365.23 341.131 1368.91 324.284 1368.91 324.284Z" fill="#D0CDE1"/>
<path d="M1392.58 326.86C1392.58 326.86 1397.14 326.86 1397.71 328.002C1398.28 329.144 1403.98 336.564 1406.26 338.277C1408.54 339.989 1416.52 347.41 1416.52 349.122C1416.52 350.835 1399.99 363.393 1399.99 363.393C1399.99 363.393 1393.15 397.071 1396.57 408.487C1399.99 419.903 1405.12 447.303 1402.84 449.015C1400.56 450.728 1395.43 451.298 1395.43 449.015C1395.43 446.732 1392.01 422.187 1389.16 417.049C1386.31 411.912 1377.76 379.375 1381.18 370.242C1384.6 361.109 1392.58 326.86 1392.58 326.86Z" fill="#D0CDE1"/>
<path d="M1317.36 383.371C1317.36 383.371 1316.79 401.066 1323.05 410.2C1327.12 416.305 1330.56 422.807 1333.31 429.607C1333.31 429.607 1343.57 426.753 1345.28 423.328C1346.99 419.903 1357.82 422.758 1357.82 421.616C1357.82 420.474 1344.71 414.766 1343.57 413.624C1342.43 412.483 1338.44 412.483 1336.16 410.2C1333.88 407.916 1333.31 402.779 1333.31 402.779L1331.03 387.938L1317.36 383.371Z" fill="#9F616A"/>
<path d="M1364.81 290.701C1363.35 290.665 1361.92 290.336 1360.59 289.733C1357.73 288.186 1356.97 283.779 1359.15 281.358C1359.75 280.742 1360.42 280.201 1361.15 279.745L1365.49 276.791C1367.4 275.485 1369.36 274.158 1371.6 273.542C1373.64 273.075 1375.76 272.95 1377.84 273.172C1381.92 273.316 1385.95 274.051 1389.81 275.352C1393.63 276.757 1397.2 279.106 1399.51 282.459C1403.18 287.775 1403.23 294.944 1401.21 301.081C1399.19 307.217 1395.35 312.561 1391.57 317.796L1389.61 308.208C1389.43 307.354 1389.21 306.418 1388.5 305.913C1386.74 304.657 1384.58 307.236 1382.42 307.219C1381.03 307.209 1379.86 306.064 1379.33 304.775C1378.9 303.45 1378.67 302.067 1378.65 300.673C1378.39 297.736 1377.37 293.649 1374.59 292.029C1372 290.519 1367.72 290.965 1364.81 290.701Z" fill="#2F2E41"/>
<path opacity="0.1" d="M1365.87 448.334C1365.87 448.334 1367.79 504.099 1368.93 505.811C1370.07 507.524 1368.93 448.159 1368.93 448.159L1365.87 448.334Z" fill="black"/>
<path d="M1343.57 331.427H1339.01C1339.01 331.427 1319.64 357.684 1321.92 359.397C1324.19 361.109 1321.92 365.676 1321.92 365.676L1317.36 374.238C1317.36 374.238 1311.66 379.375 1313.37 380.517C1315.08 381.659 1317.36 386.225 1317.36 386.225C1317.36 386.225 1328.75 384.513 1332.17 391.363L1339.56 382.016L1343.57 331.427Z" fill="#D0CDE1"/>
<path d="M1395.43 380.517C1395.43 380.517 1382.89 381.088 1368.65 371.955L1354.4 365.676C1354.4 365.676 1341.86 346.268 1340.72 349.693C1339.58 353.118 1342.43 359.968 1342.43 359.968C1342.43 359.968 1323.76 363.531 1324.79 368.991C1325 370.116 1334.45 367.388 1334.45 367.388C1334.45 367.388 1332.74 378.234 1342.43 378.805C1352.12 379.376 1354.97 377.092 1354.97 377.092C1354.97 377.092 1396 411.341 1402.84 400.496C1409.68 389.65 1395.43 380.517 1395.43 380.517Z" fill="#9F616A"/>
<path d="M1410.25 346.839L1416.52 349.122V366.247L1418.8 369.672C1418.8 369.672 1418.23 376.521 1416.52 378.234C1414.81 379.946 1411.39 379.375 1412.53 383.371C1413.21 385.976 1413.41 388.687 1413.1 391.363C1413.1 391.363 1402.84 404.491 1402.27 402.779C1401.7 401.067 1393.72 379.946 1392.58 379.946C1391.44 379.946 1403.98 346.839 1403.98 346.839L1410.25 346.839Z" fill="#D0CDE1"/>
<path d="M1335.31 433.318C1335.31 433.318 1329.41 427.609 1332.36 427.324C1335.31 427.039 1345.57 421.33 1347.27 424.185C1348.98 427.039 1335.31 433.318 1335.31 433.318Z" fill="#2F2E41"/>
<path d="M1139.04 585.047C1139.04 599.685 1130.35 604.796 1119.64 604.796C1119.39 604.796 1119.14 604.793 1118.89 604.788C1118.4 604.777 1117.9 604.754 1117.42 604.72C1107.75 604.035 1100.23 598.661 1100.23 585.047C1100.23 570.958 1118.2 553.18 1119.55 551.865L1119.56 551.862C1119.61 551.811 1119.64 551.787 1119.64 551.787C1119.64 551.787 1139.04 570.409 1139.04 585.047Z" fill="#04C497"/>
<path d="M1118.93 602.557L1126.03 592.623L1118.91 603.647L1118.89 604.788C1118.4 604.777 1117.9 604.753 1117.42 604.72L1118.18 590.075L1118.18 589.961L1118.19 589.94L1118.26 588.557L1111.13 577.506L1118.28 587.519L1118.3 587.813L1118.88 576.748L1112.77 565.328L1118.95 574.805L1119.55 551.865L1119.56 551.786V551.862L1119.46 569.952L1125.54 562.781L1119.43 571.511L1119.27 581.418L1124.95 571.91L1119.25 582.876L1119.16 588.384L1127.4 575.15L1119.13 590.306L1118.93 602.557Z" fill="#3F3D56"/>
</g>
<defs>
<clipPath id="clip0">
<rect width="464" height="509" fill="white" transform="translate(1002 139)"/>
</clipPath>
</defs>
</svg>
