<svg width="1600" height="1328" viewBox="0 0 1600 1328" fill="none" xmlns="http://www.w3.org/2000/svg">
<path d="M1600 374L0.000976562 374L0.000981808 314L1600 103L1600 374Z" fill="#242B32"/>
<path d="M1600 1328L0.00012207 1328L0.00046203 231.96L1600 0.00012207L1600 1328Z" fill="#4206D1"/>
<g opacity="0.07">
<path d="M2429.54 760.483C2248.46 496.306 1944.47 323 1600 323C1044.95 323 595 772.953 595 1328C595 1408.75 604.524 1487.28 622.509 1562.52L1134.29 1050.73C1183.35 1001.67 1262.9 1001.67 1311.96 1050.73L1725.62 1464.4L2429.54 760.483Z" fill="#8794BA"/>
<path d="M2548.99 996.356L1814.46 1730.89C1765.4 1779.95 1685.85 1779.95 1636.79 1730.89L1223.12 1317.22L722.343 1818.01C894.264 2125.28 1222.87 2333 1600 2333C2155.05 2333 2605 1883.05 2605 1328C2605 1211.79 2585.28 1100.19 2548.99 996.356Z" fill="#8794BA"/>
</g>
</svg>
