<svg width="1600" height="815" viewBox="0 0 1600 815" fill="none" xmlns="http://www.w3.org/2000/svg">
<path d="M0 0H1600V587L0 798V0Z" fill="#4206D1"/>
<mask id="mask0" mask-type="alpha" maskUnits="userSpaceOnUse" x="0" y="-1" width="1600" height="799">
<path d="M-6.10352e-05 -0.000244141H1600V587L-6.10352e-05 798V-0.000244141Z" fill="#172755"/>
</mask>
<g mask="url(#mask0)">
<g opacity="0.1">
<path d="M1832.47 274.985C1702.93 85.9868 1485.44 -38 1239 -38C841.907 -38 520 283.907 520 681C520 738.771 526.814 794.95 539.681 848.779L905.824 482.636C940.922 447.538 997.828 447.538 1032.93 482.636L1328.87 778.585L1832.47 274.985Z" fill="black"/>
<path d="M1917.93 443.734L1392.43 969.239C1357.33 1004.34 1300.42 1004.34 1265.32 969.239L969.375 673.29L611.104 1031.56C734.1 1251.39 969.195 1400 1239 1400C1636.09 1400 1958 1078.09 1958 681C1958 597.861 1943.89 518.017 1917.93 443.734Z" fill="black"/>
</g>
</g>
<g opacity="0.1">
<path d="M502.387 -117.35C442.929 -204.094 343.11 -261.001 230 -261.001C47.746 -261.001 -100 -113.255 -100 68.9993C-100 95.5144 -96.8727 121.299 -90.9671 146.005L77.0818 -22.0439C93.191 -38.1531 119.309 -38.1531 135.418 -22.0439L271.25 113.788L502.387 -117.35Z" fill="black"/>
<path d="M541.609 -39.8988L300.418 201.292C284.309 217.402 258.191 217.402 242.082 201.292L106.25 65.4606L-58.186 229.897C-1.73432 330.792 106.168 398.999 230 398.999C412.254 398.999 560 251.253 560 68.9993C560 30.8407 553.523 -5.80507 541.609 -39.8988Z" fill="black"/>
</g>
<path opacity="0.1" d="M1053.06 355.904H985.171C982.767 355.904 980.818 357.847 980.818 360.245V374.651C980.818 377.048 982.767 378.992 985.171 378.992H1053.06C1055.47 378.992 1057.42 377.048 1057.42 374.651V360.245C1057.42 357.847 1055.47 355.904 1053.06 355.904Z" fill="white"/>
<path opacity="0.1" d="M1133.22 378.998H1065.33C1062.93 378.998 1060.98 380.941 1060.98 383.338V397.745C1060.98 400.142 1062.93 402.086 1065.33 402.086H1133.22C1135.63 402.086 1137.58 400.142 1137.58 397.745V383.338C1137.58 380.941 1135.63 378.998 1133.22 378.998Z" fill="white"/>
<path opacity="0.1" d="M1213.39 402.086H1145.5C1143.09 402.086 1141.14 404.029 1141.14 406.426V420.833C1141.14 423.23 1143.09 425.174 1145.5 425.174H1213.39C1215.79 425.174 1217.74 423.23 1217.74 420.833V406.426C1217.74 404.029 1215.79 402.086 1213.39 402.086Z" fill="white"/>
<path opacity="0.1" d="M1053.06 321.272H985.171C982.767 321.272 980.818 323.215 980.818 325.613V340.019C980.818 342.416 982.767 344.36 985.171 344.36H1053.06C1055.47 344.36 1057.42 342.416 1057.42 340.019V325.613C1057.42 323.215 1055.47 321.272 1053.06 321.272Z" fill="white"/>
<path opacity="0.1" d="M1133.22 344.36H1065.33C1062.93 344.36 1060.98 346.303 1060.98 348.701V363.107C1060.98 365.504 1062.93 367.448 1065.33 367.448H1133.22C1135.63 367.448 1137.58 365.504 1137.58 363.107V348.701C1137.58 346.303 1135.63 344.36 1133.22 344.36Z" fill="white"/>
<path opacity="0.1" d="M1213.39 367.454H1145.5C1143.09 367.454 1141.14 369.397 1141.14 371.794V386.201C1141.14 388.598 1143.09 390.542 1145.5 390.542H1213.39C1215.79 390.542 1217.74 388.598 1217.74 386.201V371.794C1217.74 369.397 1215.79 367.454 1213.39 367.454Z" fill="white"/>
<path opacity="0.1" d="M1302.45 355.904H1234.56C1232.16 355.904 1230.21 357.847 1230.21 360.245V374.651C1230.21 377.048 1232.16 378.992 1234.56 378.992H1302.45C1304.86 378.992 1306.81 377.048 1306.81 374.651V360.245C1306.81 357.847 1304.86 355.904 1302.45 355.904Z" fill="white"/>
<path opacity="0.1" d="M1382.61 378.998H1314.72C1312.32 378.998 1310.37 380.941 1310.37 383.338V397.745C1310.37 400.142 1312.32 402.086 1314.72 402.086H1382.61C1385.02 402.086 1386.97 400.142 1386.97 397.745V383.338C1386.97 380.941 1385.02 378.998 1382.61 378.998Z" fill="white"/>
<path opacity="0.1" d="M1462.78 402.086H1394.89C1392.49 402.086 1390.54 404.029 1390.54 406.426V420.833C1390.54 423.23 1392.49 425.174 1394.89 425.174H1462.78C1465.19 425.174 1467.13 423.23 1467.13 420.833V406.426C1467.13 404.029 1465.19 402.086 1462.78 402.086Z" fill="white"/>
<path opacity="0.1" d="M1302.45 321.272H1234.56C1232.16 321.272 1230.21 323.215 1230.21 325.613V340.019C1230.21 342.416 1232.16 344.36 1234.56 344.36H1302.45C1304.86 344.36 1306.81 342.416 1306.81 340.019V325.613C1306.81 323.215 1304.86 321.272 1302.45 321.272Z" fill="white"/>
<path opacity="0.1" d="M1382.61 344.36H1314.72C1312.32 344.36 1310.37 346.303 1310.37 348.701V363.107C1310.37 365.504 1312.32 367.448 1314.72 367.448H1382.61C1385.02 367.448 1386.97 365.504 1386.97 363.107V348.701C1386.97 346.303 1385.02 344.36 1382.61 344.36Z" fill="white"/>
<path opacity="0.1" d="M1462.78 367.454H1394.89C1392.49 367.454 1390.54 369.397 1390.54 371.794V386.201C1390.54 388.598 1392.49 390.542 1394.89 390.542H1462.78C1465.19 390.542 1467.13 388.598 1467.13 386.201V371.794C1467.13 369.397 1465.19 367.454 1462.78 367.454Z" fill="white"/>
<path opacity="0.1" d="M1053.06 275.09H985.171C982.767 275.09 980.818 277.033 980.818 279.431V293.837C980.818 296.235 982.767 298.178 985.171 298.178H1053.06C1055.47 298.178 1057.42 296.235 1057.42 293.837V279.431C1057.42 277.033 1055.47 275.09 1053.06 275.09Z" fill="white"/>
<path opacity="0.1" d="M1133.22 298.178H1065.33C1062.93 298.178 1060.98 300.121 1060.98 302.519V316.925C1060.98 319.323 1062.93 321.266 1065.33 321.266H1133.22C1135.63 321.266 1137.58 319.323 1137.58 316.925V302.519C1137.58 300.121 1135.63 298.178 1133.22 298.178Z" fill="white"/>
<path opacity="0.1" d="M1213.39 321.272H1145.5C1143.09 321.272 1141.14 323.215 1141.14 325.613V340.019C1141.14 342.416 1143.09 344.36 1145.5 344.36H1213.39C1215.79 344.36 1217.74 342.416 1217.74 340.019V325.613C1217.74 323.215 1215.79 321.272 1213.39 321.272Z" fill="white"/>
<path opacity="0.1" d="M1053.06 240.452H985.171C982.767 240.452 980.818 242.396 980.818 244.793V259.199C980.818 261.597 982.767 263.54 985.171 263.54H1053.06C1055.47 263.54 1057.42 261.597 1057.42 259.199V244.793C1057.42 242.396 1055.47 240.452 1053.06 240.452Z" fill="white"/>
<path opacity="0.1" d="M1133.22 263.546H1065.33C1062.93 263.546 1060.98 265.489 1060.98 267.887V282.293C1060.98 284.691 1062.93 286.634 1065.33 286.634H1133.22C1135.63 286.634 1137.58 284.691 1137.58 282.293V267.887C1137.58 265.489 1135.63 263.546 1133.22 263.546Z" fill="white"/>
<path opacity="0.1" d="M1213.39 286.634H1145.5C1143.09 286.634 1141.14 288.577 1141.14 290.975V305.381C1141.14 307.779 1143.09 309.722 1145.5 309.722H1213.39C1215.79 309.722 1217.74 307.779 1217.74 305.381V290.975C1217.74 288.577 1215.79 286.634 1213.39 286.634Z" fill="white"/>
<path opacity="0.1" d="M1302.45 275.09H1234.56C1232.16 275.09 1230.21 277.033 1230.21 279.431V293.837C1230.21 296.235 1232.16 298.178 1234.56 298.178H1302.45C1304.86 298.178 1306.81 296.235 1306.81 293.837V279.431C1306.81 277.033 1304.86 275.09 1302.45 275.09Z" fill="white"/>
<path opacity="0.1" d="M1382.61 298.178H1314.72C1312.32 298.178 1310.37 300.121 1310.37 302.519V316.925C1310.37 319.323 1312.32 321.266 1314.72 321.266H1382.61C1385.02 321.266 1386.97 319.323 1386.97 316.925V302.519C1386.97 300.121 1385.02 298.178 1382.61 298.178Z" fill="white"/>
<path opacity="0.1" d="M1462.78 321.272H1394.89C1392.49 321.272 1390.54 323.215 1390.54 325.613V340.019C1390.54 342.416 1392.49 344.36 1394.89 344.36H1462.78C1465.19 344.36 1467.13 342.416 1467.13 340.019V325.613C1467.13 323.215 1465.19 321.272 1462.78 321.272Z" fill="white"/>
<path opacity="0.1" d="M1302.45 240.452H1234.56C1232.16 240.452 1230.21 242.396 1230.21 244.793V259.199C1230.21 261.597 1232.16 263.54 1234.56 263.54H1302.45C1304.86 263.54 1306.81 261.597 1306.81 259.199V244.793C1306.81 242.396 1304.86 240.452 1302.45 240.452Z" fill="white"/>
<path opacity="0.1" d="M1382.61 263.546H1314.72C1312.32 263.546 1310.37 265.489 1310.37 267.887V282.293C1310.37 284.691 1312.32 286.634 1314.72 286.634H1382.61C1385.02 286.634 1386.97 284.691 1386.97 282.293V267.887C1386.97 265.489 1385.02 263.546 1382.61 263.546Z" fill="white"/>
<path opacity="0.1" d="M1462.78 286.634H1394.89C1392.49 286.634 1390.54 288.577 1390.54 290.975V305.381C1390.54 307.779 1392.49 309.722 1394.89 309.722H1462.78C1465.19 309.722 1467.13 307.779 1467.13 305.381V290.975C1467.13 288.577 1465.19 286.634 1462.78 286.634Z" fill="white"/>
<path opacity="0.1" d="M1210.5 622C1387.51 622 1531 595.975 1531 563.871C1531 531.767 1387.51 505.742 1210.5 505.742C1033.49 505.742 890 531.767 890 563.871C890 595.975 1033.49 622 1210.5 622Z" fill="white"/>
<path d="M1030.62 365.532L1003.67 530.279L1125.54 517.426L1120.27 503.405L1025.06 511.292L1047.32 365.24L1030.62 365.532Z" fill="#161616"/>
<path d="M998.982 178.584L1163.04 178L1210.5 536.121L1045.86 558.321L998.982 178.584Z" fill="#161616"/>
<path d="M1016.85 192.313H1149.27L1195.56 525.313L1059.04 544.008L1016.85 192.313Z" fill="#4206D1"/>
<path d="M1141.74 510.334C1142.57 511.923 1143.19 513.641 1144.27 515.072C1147.44 519.29 1153.44 519.95 1157.95 522.702C1158.17 522.816 1158.36 522.995 1158.48 523.216C1158.69 523.701 1158.23 524.209 1157.79 524.513C1154.37 526.902 1149.89 526.955 1145.71 526.926C1144.31 526.975 1142.91 526.842 1141.54 526.528C1139.33 525.944 1137.44 524.408 1135.26 523.783C1134.13 523.501 1132.97 523.339 1131.8 523.298L1127.23 522.988C1126.01 522.971 1124.8 522.747 1123.66 522.328C1123.09 522.111 1122.59 521.753 1122.19 521.288C1121.8 520.823 1121.53 520.266 1121.41 519.67C1121.28 518.7 1121.7 517.759 1121.94 516.813C1122.53 514.57 1122.35 511.859 1124.1 510.328C1124.82 509.777 1125.65 509.379 1126.53 509.16C1129.72 508.09 1132.97 507.227 1136.26 506.578C1138.98 506.046 1140.53 508.032 1141.74 510.334Z" fill="#161616"/>
<path d="M1089.98 522.971C1090.09 524.215 1090.13 525.64 1089.23 526.511C1088.66 526.976 1087.98 527.279 1087.26 527.387C1082.93 528.392 1078.1 528.462 1074.34 526.114C1073.95 525.89 1073.6 525.595 1073.32 525.243C1073 524.764 1072.83 524.209 1072.8 523.637C1072.67 521.983 1073.18 520.353 1073.64 518.758C1074.74 514.974 1075.57 511.119 1076.13 507.22C1076.18 506.899 1087.19 508.973 1087.92 510.059C1088.84 511.403 1088.84 514.628 1089.09 516.229C1089.46 518.464 1089.76 520.712 1089.98 522.971Z" fill="#161616"/>
<path d="M1130.96 370.947L1133.88 398.107C1134.47 403.657 1135.09 409.236 1134.68 414.804C1134.21 421.23 1132.41 427.657 1133.17 434.024C1133.47 436.501 1134.15 438.932 1134.25 441.426C1134.27 443.085 1134.18 444.744 1134 446.392C1132.67 462.873 1136.86 479.225 1139.2 495.589C1139.58 497.607 1139.66 499.669 1139.45 501.711C1139.15 503.785 1138.54 506.507 1140.39 507.489L1123 513.775C1120.78 511 1122.25 506.683 1121.83 503.16C1121.44 499.988 1119.69 497.16 1118.76 494.105C1117.92 491.359 1117.74 488.467 1117.47 485.616C1115.95 470.094 1111.29 454.974 1110.2 439.417C1110.17 437.914 1109.97 436.42 1109.62 434.959C1109.03 433.025 1107.86 431.337 1107 429.52C1105.69 426.792 1105.05 423.801 1104.41 420.845L1100.69 403.464C1096.93 409.049 1097.08 416.317 1096.34 423.012C1095.3 432.359 1092.96 441.549 1091.07 450.78C1090.62 452.766 1090.29 454.774 1090.08 456.797C1089.58 462.213 1090.56 467.681 1090.04 473.091C1089.45 479.359 1086.81 485.476 1087.45 491.744C1087.8 495.215 1089.14 498.498 1090.04 501.863C1090.94 505.228 1091.39 508.92 1090.01 512.128C1085.2 510.366 1080.03 509.796 1074.95 510.468C1069.36 504.772 1068.37 496.827 1067.99 488.853C1067.61 480.878 1068.53 472.892 1067.53 464.993C1067.24 462.657 1066.78 460.378 1066.71 458.047C1066.46 450.575 1070.07 443.582 1071.86 436.32C1073.47 429.783 1073.63 422.973 1072.31 416.37C1071.43 412.006 1069.92 407.77 1069.38 403.348C1068.65 397.149 1069.89 390.904 1071.14 384.781C1071.98 380.651 1072.81 376.521 1073.76 372.414C1074.78 368.003 1075.99 363.499 1078.71 359.888C1083.07 354.11 1090.81 351.546 1098.05 352.106C1105.29 352.667 1112.04 355.951 1118.02 360.04C1122.73 363.179 1127.07 366.838 1130.96 370.947Z" fill="#192534"/>
<path d="M1111.51 266.946C1111.19 267.472 1110.96 268.055 1110.84 268.664C1110.69 269.861 1111.43 270.96 1112.01 272.005C1112.76 273.349 1113.34 274.782 1113.73 276.27C1114.01 277.191 1114.09 278.16 1113.98 279.115C1113.84 279.833 1113.58 280.523 1113.22 281.16C1112.09 283.333 1110.41 285.343 1108.13 286.248C1106.37 286.896 1104.44 286.974 1102.63 286.47C1100.83 285.962 1099.13 285.157 1097.6 284.087C1096.31 283.271 1095.15 282.267 1094.15 281.107C1093.21 279.84 1092.41 278.468 1091.77 277.018C1090.56 274.477 1089.32 271.76 1089.54 268.973C1089.55 268.721 1089.6 268.471 1089.68 268.231C1089.87 267.799 1090.14 267.403 1090.47 267.063C1092.97 264.109 1094.25 260.319 1094.05 256.459L1102.59 258.393C1104.47 258.82 1106.35 259.246 1108.21 259.778C1109.73 260.216 1112.08 260.824 1113.07 262.179C1114.06 263.534 1112.19 265.708 1111.51 266.946Z" fill="#FBBEBE"/>
<path d="M1106.94 265.497C1115.51 265.497 1122.46 258.571 1122.46 250.027C1122.46 241.483 1115.51 234.557 1106.94 234.557C1098.38 234.557 1091.43 241.483 1091.43 250.027C1091.43 258.571 1098.38 265.497 1106.94 265.497Z" fill="#FBBEBE"/>
<path d="M1104.45 281.236C1105.1 279.805 1106.52 278.899 1107.82 277.999C1109.11 277.1 1110.42 275.949 1110.68 274.389C1110.69 274.036 1110.78 273.69 1110.93 273.372C1111.43 272.625 1112.62 272.998 1113.32 273.548C1115.05 274.885 1116.22 276.784 1117.36 278.636C1118.84 280.888 1120.1 283.272 1121.14 285.758C1122.79 290.087 1122.99 294.813 1123.17 299.434C1123.33 303.64 1123.49 307.911 1122.47 311.989C1121.82 314.571 1120.71 317.077 1120.64 319.735C1120.45 329.392 1117.09 338.623 1116.85 348.28C1116.83 351.072 1116.98 353.863 1117.27 356.64L1117.82 362.909C1109.31 362.422 1100.81 361.676 1092.34 360.671C1092.09 357.785 1091.26 354.987 1090.51 352.194C1087.41 340.777 1085.43 329.09 1084.59 317.293C1084.13 311.031 1083.67 304.791 1082.97 298.552C1082.35 292.879 1081.12 287.171 1081.85 281.51C1082.24 278.937 1083.05 276.446 1084.26 274.138C1084.64 273.218 1085.29 272.437 1086.13 271.9C1086.55 271.698 1087 271.554 1087.46 271.474C1088.78 271.205 1090.13 271.047 1091.49 271C1091.82 270.973 1092.15 271.004 1092.47 271.094C1093.04 271.378 1093.51 271.831 1093.81 272.391C1096.42 276.304 1100.12 279.377 1104.45 281.236Z" fill="#F2F2F2"/>
<path d="M1097.25 279.997C1098.34 281.551 1100.65 281.919 1101.66 283.503C1102 284.164 1102.26 284.865 1102.43 285.588C1103.04 287.545 1104.28 289.245 1105.04 291.156C1106.13 293.901 1106.16 296.939 1106.17 299.89C1106.28 302.24 1106.1 304.594 1105.63 306.9C1105.28 308.343 1104.71 309.716 1104.28 311.142C1103.57 313.566 1103.3 316.1 1103.5 318.619C1103.5 319.164 1103.64 319.698 1103.92 320.168C1104.32 320.637 1104.84 320.988 1105.42 321.184C1107.14 321.938 1108.94 322.709 1110.81 322.534C1111.2 322.522 1111.57 322.398 1111.88 322.177C1112.1 321.98 1112.28 321.744 1112.41 321.482L1113.58 319.507C1114.64 317.702 1115.75 315.681 1115.34 313.619C1115.04 312.554 1114.59 311.537 1114.01 310.598C1113.26 309.074 1112.62 307.499 1112.1 305.884C1110.23 300.526 1108.34 295.093 1107.92 289.438C1107.67 287.286 1107.91 285.106 1108.62 283.059C1109.17 281.799 1109.86 280.605 1110.68 279.501C1110.5 279.252 1110.24 279.066 1109.95 278.967C1109.65 278.868 1109.33 278.861 1109.04 278.946C1108.45 279.127 1107.88 279.364 1107.33 279.653C1105.61 280.377 1103.7 280.114 1101.96 279.618C1101.28 279.419 1100.2 278.741 1099.5 278.788C1099.26 278.817 1097.29 280.067 1097.25 279.997Z" fill="white"/>
<path d="M1110.97 279.933C1110.62 279.653 1110.07 279.396 1109.76 279.723C1109.66 279.865 1109.58 280.025 1109.54 280.196C1109.23 281.014 1108.34 281.417 1107.52 281.732C1106.71 282.048 1105.83 282.223 1105.34 281.621C1105.18 281.387 1105.11 281.11 1105.12 280.829C1105.13 280.549 1105.24 280.28 1105.41 280.062C1105.78 279.629 1106.21 279.263 1106.7 278.981C1109.39 277.084 1111.23 274.204 1111.81 270.965C1112.56 271.564 1113.06 272.426 1113.21 273.378C1113.4 274.307 1113.42 275.265 1113.62 276.194C1113.9 277.526 1114.54 278.771 1114.69 280.12C1114.77 280.839 1114.69 281.563 1114.69 282.282C1114.72 282.984 1114.8 283.684 1114.94 284.373C1113.56 282.924 1112.6 281.224 1110.97 279.933Z" fill="#F2F2F2"/>
<path d="M1099.11 275.966C1098.52 275.411 1097.94 274.886 1097.35 274.319C1094.78 271.817 1092.84 268.744 1091.69 265.351C1090.94 265.935 1090.11 266.707 1090.09 267.688C1090.16 268.383 1090.43 269.042 1090.87 269.587C1093.08 273.066 1094.54 276.968 1095.16 281.043C1095.48 280.55 1095.92 280.146 1096.43 279.871C1096.95 279.596 1097.53 279.458 1098.12 279.472C1099.05 279.472 1103.2 281.925 1103.5 281.306C1103.94 280.336 1099.81 276.626 1099.11 275.966Z" fill="#F2F2F2"/>
<path d="M1112.19 271.316C1117.71 276.787 1124.45 280.859 1131.87 283.193C1132.61 283.353 1133.29 283.699 1133.86 284.198C1134.28 284.724 1134.56 285.346 1134.68 286.009C1136.11 291.582 1136.59 297.348 1137.07 303.079C1137.19 304.027 1137.17 304.988 1137.01 305.93C1136.66 307.461 1135.57 308.7 1134.5 309.85C1131.14 313.443 1127.3 317.2 1126.73 322.084C1126.69 323.025 1126.58 323.963 1126.4 324.888C1126.1 325.975 1125.45 326.933 1125.05 327.99C1123.1 333.195 1127.52 339.499 1124.83 344.348C1126.29 347.143 1127.29 350.153 1127.79 353.263C1127.88 354.442 1128.15 355.601 1128.59 356.698C1129.4 358.369 1131.05 359.432 1132.35 360.788C1136.32 364.842 1136.8 371.046 1137.04 376.707C1137.18 379.897 1137.14 383.56 1134.69 385.652C1133.28 386.873 1131.35 387.27 1129.51 387.574C1127.05 387.983 1124.38 388.275 1122.21 387.066C1120.65 386.201 1119.59 384.688 1118.57 383.227C1116.65 380.441 1114.72 377.66 1112.9 374.803C1110.02 370.299 1107.3 365.152 1108.13 359.871C1107.9 365.274 1106.76 370.719 1104.1 375.428C1101.44 380.137 1097.15 384.069 1091.96 385.623C1086.76 387.177 1080.68 386.078 1076.81 382.293C1075.55 380.995 1074.46 379.535 1073.58 377.952C1071.38 374.188 1069.77 370.106 1068.81 365.853C1068.56 364.749 1068.37 363.516 1068.93 362.529C1069.19 362.061 1069.6 361.693 1069.87 361.232C1070.8 359.66 1069.91 357.68 1069.01 356.079C1067.65 356.208 1066.67 354.607 1066.79 353.24C1066.91 351.873 1067.73 350.687 1068.31 349.442C1070.01 345.774 1069.64 341.503 1068.82 337.548C1068 333.593 1066.77 329.661 1066.87 325.624C1066.97 321.354 1063.88 317.509 1061.53 313.94C1060.22 311.93 1058.69 310.061 1057.55 307.952C1055.17 303.514 1054.62 298.324 1056.02 293.487C1056.84 291.003 1057.91 288.611 1059.23 286.348L1061.16 282.731C1061.52 281.867 1062.08 281.1 1062.79 280.491C1063.5 279.882 1064.35 279.449 1065.26 279.226L1078.64 273.968C1080.35 273.386 1081.97 272.576 1083.47 271.561C1085.1 270.334 1086.32 268.64 1087.88 267.332C1088.11 267.094 1088.38 266.903 1088.68 266.772C1088.98 266.641 1089.31 266.571 1089.64 266.566C1090.89 266.677 1091.33 268.255 1091.46 269.487C1091.76 272.245 1093.81 274.582 1094.5 277.263C1098.28 292.073 1106.26 305.732 1108.46 320.851C1110.92 314.956 1113.38 309.05 1116.53 303.5C1117.03 302.703 1117.44 301.86 1117.78 300.982C1118.16 299.716 1118.3 298.391 1118.19 297.074C1118.04 293.271 1117.02 289.555 1116.02 285.88C1114.72 280.879 1113.55 276.27 1112.19 271.316Z" fill="#161616"/>
<path d="M1137.69 316.569C1137.95 319.058 1138.2 321.552 1138.66 324.012C1139.2 326.857 1140.02 329.638 1140.83 332.419C1141.23 333.982 1141.8 335.496 1142.53 336.934C1142.8 337.352 1143.01 337.802 1143.16 338.272C1143.45 339.441 1142.79 340.609 1142.51 341.778C1141.67 345.283 1144.2 349.18 1142.6 352.41C1142.12 353.392 1141.28 354.204 1140.97 355.255C1140.6 356.465 1140.97 357.756 1141.16 359.006C1141.66 362.511 1140.46 366.075 1139.28 369.446L1137.26 375.136C1135.42 371.724 1133.56 368.277 1131.02 365.351C1130.11 364.299 1129.12 363.323 1128.28 362.213C1127.03 360.469 1126.05 358.552 1125.35 356.523C1123.56 351.702 1122.54 346.633 1122.32 341.497C1122.18 340.037 1122.35 338.563 1122.82 337.174C1123.21 336.371 1123.64 335.59 1124.12 334.837C1125.69 332.015 1126.02 328.674 1125.99 325.449C1125.96 322.224 1125.61 318.988 1125.99 315.78C1126.29 313.102 1127.09 310.503 1128.33 308.11C1129.06 306.56 1130.15 305.205 1131.51 304.154C1132.53 303.398 1133.76 302.997 1135.03 303.015C1136.94 303.126 1136.5 304.768 1136.67 306.351L1137.69 316.569Z" fill="#161616"/>
<path d="M1051.5 308.618C1050.31 312.123 1049.23 315.659 1048.27 319.227C1047.33 322.732 1046.49 326.257 1045.76 329.801C1045.38 331.36 1045.16 332.954 1045.12 334.557C1045.2 336.423 1045.52 338.271 1046.08 340.054C1049.85 353.614 1056.73 366.122 1064.48 377.882C1066.69 375.129 1069.32 372.737 1072.27 370.789C1072.51 370.647 1072.71 370.446 1072.85 370.205C1072.93 369.978 1072.95 369.737 1072.92 369.5C1072.89 369.264 1072.8 369.037 1072.67 368.838C1070.53 364.468 1067.14 360.618 1066.08 355.869C1065.63 353.894 1065.61 351.838 1065.11 349.875C1064.46 347.333 1063.01 345.008 1062.67 342.403C1062.31 339.563 1063.26 336.467 1061.92 333.949C1064.65 332.892 1066.22 330.093 1067.38 327.412C1068.61 324.668 1069.49 321.781 1070 318.818C1070.8 313.137 1069.69 307.352 1066.83 302.373C1065.44 299.889 1063.65 297.647 1061.53 295.736C1060.83 295.111 1059.19 293.317 1058.17 293.335C1056.82 293.364 1056.38 295.549 1056 296.53C1054.43 300.538 1052.89 304.552 1051.5 308.618Z" fill="#161616"/>
<path d="M1075.77 374.008C1075.95 374.137 1076.15 374.312 1076.1 374.523C1076.05 374.733 1075.88 374.785 1075.73 374.873C1074.94 375.433 1074.35 376.232 1074.04 377.152C1073.07 379.34 1072.22 381.581 1071.5 383.864C1070.19 381.905 1068.65 380.111 1066.91 378.519C1065.57 377.292 1064.08 376.129 1063.36 374.47C1063.36 374.423 1066.43 372.162 1066.71 371.917C1067.58 371.152 1068.66 369.031 1069.55 368.564C1070.56 368.038 1071.52 370.1 1072.29 370.93C1073.34 372.07 1074.51 373.101 1075.77 374.008Z" fill="#FBBEBE"/>
<path d="M1123.42 247.609C1123.38 246.843 1123.28 245.996 1122.69 245.5C1122.18 245.145 1121.56 244.974 1120.94 245.015C1117.52 244.904 1113.99 245.476 1110.76 244.331C1108.64 243.578 1106.83 242.129 1104.76 241.229C1102.7 240.329 1100.05 240.09 1098.38 241.603C1097.11 242.771 1096.77 244.565 1096.33 246.218C1095.36 249.867 1093.64 253.274 1091.27 256.22C1089.68 255.729 1088.55 254.315 1087.81 252.832C1085.32 247.772 1086.55 241.732 1088.32 236.368C1088.9 234.569 1089.55 232.787 1090.2 231.011L1091.63 227.085C1093.51 226.902 1095.25 226.037 1096.53 224.655L1097.15 226.145C1098.74 226.088 1100.27 225.548 1101.54 224.597C1102.03 225.52 1103.3 225.765 1104.32 225.467C1105.35 225.169 1106.23 224.597 1107.25 224.299C1109.98 223.422 1112.89 224.772 1115.74 224.924C1116.95 224.894 1118.17 224.93 1119.37 225.029C1122.75 225.572 1125.13 228.739 1126.16 231.987C1126.85 234.148 1127.42 236.807 1129.55 237.572C1129.6 238.39 1128.15 238.548 1128.03 239.325C1128.01 239.584 1128.07 239.841 1128.2 240.067L1130.16 244.267C1129.23 244.502 1128.24 244.453 1127.33 244.127C1126.44 246.201 1123.51 249.192 1123.42 247.609Z" fill="#192534"/>
<path d="M1222.89 256.752C1223.88 259.955 1224.66 263.22 1225.23 266.525C1225.65 269.002 1225.9 271.754 1224.47 273.822C1229.9 265.684 1235.57 257.301 1243.81 252.049C1242.13 250.234 1240.85 248.087 1240.06 245.748C1239.27 243.409 1238.98 240.93 1239.21 238.472C1239.26 237.981 1232.44 240.546 1231.92 240.838C1229.53 242.164 1227.34 243.811 1225.01 245.231C1223.8 245.961 1218.77 247.69 1218.73 248.736C1218.73 249.408 1220.72 251.464 1221.1 252.171C1221.84 253.64 1222.43 255.173 1222.89 256.752Z" fill="#FBBEBE"/>
<path d="M1248.1 563.684C1246.76 562.743 1245.19 562.181 1243.56 562.058C1241.92 561.934 1240.28 562.254 1238.82 562.983C1236.16 564.35 1234.38 566.938 1231.96 568.691C1227.81 571.694 1222.34 571.933 1217.48 573.557C1216.19 573.99 1214.82 574.632 1214.27 575.894C1214.09 576.424 1214.02 576.986 1214.06 577.546C1214.1 578.105 1214.25 578.65 1214.51 579.148C1215.33 580.953 1216.75 582.415 1218.53 583.278C1220.71 584.318 1223.22 584.365 1225.63 584.394L1246.61 584.64C1253.06 584.716 1259.54 584.792 1265.95 585.592C1267.44 585.779 1269.06 585.983 1270.38 585.253C1272.52 584.085 1272.77 581.129 1272.6 578.692C1272.17 572.52 1270.79 566.451 1268.5 560.699C1268.25 560.062 1267.91 559.338 1267.21 559.221C1266.7 559.198 1266.21 559.355 1265.81 559.665C1259.89 563.17 1252.4 565.15 1246.11 562.346" fill="#E2E2E2"/>
<path d="M1258.6 430.25C1256.25 443.822 1257.78 457.767 1260.42 471.28C1260.91 473.97 1261.55 476.631 1262.34 479.248C1263.28 482.228 1264.55 485.09 1265.44 488.087C1267.69 495.682 1267.37 503.803 1267.04 511.73L1265.5 547.805C1265.37 550.831 1265.25 553.928 1266.17 556.814C1266.54 557.982 1266.99 559.443 1266.06 560.231C1265.69 560.492 1265.27 560.655 1264.82 560.705C1260.63 561.475 1256.3 560.827 1252.52 558.864L1252.1 522.421C1251.97 511.187 1251.84 499.906 1250.1 488.812C1248.73 479.99 1246.34 471.285 1246.18 462.359C1246.01 453.011 1248.31 443.787 1250.65 434.725C1251.16 432.786 1253 431.366 1254.51 430.052C1255.04 429.533 1255.68 429.145 1256.38 428.918C1257.09 428.726 1258.16 429.66 1258.6 430.25Z" fill="#161616"/>
<path opacity="0.1" d="M1258.6 430.25C1256.25 443.822 1257.78 457.767 1260.42 471.28C1260.91 473.97 1261.55 476.631 1262.34 479.248C1263.28 482.228 1264.55 485.09 1265.44 488.087C1267.69 495.682 1267.37 503.803 1267.04 511.73L1265.5 547.805C1265.37 550.831 1265.25 553.928 1266.17 556.814C1266.54 557.982 1266.99 559.443 1266.06 560.231C1265.69 560.492 1265.27 560.655 1264.82 560.705C1260.63 561.475 1256.3 560.827 1252.52 558.864L1252.1 522.421C1251.97 511.187 1251.84 499.906 1250.1 488.812C1248.73 479.99 1246.34 471.285 1246.18 462.359C1246.01 453.011 1248.31 443.787 1250.65 434.725C1251.16 432.786 1253 431.366 1254.51 430.052C1255.04 429.533 1255.68 429.145 1256.38 428.918C1257.09 428.726 1258.16 429.66 1258.6 430.25Z" fill="black"/>
<path d="M1214.6 387.837C1213.73 391.395 1215.57 395.081 1215.37 398.738C1215.25 400.952 1214.38 403.161 1214.78 405.334C1215.19 407.507 1216.75 409.143 1217.58 411.135C1218.18 412.799 1218.51 414.553 1218.53 416.323C1218.77 420.693 1218.57 425.086 1218.41 429.438C1218.13 436.741 1217.93 444.084 1218.9 451.323C1219.74 457.594 1221.45 463.718 1223.98 469.521C1224.74 471.1 1225.38 472.739 1225.87 474.423C1226.19 475.991 1226.41 477.58 1226.51 479.178C1227.07 484.375 1228.47 489.448 1230.66 494.198C1232.15 497.452 1234.76 500.04 1235.58 503.493C1236.37 506.799 1235.84 510.287 1236.41 513.635C1236.83 516.118 1237.84 518.466 1238.4 520.92C1239.13 524.092 1239.12 527.381 1239.49 530.618C1240.54 539.965 1244.8 549.312 1242.26 558.379C1241.75 560.202 1240.96 562.054 1241.31 563.912C1241.49 564.823 1241.93 565.723 1241.74 566.628C1241.57 567.4 1240.97 567.996 1240.67 568.726C1240.08 570.093 1240.7 571.717 1241.75 572.774C1242.86 573.76 1244.15 574.522 1245.56 575.018C1249.87 576.858 1254.34 578.727 1259.03 578.687C1259.6 578.717 1260.17 578.613 1260.69 578.383C1261.53 577.945 1261.95 576.992 1262.31 576.116L1264.71 570.192C1265 569.474 1265.3 568.632 1264.89 567.966C1264.61 567.601 1264.27 567.285 1263.88 567.032C1261.94 565.402 1262.38 562.358 1262.9 559.91C1264.22 553.623 1264.95 547.228 1265.08 540.806C1265.34 528 1263.22 515.271 1261.11 502.634C1260.38 498.247 1259.64 493.83 1258.18 489.624C1256.72 485.417 1254.57 481.369 1254.92 476.999C1255.3 472.278 1254.07 467.33 1254.92 462.674C1255.78 458.018 1257.13 453.461 1258.01 448.811C1259.14 442.776 1259.42 436.624 1259.76 430.502C1259.91 428.001 1260.1 425.419 1261.27 423.199C1261.96 421.902 1262.95 420.792 1263.72 419.536C1265.7 416.27 1266.02 412.222 1267.91 408.903C1268.81 407.332 1270.04 405.947 1270.7 404.265C1271.16 402.938 1271.4 401.545 1271.41 400.14C1271.6 396.614 1271.4 393.079 1270.83 389.595C1260.85 384.535 1249.79 381.976 1238.6 382.141C1234.32 382.211 1229.99 382.643 1225.97 384.121C1222.14 385.541 1218.64 387.533 1214.6 387.837Z" fill="#161616"/>
<path d="M1238.62 572.926C1236.9 575.065 1237.02 578.12 1235.92 580.638C1234.58 583.693 1231.6 585.65 1228.78 587.432L1211.2 598.532C1210.24 599.117 1209.21 599.835 1208.86 600.922C1208.69 601.615 1208.72 602.342 1208.95 603.019C1209.37 604.485 1210.15 605.822 1211.22 606.908C1212.29 607.995 1213.62 608.795 1215.09 609.235C1216.64 609.605 1218.24 609.768 1219.84 609.72L1227.74 609.825C1230.15 609.919 1232.56 609.825 1234.96 609.545C1237.15 609.229 1239.28 608.604 1241.46 608.207C1245.43 607.488 1249.5 607.553 1253.48 606.857C1255.91 606.38 1258.31 605.762 1260.67 605.005C1263.54 604.147 1266.47 603.253 1268.93 601.553C1269.61 601.142 1270.16 600.551 1270.52 599.847C1270.93 598.883 1270.7 597.779 1270.47 596.756L1266.7 580.223C1266.48 578.846 1265.98 577.53 1265.22 576.362C1264.38 575.252 1262.88 574.515 1261.57 574.989C1261.03 575.234 1260.52 575.539 1260.05 575.9C1258.12 577.168 1255.64 577.378 1253.35 576.981C1251.88 576.718 1249.93 576.315 1248.74 575.339C1247.84 574.597 1247.57 573.446 1246.8 572.605C1246.26 572.054 1245.61 571.622 1244.9 571.337C1244.18 571.052 1243.41 570.92 1242.64 570.951C1241.87 570.981 1241.11 571.172 1240.42 571.513C1239.73 571.853 1239.12 572.335 1238.62 572.926Z" fill="#E2E2E2"/>
<path d="M1227.23 254.473C1238.92 254.473 1248.4 245.023 1248.4 233.366C1248.4 221.708 1238.92 212.258 1227.23 212.258C1215.54 212.258 1206.06 221.708 1206.06 233.366C1206.06 245.023 1215.54 254.473 1227.23 254.473Z" fill="#FBBEBE"/>
<path d="M1210.9 234.604C1212.93 233.471 1212.93 230.205 1215 229.118C1217.07 228.032 1219.43 229.919 1220.76 231.823C1222.7 234.613 1224.04 237.768 1224.71 241.095C1224.9 242.041 1225.08 243.075 1225.79 243.735C1226.51 244.395 1227.44 244.477 1228.36 244.571C1231.03 244.836 1233.71 245.077 1236.4 245.295C1239.39 245.535 1242.54 245.727 1245.25 244.448C1246.32 243.971 1247.24 243.211 1247.91 242.251C1248.45 241.33 1248.83 240.328 1249.05 239.284C1250.45 233.973 1251.86 228.598 1251.98 223.107C1252.02 220.84 1251.83 218.492 1250.73 216.505C1250.09 215.337 1249.15 214.32 1248.89 213.035C1248.63 211.75 1249.48 210.114 1250.81 210.254C1249.6 210.304 1248.4 210.076 1247.3 209.588C1246.24 209.004 1245.45 207.748 1245.83 206.603C1242.85 206.983 1240.68 204.05 1238.36 202.151C1237.98 201.778 1237.47 201.568 1236.94 201.567C1236.54 201.668 1236.14 201.819 1235.77 202.017C1234.6 202.426 1233.37 201.649 1232.17 201.31C1228.95 200.41 1224.86 202.584 1222.46 200.247C1222.69 201.736 1220.86 202.735 1219.35 202.706C1217.84 202.677 1216.28 202.122 1214.85 202.624C1215.05 203.002 1215.18 203.421 1215.2 203.85C1215.23 204.28 1215.16 204.71 1215 205.109C1214.84 205.509 1214.59 205.869 1214.28 206.162C1213.96 206.456 1213.58 206.676 1213.17 206.807L1213.88 208.35C1213.15 208.495 1212.48 208.842 1211.93 209.349C1211.39 209.857 1211 210.507 1210.8 211.224C1210.03 214.291 1210.22 218.649 1210.41 221.804C1210.5 223.189 1211.85 234.084 1210.9 234.604Z" fill="#192534"/>
<path d="M1228.96 260.572C1218.33 272.496 1215.62 289.28 1213.35 305.083L1210.01 328.417C1209.15 334.469 1208.26 340.521 1207.5 346.591C1206.97 350.745 1206.48 354.963 1207.05 359.111C1207.51 362.383 1208.6 365.537 1209.52 368.686C1211.89 376.945 1213.08 385.501 1213.03 394.094C1213.74 392.014 1216.2 391.173 1218.35 390.705C1236.44 386.791 1255.32 388.801 1272.17 396.436C1275.13 388.17 1274.58 379.126 1275.4 370.386C1276.57 357.925 1280.61 345.85 1281.81 333.412C1282.25 328.779 1282.3 324.123 1282.35 319.467C1282.38 316.049 1282.42 312.596 1281.7 309.249C1280.9 305.545 1279.22 302.092 1277.48 298.733C1272.67 289.395 1267.33 280.34 1261.48 271.614C1258.53 267.221 1255.46 262.915 1252.26 258.697C1250.64 256.559 1248.98 254.444 1247.3 252.352C1245.66 250.325 1244.95 248.567 1242.36 249.782C1237.45 252.072 1232.53 256.57 1228.96 260.572Z" fill="white"/>
<path d="M1235.06 359.818C1232.46 359.912 1229.86 359.83 1227.28 359.573C1225.36 359.386 1223.41 359.105 1221.54 359.573C1220.73 359.777 1219.97 360.149 1219.31 360.665C1219.06 360.882 1218.89 361.165 1218.8 361.48C1218.72 361.794 1218.72 362.127 1218.83 362.437C1218.93 362.747 1219.12 363.021 1219.37 363.225C1219.63 363.429 1219.94 363.555 1220.26 363.586L1222.27 363.761C1223.54 363.872 1224.86 364.001 1225.85 364.93C1226.26 365.295 1226.52 365.796 1226.58 366.338C1226.7 367.699 1225.52 368.441 1224.46 369.008C1222.95 369.714 1221.55 370.639 1220.32 371.753C1219.35 372.685 1218.75 373.926 1218.6 375.259C1218.6 375.378 1218.63 375.495 1218.68 375.601C1218.74 375.706 1218.82 375.795 1218.92 375.858C1219.02 375.921 1219.14 375.957 1219.26 375.962C1219.38 375.966 1219.49 375.939 1219.6 375.884C1221.94 374.715 1223.47 371.251 1226.04 371.829C1223.7 372.568 1221.7 374.105 1220.38 376.17C1220.06 376.663 1219.91 377.251 1219.96 377.839C1220.02 378.426 1220.27 378.979 1220.67 379.407C1221.08 379.835 1221.62 380.114 1222.21 380.198C1222.79 380.281 1223.39 380.165 1223.9 379.868C1224.28 379.646 1224.65 379.402 1225 379.138C1226.74 377.731 1228.31 376.114 1229.65 374.324C1227.77 378.267 1225.87 382.883 1228.03 386.803C1228.14 387.018 1228.31 387.198 1228.51 387.321C1228.72 387.443 1228.96 387.503 1229.2 387.492C1229.88 387.422 1230.08 386.785 1230.19 386.224C1230.54 384.419 1230.63 382.515 1231.52 380.908C1233.59 377.181 1238.67 376.819 1242.54 375.002C1247.19 372.852 1250.37 368.225 1251.66 363.282C1252.1 361.841 1252.18 360.31 1251.88 358.831C1251.02 355.507 1246.91 354.741 1244.27 356.348C1241.03 358.398 1239.15 359.69 1235.06 359.818Z" fill="#FBBEBE"/>
<path opacity="0.1" d="M1230.94 294.427C1235.04 300.743 1242.16 304.3 1248.27 308.735C1249.76 309.702 1251.06 310.934 1252.1 312.368C1253.64 314.74 1253.86 317.755 1253.54 320.547C1253.14 324.234 1251.95 327.78 1250.78 331.297L1248.22 338.921C1246.59 343.758 1244.92 348.695 1241.83 352.761C1241.04 353.795 1240.12 354.899 1240.15 356.196C1240.22 356.945 1240.48 357.665 1240.9 358.287C1241.89 359.895 1243.19 361.288 1244.73 362.384C1246.27 363.48 1248.02 364.257 1249.86 364.667C1250.97 364.947 1252.13 364.947 1253.23 364.667C1254.81 364.2 1256 362.914 1257.1 361.699C1262.38 355.898 1267.65 350.015 1271.46 343.209C1275.18 336.566 1277.41 329.188 1279.46 321.879C1280.3 319.189 1280.89 316.425 1281.22 313.624C1281.65 308.367 1280.27 303.109 1278 298.359C1275.74 293.609 1272.63 289.31 1269.43 285.132C1266.4 281.03 1263.04 277.184 1259.38 273.635C1253 267.694 1245.2 264.2 1236.67 267.571C1230.65 269.955 1228.39 274.926 1227.86 281.294C1227.4 285.892 1228.48 290.511 1230.94 294.427Z" fill="black"/>
<path d="M1233.08 292.827C1237.18 299.142 1244.3 302.7 1250.4 307.134C1251.89 308.111 1253.18 309.35 1254.22 310.791C1255.76 313.163 1255.97 316.172 1255.66 318.97C1255.25 322.656 1254.07 326.203 1252.89 329.719L1250.33 337.314C1248.7 342.151 1247.03 347.082 1243.94 351.154C1243.15 352.188 1242.23 353.287 1242.27 354.589C1242.33 355.338 1242.59 356.056 1243.02 356.675C1244.01 358.283 1245.31 359.678 1246.84 360.775C1248.38 361.871 1250.13 362.649 1251.97 363.06C1253.08 363.341 1254.24 363.341 1255.35 363.06C1256.93 362.599 1258.11 361.308 1259.22 360.098C1264.49 354.291 1269.77 348.414 1273.57 341.608C1277.3 334.966 1279.52 327.587 1281.57 320.273C1282.42 317.585 1283.01 314.823 1283.33 312.024C1283.76 306.766 1282.38 301.508 1280.13 296.752C1277.87 291.997 1274.75 287.703 1271.55 283.526C1268.51 279.444 1265.14 275.62 1261.48 272.093C1255.11 266.157 1247.31 262.658 1238.78 266.035C1232.75 268.418 1230.5 273.384 1229.95 279.758C1229.52 284.338 1230.62 288.932 1233.08 292.827Z" fill="white"/>
<path d="M1362.63 502.377C1362.64 503.9 1362.48 505.42 1362.17 506.91C1362.11 507.191 1362.04 507.495 1361.98 507.734C1360.31 514.388 1355.62 519.255 1350.02 519.564C1349.83 519.564 1349.64 519.564 1349.43 519.564C1343.51 519.564 1338.5 514.47 1336.85 507.454C1336.8 507.267 1336.76 507.08 1336.72 506.87C1336.4 505.379 1336.25 503.86 1336.25 502.336C1336.25 492.831 1342.15 485.131 1349.43 485.131C1356.72 485.131 1362.63 492.889 1362.63 502.377Z" fill="#161616"/>
<path opacity="0.1" d="M1362.63 502.377C1362.64 503.9 1362.48 505.42 1362.17 506.911C1362.11 507.191 1362.04 507.495 1361.98 507.734C1361.78 507.734 1361.59 507.734 1361.39 507.734C1359.94 507.656 1358.5 507.461 1357.08 507.15C1355.82 507.538 1354.54 507.83 1353.24 508.026C1352.24 508.176 1351.23 508.27 1350.23 508.307H1349.21C1348 508.307 1346.79 508.227 1345.6 508.067C1343.66 507.81 1341.76 507.339 1339.93 506.665C1338.93 506.998 1337.91 507.271 1336.87 507.483C1336.83 507.296 1336.78 507.109 1336.74 506.899C1336.43 505.408 1336.27 503.889 1336.27 502.365C1336.27 492.86 1342.17 485.16 1349.46 485.16C1356.74 485.16 1362.63 492.889 1362.63 502.377Z" fill="black"/>
<path d="M1390.76 470.327C1390.76 466.144 1389.78 462.019 1387.89 458.287L1372.38 463.095L1386 455.114C1383.71 451.827 1380.72 449.093 1377.23 447.113C1373.75 445.133 1369.86 443.958 1365.86 443.676C1365.23 442.712 1364.53 441.791 1363.77 440.918L1341.51 447.829L1359.77 437.121C1356.28 434.447 1352.18 432.674 1347.83 431.957C1343.49 431.24 1339.03 431.602 1334.86 433.011C1330.69 434.42 1326.93 436.832 1323.92 440.034C1320.9 443.236 1318.73 447.13 1317.58 451.37L1336.66 473.26L1315.97 458.339C1310.73 462.045 1306.99 467.506 1305.45 473.725C1303.91 479.944 1304.66 486.509 1307.57 492.223C1310.48 497.936 1315.34 502.418 1321.29 504.853C1327.23 507.287 1333.85 507.511 1339.95 505.485C1345.46 507.506 1351.49 507.672 1357.1 505.958C1361.02 506.818 1365.08 506.791 1368.98 505.879C1372.89 504.968 1376.54 503.196 1379.66 500.693C1382.79 498.19 1385.31 495.019 1387.05 491.415C1388.79 487.811 1389.69 483.865 1389.69 479.867C1389.69 479.283 1389.69 478.699 1389.63 478.115C1390.39 475.589 1390.77 472.964 1390.76 470.327Z" fill="#04C497"/>
<path opacity="0.1" d="M1390.3 475.281C1382.11 473.734 1373.71 473.627 1365.49 474.966C1356.18 476.502 1346.66 479.879 1337.56 477.414C1332.21 475.965 1327.6 472.611 1322.38 470.748C1317.34 468.996 1311.91 468.672 1306.7 469.813C1304.72 474.549 1304.14 479.755 1305.04 484.809C1305.95 489.863 1308.29 494.551 1311.79 498.313C1315.29 502.075 1319.81 504.751 1324.8 506.023C1329.79 507.295 1335.03 507.108 1339.92 505.485C1345.43 507.506 1351.46 507.672 1357.07 505.958C1360.99 506.818 1365.05 506.791 1368.95 505.879C1372.86 504.968 1376.51 503.196 1379.63 500.693C1382.76 498.19 1385.28 495.019 1387.02 491.415C1388.76 487.811 1389.66 483.865 1389.66 479.867C1389.66 479.283 1389.66 478.699 1389.61 478.115C1389.89 477.184 1390.12 476.238 1390.3 475.281Z" fill="black"/>
</svg>
