<svg width="86" height="86" viewBox="0 0 86 86" fill="none" xmlns="http://www.w3.org/2000/svg">
<path fill-rule="evenodd" clip-rule="evenodd" d="M28.6667 21.5H18.3255C25.2434 13.5858 32.8206 10.75 43 10.75C60.8112 10.75 75.25 25.1889 75.25 43C75.25 60.8112 60.8112 75.25 43 75.25C25.1889 75.25 10.75 60.8112 10.75 43H3.58337C3.58337 64.7693 21.2308 82.4167 43 82.4167C64.7693 82.4167 82.4167 64.7693 82.4167 43C82.4167 21.2308 64.7693 3.58337 43 3.58337C31.4854 3.58337 22.3496 6.84621 14.3334 15.2523V7.13521H7.16671V28.6667H28.6667V21.5ZM60.9167 39.4167H46.5834V21.5H39.4167V46.5834H60.9167V39.4167Z" fill="#04C497"/>
</svg>
