<svg width="84" height="84" viewBox="0 0 84 84" fill="none" xmlns="http://www.w3.org/2000/svg">
<path fill-rule="evenodd" clip-rule="evenodd" d="M56 7H70.6364C74.1509 7 77 10.134 77 14V28H70V14H56V7ZM13.3636 77H28V70H14V56H7V70C7 73.866 9.8491 77 13.3636 77ZM56 70V77H70.6364C74.1509 77 77 73.866 77 70V56H70V70H56ZM28 14V7H13.3636C9.8491 7 7 10.134 7 14V28H14V14H28Z" fill="#04C497"/>
<path d="M28 49C28 52.5 31.5 59.5 42 59.5C52.5 59.5 56 52.5 56 49" stroke="#04C497" stroke-width="2" stroke-linejoin="round"/>
<path d="M41.9899 24.5C41.9899 24.5 41.9899 38.5 42.0003 42C42.0003 43.75 40.2503 45.5 38.5003 45.5C36.7503 45.5 36.0254 45.5 36.0254 45.5" stroke="#04C497" stroke-width="2" stroke-linejoin="round"/>
<rect x="52.5" y="24.5" width="7" height="10.5" fill="#04C497"/>
<rect x="24.5" y="24.5" width="7" height="10.5" fill="#04C497"/>
</svg>
