<svg width="185" height="41" viewBox="0 0 185 41" fill="none" xmlns="http://www.w3.org/2000/svg">
<path d="M37.3381 8.904C33.6526 3.52725 27.4655 0 20.4545 0C9.15781 0 0 9.1578 0 20.4545C0 22.098 0.193841 23.6963 0.559889 25.2276L10.9761 14.8114C11.9746 13.8129 13.5935 13.8129 14.592 14.8114L23.0114 23.2307L37.3381 8.904Z" fill="#fff"/>
<path d="M39.7692 13.7047L24.8193 28.6545C23.8208 29.653 22.2019 29.653 21.2034 28.6545L12.7841 20.2352L2.59177 30.4275C6.09085 36.6814 12.779 40.9091 20.4545 40.9091C31.7513 40.9091 40.9091 31.7513 40.9091 20.4545C40.9091 18.0893 40.5076 15.8179 39.7692 13.7047Z" fill="#fff"/>
<path d="M52.0661 27.8513H56.5996V21.5509C56.5996 20.4972 57.1553 19.8825 58.0926 19.8825C59.0733 19.8825 59.6073 20.5631 59.6073 21.5729V27.8513H64.1408V21.3972C64.1408 20.4533 64.6966 19.8825 65.6338 19.8825C66.571 19.8825 67.1486 20.5191 67.1486 21.5729V27.8513H71.682V20.3435C71.682 17.9288 69.9166 16.2604 67.4755 16.2604C66.0261 16.2604 64.8927 16.8531 63.6613 18.2361C63.0074 17.0507 61.4817 16.2604 59.858 16.2604C58.5721 16.2604 57.5913 16.7653 56.5996 17.9397V16.6116H52.0661V27.8513Z" fill="white"/>
<path d="M73.3119 22.2095C73.3119 25.6121 76.1344 28.2025 79.8397 28.2025C82.2808 28.2025 84.384 27.072 85.4302 25.217L82.1827 23.5925C81.398 24.3608 80.9076 24.6023 80.1012 24.6023C78.7826 24.6023 77.9979 23.9547 77.9979 22.8681H85.561C85.5937 22.4949 85.6046 22.2753 85.6046 22.0448C85.6046 18.6093 83.2289 16.2604 79.7525 16.2604C76.1017 16.2604 73.3119 18.8398 73.3119 22.2095ZM79.6326 19.3996C80.5371 19.3996 81.0384 19.8167 81.1801 20.7167H78.1287C78.1396 19.8715 78.6736 19.3996 79.6326 19.3996Z" fill="white"/>
<path d="M87.3721 16.6116V27.8513H91.9056V21.6607C91.9056 20.5301 92.6357 19.7947 93.7364 19.7947C94.8371 19.7947 95.5672 20.5301 95.5672 21.6607V27.8513H100.101V20.6728C100.101 18.1593 98.1718 16.2604 95.6326 16.2604C94.2922 16.2604 92.93 16.7762 91.9056 18.1044V16.6116H87.3721Z" fill="white"/>
<path d="M101.432 16.6116V20.0801H103.176V23.5925C103.176 26.4902 104.701 28.2025 107.284 28.2025C108.396 28.2025 109.66 27.8842 110.608 27.3573L109.082 23.9328C108.864 24.0535 108.646 24.1194 108.418 24.1194C107.949 24.1194 107.709 23.823 107.709 23.2413V20.0801H109.932V16.6116H107.709V12.3967H103.176V16.6116H101.432Z" fill="white"/>
<path d="M111.308 22.2314C111.308 25.7438 114.272 28.2025 118.108 28.2025C121.944 28.2025 124.908 25.7438 124.908 22.2314C124.908 18.719 121.944 16.2604 118.108 16.2604C114.272 16.2604 111.308 18.719 111.308 22.2314ZM116.059 22.2314C116.059 20.9801 116.996 20.124 118.108 20.124C119.219 20.124 120.157 20.9801 120.157 22.2314C120.157 23.4827 119.219 24.3389 118.108 24.3389C116.996 24.3389 116.059 23.4827 116.059 22.2314Z" fill="white"/>
<path d="M126.716 27.8513H131.25V22.5607C131.25 21.1009 132.187 20.2118 133.495 20.2118C134.214 20.2118 134.912 20.4862 135.456 20.8923L137.353 17.0507C136.721 16.5897 135.772 16.2604 134.846 16.2604C133.484 16.2604 132.176 16.9738 131.25 18.291V16.6116H126.716V27.8513Z" fill="white"/>
<path d="M137.707 22.2095C137.707 25.6121 140.53 28.2025 144.235 28.2025C146.676 28.2025 148.779 27.072 149.826 25.217L146.578 23.5925C145.793 24.3608 145.303 24.6023 144.497 24.6023C143.178 24.6023 142.393 23.9547 142.393 22.8681H149.956C149.989 22.4949 150 22.2753 150 22.0448C150 18.6093 147.624 16.2604 144.148 16.2604C140.497 16.2604 137.707 18.8398 137.707 22.2095ZM144.028 19.3996C144.933 19.3996 145.434 19.8167 145.576 20.7167H142.524C142.535 19.8715 143.069 19.3996 144.028 19.3996Z" fill="white"/>
</svg>
