<svg width="88" height="88" viewBox="0 0 88 88" fill="none" xmlns="http://www.w3.org/2000/svg">
<rect width="88" height="88" fill="white" fill-opacity="0.01"/>
<path fill-rule="evenodd" clip-rule="evenodd" d="M22 83.6156L44.3183 69.6667H73.3334C77.3835 69.6667 80.6667 66.3834 80.6667 62.3333V18.3333C80.6667 14.2832 77.3835 11 73.3334 11H14.6667C10.6166 11 7.33337 14.2832 7.33337 18.3333V62.3333C7.33337 66.3834 10.6166 69.6667 14.6667 69.6667H22V83.6156ZM42.2151 62.3333L29.3333 70.3844V62.3333H14.6667V18.3333H73.3333V62.3333H42.2151ZM25.6667 51.3333V44H51.3333V51.3333H25.6667ZM25.6667 29.3333V36.6667H58.6667V29.3333H25.6667Z" fill="#04C497"/>
<mask id="mask0" mask-type="alpha" maskUnits="userSpaceOnUse" x="7" y="11" width="74" height="73">
<path fill-rule="evenodd" clip-rule="evenodd" d="M22 83.6156L44.3183 69.6667H73.3334C77.3835 69.6667 80.6667 66.3834 80.6667 62.3333V18.3333C80.6667 14.2832 77.3835 11 73.3334 11H14.6667C10.6166 11 7.33337 14.2832 7.33337 18.3333V62.3333C7.33337 66.3834 10.6166 69.6667 14.6667 69.6667H22V83.6156ZM42.2151 62.3333L29.3333 70.3844V62.3333H14.6667V18.3333H73.3333V62.3333H42.2151ZM25.6667 51.3333V44H51.3333V51.3333H25.6667ZM25.6667 29.3333V36.6667H58.6667V29.3333H25.6667Z" fill="white"/>
</mask>
<g mask="url(#mask0)">
</g>
</svg>
