<svg width="437" height="331" viewBox="0 0 437 331" fill="none" xmlns="http://www.w3.org/2000/svg">
<g clip-path="url(#clip0)">
<path d="M201.524 70.6129H93.7215C93.1923 70.6123 92.6848 70.4011 92.3106 70.0256C91.9363 69.6502 91.7258 69.1412 91.7252 68.6102V41.7833C91.7258 41.2523 91.9363 40.7432 92.3106 40.3678C92.6848 39.9923 93.1923 39.7811 93.7215 39.7805H201.524C202.053 39.7811 202.561 39.9923 202.935 40.3678C203.309 40.7432 203.52 41.2523 203.52 41.7833V68.6102C203.52 69.1412 203.309 69.6502 202.935 70.0256C202.561 70.4011 202.053 70.6123 201.524 70.6129V70.6129ZM93.7215 40.5816C93.404 40.5819 93.0995 40.7087 92.8749 40.9339C92.6504 41.1592 92.5241 41.4647 92.5237 41.7832V68.6102C92.5241 68.9288 92.6504 69.2342 92.8749 69.4595C93.0995 69.6848 93.404 69.8115 93.7215 69.8118H201.524C201.842 69.8115 202.146 69.6848 202.371 69.4595C202.595 69.2342 202.721 68.9288 202.722 68.6102V41.7833C202.721 41.4647 202.595 41.1592 202.371 40.9339C202.146 40.7087 201.842 40.582 201.524 40.5816L93.7215 40.5816Z" fill="#3F3D56"/>
<path d="M110.472 62.3255C114.963 62.3255 118.604 58.673 118.604 54.1674C118.604 49.6618 114.963 46.0093 110.472 46.0093C105.981 46.0093 102.34 49.6618 102.34 54.1674C102.34 58.673 105.981 62.3255 110.472 62.3255Z" fill="#4206D1"/>
<path d="M129.253 48.7286C128.893 48.7286 128.549 48.8719 128.295 49.1269C128.04 49.3819 127.898 49.7277 127.898 50.0883C127.898 50.4489 128.04 50.7948 128.295 51.0498C128.549 51.3048 128.893 51.448 129.253 51.448H193.147C193.507 51.448 193.852 51.3048 194.106 51.0498C194.36 50.7948 194.503 50.4489 194.503 50.0883C194.503 49.7277 194.36 49.3819 194.106 49.1269C193.852 48.8719 193.507 48.7286 193.147 48.7286H129.253Z" fill="#E6E6E6"/>
<path d="M129.253 56.8868C128.893 56.8868 128.549 57.03 128.295 57.285C128.04 57.54 127.898 57.8859 127.898 58.2465C127.898 58.6071 128.04 58.9529 128.295 59.2079C128.549 59.4629 128.893 59.6062 129.253 59.6062H156.747C156.925 59.6065 157.102 59.5715 157.266 59.5034C157.431 59.4352 157.581 59.3351 157.707 59.2088C157.833 59.0825 157.933 58.9325 158.001 58.7674C158.07 58.6022 158.105 58.4252 158.105 58.2465C158.105 58.0677 158.07 57.8907 158.001 57.7256C157.933 57.5604 157.833 57.4104 157.707 57.2841C157.581 57.1579 157.431 57.0578 157.266 56.9896C157.102 56.9214 156.925 56.8865 156.747 56.8868H129.253Z" fill="#E6E6E6"/>
<path d="M154.723 166.239H106.81C106.281 166.238 105.774 166.027 105.399 165.651C105.025 165.276 104.815 164.767 104.814 164.236V114.177C104.815 113.646 105.025 113.137 105.399 112.762C105.774 112.386 106.281 112.175 106.81 112.174H154.723C155.252 112.175 155.759 112.386 156.134 112.762C156.508 113.137 156.718 113.646 156.719 114.177V164.236C156.718 164.767 156.508 165.276 156.134 165.651C155.759 166.027 155.252 166.238 154.723 166.239ZM106.81 112.976C106.493 112.976 106.188 113.103 105.964 113.328C105.739 113.553 105.613 113.859 105.613 114.177V164.236C105.613 164.554 105.739 164.86 105.964 165.085C106.188 165.31 106.493 165.437 106.81 165.438H154.723C155.04 165.437 155.345 165.31 155.569 165.085C155.794 164.86 155.92 164.554 155.92 164.236V114.177C155.92 113.859 155.794 113.553 155.569 113.328C155.345 113.103 155.04 112.976 154.723 112.976H106.81Z" fill="#3F3D56"/>
<path d="M117.019 122.497C116.66 122.497 116.315 122.641 116.061 122.896C115.807 123.151 115.664 123.497 115.664 123.857C115.664 124.218 115.807 124.564 116.061 124.819C116.315 125.074 116.66 125.217 117.019 125.217H144.514C144.873 125.217 145.218 125.074 145.472 124.819C145.726 124.564 145.869 124.218 145.869 123.857C145.869 123.497 145.726 123.151 145.472 122.896C145.218 122.641 144.873 122.497 144.514 122.497H117.019Z" fill="#E6E6E6"/>
<path d="M117.02 130.508C116.841 130.508 116.665 130.543 116.5 130.611C116.335 130.679 116.186 130.78 116.06 130.906C115.933 131.032 115.833 131.182 115.765 131.347C115.697 131.512 115.662 131.689 115.662 131.868C115.662 132.047 115.697 132.224 115.765 132.389C115.833 132.554 115.933 132.704 116.06 132.83C116.186 132.957 116.335 133.057 116.5 133.125C116.665 133.193 116.841 133.228 117.02 133.228H144.514C144.873 133.228 145.218 133.085 145.472 132.83C145.726 132.575 145.869 132.229 145.869 131.868C145.869 131.508 145.726 131.162 145.472 130.907C145.218 130.652 144.873 130.508 144.514 130.508H117.02Z" fill="#E6E6E6"/>
<path d="M130.767 155.916C129.079 155.916 127.43 155.414 126.027 154.473C124.624 153.533 123.53 152.196 122.885 150.632C122.239 149.068 122.07 147.348 122.399 145.687C122.728 144.027 123.541 142.502 124.734 141.305C125.927 140.108 127.447 139.293 129.102 138.963C130.757 138.633 132.472 138.802 134.031 139.45C135.59 140.098 136.923 141.195 137.86 142.602C138.797 144.01 139.298 145.664 139.298 147.357C139.295 149.626 138.396 151.802 136.796 153.406C135.197 155.011 133.028 155.913 130.767 155.916V155.916Z" fill="#4206D1"/>
<path d="M233.211 0H281.123C281.653 0.000623476 282.16 0.211826 282.534 0.587277C282.908 0.962728 283.119 1.47177 283.12 2.00274V52.0615C283.119 52.5924 282.908 53.1015 282.534 53.4769C282.16 53.8524 281.653 54.0636 281.123 54.0642H233.211C232.682 54.0636 232.174 53.8524 231.8 53.4769C231.426 53.1015 231.215 52.5924 231.215 52.0615V2.00274C231.215 1.47177 231.426 0.962728 231.8 0.587277C232.174 0.211826 232.682 0.000623476 233.211 0V0ZM281.123 53.2631C281.441 53.2627 281.745 53.136 281.97 52.9108C282.194 52.6855 282.321 52.38 282.321 52.0615V2.00274C282.321 1.68415 282.194 1.37871 281.97 1.15343C281.745 0.928156 281.441 0.801443 281.123 0.801095H233.211C232.893 0.801443 232.589 0.928156 232.364 1.15343C232.14 1.37871 232.013 1.68415 232.013 2.00274V52.0615C232.013 52.38 232.14 52.6855 232.364 52.9108C232.589 53.136 232.893 53.2627 233.211 53.2631H281.123Z" fill="#3F3D56"/>
<path d="M270.914 43.7412C271.274 43.7412 271.618 43.5979 271.872 43.3429C272.127 43.0879 272.269 42.7421 272.269 42.3815C272.269 42.0209 272.127 41.675 271.872 41.42C271.618 41.165 271.274 41.0218 270.914 41.0218H243.42C243.061 41.0218 242.716 41.165 242.462 41.42C242.208 41.675 242.065 42.0209 242.065 42.3815C242.065 42.7421 242.208 43.0879 242.462 43.3429C242.716 43.5979 243.061 43.7412 243.42 43.7412H270.914Z" fill="#E6E6E6"/>
<path d="M270.914 35.7302C271.274 35.7302 271.618 35.5869 271.872 35.3319C272.127 35.077 272.269 34.7311 272.269 34.3705C272.269 34.0099 272.127 33.664 271.872 33.4091C271.618 33.1541 271.274 33.0108 270.914 33.0108H243.42C243.061 33.0108 242.716 33.1541 242.462 33.4091C242.208 33.664 242.065 34.0099 242.065 34.3705C242.065 34.7311 242.208 35.077 242.462 35.3319C242.716 35.5869 243.061 35.7302 243.42 35.7302H270.914Z" fill="#E6E6E6"/>
<path d="M257.167 10.323C258.854 10.323 260.504 10.825 261.907 11.7654C263.31 12.7058 264.403 14.0425 265.049 15.6064C265.695 17.1702 265.864 18.8911 265.534 20.5513C265.205 22.2115 264.393 23.7365 263.2 24.9334C262.006 26.1304 260.486 26.9455 258.831 27.2757C257.176 27.606 255.461 27.4365 253.902 26.7887C252.343 26.1409 251.011 25.0439 250.074 23.6365C249.136 22.229 248.636 20.5743 248.636 18.8816C248.638 16.6125 249.538 14.4371 251.137 12.8326C252.737 11.2281 254.905 10.3256 257.167 10.323Z" fill="#4206D1"/>
<path d="M92.3409 103.564C100.819 96.9761 110.725 92.4839 121.256 90.4507C131.87 88.4216 142.815 88.9858 153.167 92.0957C158.37 93.65 163.369 95.8232 168.058 98.569C172.836 101.371 177.153 104.82 181.306 108.472C185.514 112.171 189.583 116.035 193.976 119.518C206.516 129.574 222.084 135.068 238.138 135.103C239.464 135.105 240.79 135.069 242.114 134.993C242.832 134.954 242.837 133.828 242.114 133.868C225.749 134.772 209.589 129.873 196.462 120.029C191.91 116.614 187.753 112.709 183.509 108.925C179.395 105.256 175.171 101.688 170.503 98.7402C159.085 91.5243 145.803 87.8408 132.312 88.1493C118.821 88.4577 105.72 92.7446 94.6421 100.475C93.5887 101.21 92.5599 101.977 91.5476 102.768C90.9785 103.212 91.7775 104.004 92.3409 103.564V103.564Z" fill="#3F3D56"/>
<path d="M91.7452 109.004C94.9652 109.004 97.5756 106.385 97.5756 103.155C97.5756 99.9246 94.9652 97.3059 91.7452 97.3059C88.5252 97.3059 85.9149 99.9246 85.9149 103.155C85.9149 106.385 88.5252 109.004 91.7452 109.004Z" fill="#3F3D56"/>
<path d="M308.646 186.663C311.866 186.663 314.476 184.045 314.476 180.814C314.476 177.584 311.866 174.965 308.646 174.965C305.426 174.965 302.815 177.584 302.815 180.814C302.815 184.045 305.426 186.663 308.646 186.663Z" fill="#3F3D56"/>
<path d="M339.19 147.495H244.056C243.527 147.495 243.019 147.283 242.645 146.908C242.271 146.532 242.06 146.023 242.06 145.492V95.8343C242.06 95.3033 242.271 94.7943 242.645 94.4188C243.019 94.0434 243.527 93.8322 244.056 93.8315H339.19C339.719 93.8322 340.226 94.0434 340.6 94.4188C340.975 94.7943 341.185 95.3033 341.186 95.8343V145.492C341.185 146.023 340.975 146.532 340.6 146.908C340.226 147.283 339.719 147.495 339.19 147.495ZM244.056 94.6327C243.738 94.633 243.434 94.7597 243.209 94.985C242.985 95.2103 242.859 95.5157 242.858 95.8343V145.492C242.859 145.811 242.985 146.116 243.209 146.342C243.434 146.567 243.738 146.694 244.056 146.694H339.19C339.507 146.694 339.812 146.567 340.036 146.342C340.261 146.116 340.387 145.811 340.387 145.492V95.8343C340.387 95.5157 340.261 95.2103 340.036 94.985C339.812 94.7597 339.507 94.633 339.19 94.6327H244.056Z" fill="#3F3D56"/>
<path d="M260.008 119.581C264.499 119.581 268.14 115.928 268.14 111.423C268.14 106.917 264.499 103.265 260.008 103.265C255.517 103.265 251.876 106.917 251.876 111.423C251.876 115.928 255.517 119.581 260.008 119.581Z" fill="#4206D1"/>
<path d="M278.789 105.984C278.611 105.984 278.434 106.019 278.269 106.087C278.105 106.155 277.955 106.255 277.829 106.381C277.703 106.508 277.603 106.658 277.534 106.823C277.466 106.988 277.431 107.165 277.431 107.344C277.431 107.523 277.466 107.7 277.534 107.865C277.603 108.03 277.703 108.18 277.829 108.306C277.955 108.432 278.105 108.532 278.269 108.601C278.434 108.669 278.611 108.704 278.789 108.703H330.014C330.374 108.703 330.719 108.56 330.973 108.305C331.227 108.05 331.37 107.704 331.37 107.344C331.37 106.983 331.227 106.637 330.973 106.382C330.719 106.127 330.374 105.984 330.014 105.984H278.789Z" fill="#E6E6E6"/>
<path d="M278.789 114.142C278.611 114.142 278.434 114.177 278.269 114.245C278.105 114.313 277.955 114.413 277.829 114.54C277.703 114.666 277.603 114.816 277.534 114.981C277.466 115.146 277.431 115.323 277.431 115.502C277.431 115.681 277.466 115.858 277.534 116.023C277.603 116.188 277.703 116.338 277.829 116.464C277.955 116.591 278.105 116.691 278.269 116.759C278.434 116.827 278.611 116.862 278.789 116.862H306.283C306.642 116.862 306.987 116.718 307.241 116.463C307.495 116.208 307.638 115.862 307.638 115.502C307.638 115.141 307.495 114.795 307.241 114.54C306.987 114.285 306.642 114.142 306.283 114.142H278.789Z" fill="#E6E6E6"/>
<path d="M253.77 127.185C252.739 127.185 251.9 127.795 251.9 128.544C251.9 129.294 252.739 129.904 253.77 129.904H329.256C330.287 129.904 331.126 129.294 331.126 128.544C331.126 127.795 330.287 127.185 329.256 127.185H253.77Z" fill="#E6E6E6"/>
<path d="M253.77 135.343C252.739 135.343 251.9 135.953 251.9 136.702C251.9 137.452 252.739 138.062 253.77 138.062H329.256C330.287 138.062 331.126 137.452 331.126 136.702C331.126 135.953 330.287 135.343 329.256 135.343H253.77Z" fill="#E6E6E6"/>
<path d="M236.409 186.259C241.776 183.924 247.768 185.96 252.827 188.113C255.432 189.222 258.009 190.405 260.706 191.28C262.974 192.015 265.297 192.567 267.653 192.932C272.38 193.658 277.187 193.688 281.923 193.02C286.683 192.354 291.321 191.001 295.695 189.002C300.044 187.025 304.064 184.388 307.614 181.185C308.065 180.776 308.508 180.357 308.942 179.929C309.459 179.421 308.665 178.625 308.149 179.133C304.731 182.476 300.806 185.255 296.522 187.367C292.255 189.472 287.703 190.939 283.013 191.721C278.306 192.517 273.508 192.6 268.777 191.968C266.417 191.647 264.087 191.139 261.807 190.448C259.189 189.593 256.621 188.593 254.114 187.45C249.008 185.25 243.335 183.096 237.725 184.613C237.082 184.792 236.453 185.017 235.842 185.288C235.182 185.575 235.752 186.545 236.409 186.259V186.259Z" fill="#3F3D56"/>
<path d="M234.335 200.064H189.389L199.966 181.684C200.156 181.355 200.429 181.081 200.757 180.891C201.085 180.701 201.458 180.601 201.837 180.601C202.216 180.601 202.589 180.701 202.917 180.891C203.245 181.081 203.518 181.355 203.708 181.684L208.226 189.535L215.909 176.186C216.146 175.773 216.488 175.431 216.899 175.193C217.31 174.954 217.776 174.829 218.251 174.829C218.726 174.829 219.192 174.954 219.603 175.193C220.014 175.431 220.356 175.773 220.593 176.186L234.335 200.064Z" fill="#4206D1"/>
<path d="M234.378 200.059H186.465C185.936 200.058 185.429 199.847 185.054 199.471C184.68 199.096 184.469 198.587 184.469 198.056V171.229C184.469 170.698 184.68 170.189 185.054 169.813C185.429 169.438 185.936 169.227 186.465 169.226H234.378C234.907 169.227 235.414 169.438 235.788 169.813C236.163 170.189 236.373 170.698 236.374 171.229V198.056C236.373 198.587 236.163 199.096 235.788 199.471C235.414 199.847 234.907 200.058 234.378 200.059ZM186.465 170.027C186.148 170.028 185.843 170.154 185.619 170.38C185.394 170.605 185.268 170.91 185.267 171.229V198.056C185.268 198.374 185.394 198.68 185.619 198.905C185.843 199.13 186.148 199.257 186.465 199.258H234.378C234.695 199.257 235 199.13 235.224 198.905C235.449 198.68 235.575 198.374 235.575 198.056V171.229C235.575 170.91 235.449 170.605 235.224 170.38C235 170.154 234.695 170.028 234.378 170.027H186.465Z" fill="#3F3D56"/>
<path d="M328.351 176.448L319.811 180.799C316.763 182.352 313.821 182.086 312.694 178.848C312.426 178.078 312.327 177.258 312.404 176.446C312.481 175.633 312.732 174.847 313.14 174.141C313.548 173.435 314.103 172.825 314.768 172.354C315.432 171.883 316.19 171.562 316.99 171.412L325.107 169.892L359.869 158.322L380.927 143.342L388.646 155.68L364.314 168.852L328.351 176.448Z" fill="#FFB8B8"/>
<path d="M368.218 320.859L361.683 319.766L362.41 307.384H369.307L368.218 320.859Z" fill="#FFB8B8"/>
<path d="M431.635 308.765L425.311 310.744L420.397 299.363L426.554 296.245L431.635 308.765Z" fill="#FFB8B8"/>
<path d="M428.114 297.916L420.127 301.193L382.012 250.938L370.033 309.933L362.047 308.477C356.924 257.615 352.746 205.736 357.872 181.2L387.457 179.925L400.888 222.897L407.422 252.031L428.114 297.916Z" fill="#2F2E41"/>
<path d="M367.858 330.872C366.663 331.129 365.418 330.996 364.304 330.493L360.422 328.741C357.168 328.573 354.952 329.224 353.139 326.851C352.628 326.173 352.307 325.37 352.21 324.526C352.112 323.681 352.242 322.826 352.585 322.048V322.048C352.925 321.268 353.466 320.593 354.153 320.092C354.839 319.591 355.646 319.282 356.49 319.198L361.822 315.827L362.101 318.354C364.538 319.739 367.431 319.141 370.496 317.793L372.17 323.668C372.386 324.425 372.444 325.219 372.341 326.001C372.238 326.782 371.977 327.533 371.572 328.209C371.168 328.884 370.63 329.469 369.991 329.927C369.352 330.386 368.626 330.707 367.858 330.872Z" fill="#2F2E41"/>
<path d="M434.222 318.82C433.176 319.452 431.955 319.733 430.738 319.62L426.5 319.227C423.367 320.129 421.482 321.466 419 319.812C418.297 319.337 417.733 318.682 417.368 317.915C417.002 317.148 416.848 316.297 416.921 315.45C416.99 314.601 417.283 313.787 417.77 313.089C418.257 312.392 418.92 311.837 419.692 311.482L423.643 306.557L424.726 308.856C427.478 309.372 430.021 307.864 432.484 305.59L435.968 310.602C436.418 311.248 436.73 311.98 436.885 312.752C437.041 313.524 437.037 314.321 436.873 315.091C436.71 315.862 436.39 316.59 435.934 317.232C435.478 317.873 434.895 318.414 434.222 318.82V318.82Z" fill="#2F2E41"/>
<path d="M376.567 128.213C383.784 128.213 389.635 122.343 389.635 115.103C389.635 107.862 383.784 101.993 376.567 101.993C369.349 101.993 363.499 107.862 363.499 115.103C363.499 122.343 369.349 128.213 376.567 128.213Z" fill="#FFB8B8"/>
<path d="M392.539 142.78L375.478 139.138L373.3 124.936L385.279 122.386L392.539 142.78Z" fill="#FFB8B8"/>
<path d="M387.82 181.746H357.327L364.201 164.435C363.701 158.478 366.218 154.097 369.819 150.283L374.389 138.774C381.772 133.899 387.338 134.263 393.265 140.595C400.293 150.577 395.428 165.582 387.82 181.746Z" fill="#4206D1"/>
<path d="M374.026 218.527L373.159 228.097C372.849 231.512 371.061 233.871 367.728 233.106C366.935 232.925 366.191 232.573 365.546 232.076C364.901 231.578 364.37 230.947 363.991 230.225C363.612 229.503 363.392 228.707 363.348 227.893C363.304 227.078 363.435 226.263 363.734 225.504L366.766 217.799L375.478 182.11L374.026 156.254H388.546L386.731 183.931L374.026 218.527Z" fill="#FFB8B8"/>
<path d="M389.635 156.982H372.937L374.107 146.055C374.184 144.165 374.963 142.372 376.29 141.028C377.617 139.684 379.397 138.887 381.28 138.792V138.792C382.278 138.742 383.276 138.891 384.216 139.231C385.156 139.57 386.02 140.093 386.757 140.77C387.495 141.446 388.091 142.263 388.512 143.172C388.932 144.081 389.169 145.065 389.208 146.067L389.635 156.982Z" fill="#4206D1"/>
<path d="M392.741 101.623C395.453 101.623 397.653 99.4166 397.653 96.6951C397.653 93.9736 395.453 91.7673 392.741 91.7673C390.028 91.7673 387.829 93.9736 387.829 96.6951C387.829 99.4166 390.028 101.623 392.741 101.623Z" fill="#2F2E41"/>
<path d="M387.679 95.4887C387.76 94.2384 388.313 93.0661 389.225 92.2104C390.137 91.3547 391.34 90.88 392.589 90.883C392.487 90.8701 392.387 90.8544 392.284 90.8477C390.984 90.7647 389.705 91.2028 388.727 92.0657C387.749 92.9285 387.153 94.1456 387.069 95.4493C386.986 96.7531 387.422 98.0367 388.281 99.0181C389.141 99.9995 390.354 100.598 391.653 100.683C391.757 100.69 391.858 100.687 391.961 100.687C390.722 100.53 389.589 99.9044 388.794 98.9385C387.998 97.9727 387.6 96.739 387.679 95.4887V95.4887Z" fill="#2F2E41"/>
<path d="M387.651 97.593C383.271 93.9472 370.706 98.5808 369.895 101.032C363.971 101.842 359.486 105.309 359.486 111.474V111.474C363.008 112.922 367.013 112.743 371.343 111.474C378.246 117.117 378.719 124.211 374.521 132.359L379.686 132.463L386.087 123.077L386.393 132.597L398.231 132.359V118.716C398.269 114.18 397.228 109.7 395.195 105.648C393.35 102.052 390.487 99.9531 387.651 97.593Z" fill="#2F2E41"/>
<path d="M376.628 121.698C377.925 121.698 378.977 120.221 378.977 118.399C378.977 116.577 377.925 115.1 376.628 115.1C375.331 115.1 374.279 116.577 374.279 118.399C374.279 120.221 375.331 121.698 376.628 121.698Z" fill="#FFB8B8"/>
<path d="M81.0789 122.585C81.0789 122.585 82.4929 98.0327 89.8334 103.612C97.1739 109.19 86.6277 124.862 86.6277 124.862L81.0789 122.585Z" fill="#FFB9B9"/>
<path d="M53.7689 195.413C53.7689 195.413 70.0747 213.777 60.9519 215.039C51.8291 216.302 48.2404 197.739 48.2404 197.739L53.7689 195.413Z" fill="#FFB9B9"/>
<path d="M32.4913 108.486C34.5378 109.027 36.3796 110.161 37.7853 111.748C39.1911 113.335 40.0981 115.303 40.3926 117.406L45.5793 154.441L52.8504 183.984C52.8504 183.984 56.4859 187.266 55.0317 189.09C53.5775 190.913 56.8495 198.573 56.8495 198.573L47.7606 201.49C47.7606 201.49 46.6699 193.831 44.8522 193.466C43.2546 193.146 25.3716 145.22 21.061 133.61C20.4667 132.009 20.1303 131.099 20.1303 131.099C20.1303 131.099 20.8575 106.663 32.4913 108.486Z" fill="#575A89"/>
<path d="M34.1514 301.622L39.734 311.547C44.0572 320.806 40.2155 322.488 29.6155 317.898L27.1992 306.179L34.1514 301.622Z" fill="#FFB9B9"/>
<path d="M36.9681 314.813C36.9681 314.813 39.6183 310.484 40.5768 311.209C41.5354 311.933 45.489 315.073 45.489 315.073L50.6387 320.021C50.6387 320.021 68.0374 321.866 56.9819 327.982C45.9263 334.098 39.8167 329.027 39.8167 329.027C39.8167 329.027 24.3323 329.835 24.5821 325.501C24.8319 321.167 29.8257 314.31 29.8257 314.31C29.8257 314.31 36.1196 318.543 36.9681 314.813Z" fill="#2F2E41"/>
<path d="M9.3784 189.436L14.6121 252.967C14.6121 252.967 14.7866 290.946 20.3693 298.296C25.9519 305.647 26.1263 309.322 26.1263 309.322L37.6406 303.372C37.6406 303.372 31.709 293.456 32.9302 291.939C33.683 290.976 34.2187 289.861 34.5003 288.67L31.3601 249.467L37.2916 181.21L9.3784 189.436Z" fill="#2F2E41"/>
<path d="M23.6837 301.622L18.7989 314.573L7.72083 309.927L13.5653 300.222L23.6837 301.622Z" fill="#FFB9B9"/>
<path d="M15.5346 310.211C15.5346 310.211 19.6894 307.606 20.2088 308.648C20.7282 309.69 22.8056 314.119 22.8056 314.119L25.1427 320.631C25.1427 320.631 39.425 329.749 27.2201 330.27C15.0152 330.791 11.8991 323.757 11.8991 323.757C11.8991 323.757 -1.86387 317.766 0.213568 314.118C2.29101 310.471 9.56199 306.689 9.56199 306.689C9.56199 306.689 13.1975 313.076 15.5346 310.211Z" fill="#2F2E41"/>
<path d="M53.6907 189.611L56.482 248.066C56.482 248.066 31.0112 300.922 28.2198 302.322C27.3881 302.753 26.6508 303.346 26.0515 304.068C25.4523 304.789 25.0031 305.624 24.7307 306.522L9.37839 302.672L16.3567 291.471L31.709 254.017C31.709 254.017 34.1514 252.967 34.8493 249.467C35.5471 245.966 36.9428 245.966 33.4536 245.266C29.9644 244.566 29.9644 241.066 29.9644 241.066L18.4502 187.861L53.6907 189.611Z" fill="#2F2E41"/>
<path d="M54.9061 86.143C56.1408 78.5101 50.9738 71.3183 43.3653 70.0797C35.7568 68.841 28.588 74.0246 27.3533 81.6575C26.1186 89.2904 31.2856 96.4822 38.8941 97.7209C46.5026 98.9595 53.6714 93.7759 54.9061 86.143Z" fill="#FFB9B9"/>
<path d="M28.7432 84.7753C28.7432 84.7753 27.6965 102.627 26.3008 104.377C24.9052 106.127 40.9553 105.777 40.9553 105.777C40.9553 105.777 39.9085 90.7259 40.9553 89.3258C42.002 87.9256 28.7432 84.7753 28.7432 84.7753Z" fill="#FFB9B9"/>
<path d="M54.7362 193.462C54.7362 193.462 15.3086 189.962 7.98322 193.462C7.98322 193.462 10.6799 183.426 9.9831 182.377C9.47635 181.61 10.8745 153.022 10.4356 136.532C10.1867 127.226 8.04656 118.139 14.2679 111.231C16.3855 108.884 18.7473 106.914 21.2404 105.952C21.2404 105.952 20.5436 99.3017 24.0321 98.9522C24.0321 98.9522 37.2938 97.5496 42.1758 101.753C43.7368 103.087 44.7187 107.154 44.8227 110.659C42.4066 122.578 43.2617 135.805 45.4788 149.527C45.6145 150.399 45.7639 151.275 45.9132 152.151C48.266 165.759 51.8223 179.79 54.7362 193.462Z" fill="#575A89"/>
<path d="M33.8386 88.0259C35.0189 87.9553 36.1714 88.3555 37.3435 88.5116C41.537 89.0701 45.8996 86.0173 46.8255 81.8763C46.8997 81.3249 47.0636 80.7894 47.3105 80.2911C47.9559 79.234 49.4258 79.0324 50.6375 79.2755C51.8492 79.5186 52.9977 80.0875 54.2317 80.1525C56.137 80.2528 57.9662 79.076 58.9816 77.4556C59.9412 75.7838 60.3492 73.8505 60.1474 71.9321L59.234 72.8938C58.8629 72.1061 58.7196 71.2296 58.8205 70.3642C58.3364 70.2349 57.8274 70.2324 57.3422 70.357C56.8569 70.4816 56.4116 70.729 56.049 71.0757C55.2436 71.1617 55.8515 69.577 55.2531 69.0294C54.9621 68.85 54.6153 68.7849 54.2793 68.8466C52.5659 68.8632 51.1799 67.5485 49.8297 66.4901C47.4904 64.6604 44.7547 63.4086 41.8439 62.8358C39.9091 62.4572 37.8518 62.3964 36.017 63.1191C34.5358 63.7862 33.199 64.7374 32.0819 65.9194C29.2093 68.6905 26.6656 71.9464 25.4706 75.7603C24.499 78.8843 24.4715 82.2269 25.3915 85.3665C25.873 86.997 27.3243 92.581 29.4489 92.711C32.1185 92.8744 30.5157 88.2248 33.8386 88.0259Z" fill="#2F2E41"/>
<path d="M39.6155 110.205L44.6157 110.742C44.6157 110.742 49.5241 120.295 49.1677 122.288C48.8112 124.281 48.0349 123.071 50.2442 126.259C52.4534 129.447 58.7222 137.688 59.4985 138.897C60.2748 140.107 81.4378 123.909 80.1221 119.055C80.1221 119.055 86.806 123.866 89.6695 124.506C89.6695 124.506 67.8593 153.201 64.82 156.874C61.7807 160.546 59.3346 159.792 55.1577 157.614C50.9809 155.437 29.8503 133.719 29.8503 133.719L39.6155 110.205Z" fill="#575A89"/>
<path opacity="0.1" d="M45.9131 152.151L28.5341 134.716L32.932 133.277L45.4788 149.527C45.6145 150.399 45.7639 151.275 45.9131 152.151Z" fill="black"/>
</g>
<defs>
<clipPath id="clip0">
<rect width="437" height="331" fill="white"/>
</clipPath>
</defs>
</svg>
