<svg width="487" height="282" viewBox="0 0 487 282" fill="none" xmlns="http://www.w3.org/2000/svg">
<g clip-path="url(#clip0)">
<g opacity="0.1">
<path opacity="0.1" d="M358.058 277.841C363.256 277.841 367.47 272.341 367.47 265.558C367.47 258.774 363.256 253.274 358.058 253.274C352.86 253.274 348.646 258.774 348.646 265.558C348.646 272.341 352.86 277.841 358.058 277.841Z" fill="#3F3D56"/>
<path opacity="0.1" d="M365.506 213.009C366.824 210.727 367.508 208.136 367.487 205.502C367.487 198.704 363.273 193.219 358.075 193.219C352.877 193.219 348.667 198.717 348.667 205.502C348.641 208.134 349.319 210.726 350.631 213.009C349.344 215.302 348.667 217.887 348.667 220.515C348.667 223.143 349.344 225.727 350.631 228.02C349.344 230.314 348.667 232.899 348.667 235.528C348.667 238.156 349.344 240.741 350.631 243.035C349.319 245.319 348.641 247.91 348.667 250.543C348.667 257.34 352.881 262.826 358.075 262.826C363.269 262.826 367.487 257.328 367.487 250.543C367.513 247.91 366.835 245.319 365.523 243.035C366.811 240.741 367.487 238.156 367.487 235.528C367.487 232.899 366.811 230.314 365.523 228.02C366.811 225.727 367.487 223.143 367.487 220.515C367.487 217.887 366.811 215.302 365.523 213.009H365.506Z" fill="#3F3D56"/>
<path opacity="0.1" d="M358.058 202.774C363.256 202.774 367.47 197.275 367.47 190.491C367.47 183.707 363.256 178.208 358.058 178.208C352.86 178.208 348.646 183.707 348.646 190.491C348.646 197.275 352.86 202.774 358.058 202.774Z" fill="#3F3D56"/>
<path opacity="0.1" d="M358.058 187.759C363.256 187.759 367.47 182.26 367.47 175.476C367.47 168.692 363.256 163.193 358.058 163.193C352.86 163.193 348.646 168.692 348.646 175.476C348.646 182.26 352.86 187.759 358.058 187.759Z" fill="#3F3D56"/>
<path opacity="0.1" d="M393.285 72.7338C394.57 71.1008 395.74 69.3817 396.788 67.5886L372.076 63.5395L398.82 63.7392C401.383 58.1729 402.781 52.1438 402.927 46.0205C403.074 39.8971 401.966 33.8084 399.672 28.1265L363.789 46.6764L396.886 22.4332C393.784 17.0955 389.614 12.4516 384.635 8.79047C379.655 5.12936 373.974 2.52945 367.943 1.15258C361.913 -0.224296 355.663 -0.348662 349.582 0.787224C343.501 1.92311 337.72 4.29493 332.599 7.75505C327.477 11.2152 323.124 15.6895 319.811 20.8996C316.499 26.1096 314.297 31.9439 313.343 38.0392C312.389 44.1345 312.704 50.3603 314.267 56.3291C315.83 62.298 318.609 67.882 322.43 72.7338C320.427 75.274 318.704 78.0217 317.291 80.9295L349.387 97.559L315.165 86.0875C312.757 93.1683 312.158 100.736 313.423 108.106C314.688 115.476 317.776 122.415 322.408 128.294C317.179 134.924 313.926 142.888 313.021 151.274C312.116 159.661 313.596 168.132 317.292 175.72C320.987 183.307 326.75 189.704 333.919 194.18C341.089 198.656 349.377 201.029 357.836 201.029C366.295 201.029 374.583 198.656 381.753 194.18C388.923 189.704 394.685 183.307 398.381 175.72C402.077 168.132 403.557 159.661 402.652 151.274C401.747 142.888 398.494 134.924 393.264 128.294C399.513 120.372 402.911 110.585 402.911 100.505C402.911 90.426 399.513 80.639 393.264 72.7168L393.285 72.7338Z" fill="#4206D1"/>
<path opacity="0.1" d="M312.784 100.525C312.768 110.606 316.167 120.397 322.43 128.311C317.2 134.941 313.947 142.905 313.042 151.291C312.137 159.678 313.617 168.149 317.313 175.737C321.009 183.324 326.771 189.721 333.941 194.197C341.111 198.673 349.399 201.046 357.858 201.046C366.317 201.046 374.605 198.673 381.775 194.197C388.944 189.721 394.707 183.324 398.402 175.737C402.098 168.149 403.578 159.678 402.673 151.291C401.768 142.905 398.515 134.941 393.285 128.311C399.327 120.664 312.784 95.4771 312.784 100.525Z" fill="black"/>
</g>
<g opacity="0.1">
<path opacity="0.1" d="M94.0809 264.703C97.2435 264.703 99.8073 261.356 99.8073 257.226C99.8073 253.096 97.2435 249.748 94.0809 249.748C90.9183 249.748 88.3545 253.096 88.3545 257.226C88.3545 261.356 90.9183 264.703 94.0809 264.703Z" fill="#3F3D56"/>
<path opacity="0.1" d="M98.6356 225.237C99.4349 223.846 99.8482 222.268 99.8328 220.666C99.8328 216.536 97.2764 213.188 94.1022 213.188C90.9279 213.188 88.3758 216.536 88.3758 220.666C88.3591 222.268 88.7709 223.846 89.5688 225.237C88.7867 226.634 88.3761 228.207 88.3761 229.807C88.3761 231.406 88.7867 232.979 89.5688 234.376C88.7867 235.773 88.3761 237.346 88.3761 238.946C88.3761 240.545 88.7867 242.118 89.5688 243.515C88.7703 244.904 88.3584 246.481 88.3758 248.083C88.3758 252.217 90.9322 255.565 94.1022 255.565C97.2722 255.565 99.8328 252.217 99.8328 248.083C99.8489 246.481 99.4356 244.904 98.6356 243.515C99.4201 242.119 99.832 240.546 99.832 238.946C99.832 237.345 99.4201 235.772 98.6356 234.376C99.4201 232.98 99.832 231.407 99.832 229.807C99.832 228.206 99.4201 226.633 98.6356 225.237Z" fill="#3F3D56"/>
<path opacity="0.1" d="M94.0809 219.004C97.2435 219.004 99.8073 215.656 99.8073 211.527C99.8073 207.397 97.2435 204.049 94.0809 204.049C90.9183 204.049 88.3545 207.397 88.3545 211.527C88.3545 215.656 90.9183 219.004 94.0809 219.004Z" fill="#3F3D56"/>
<path opacity="0.1" d="M94.0809 209.865C97.2435 209.865 99.8073 206.517 99.8073 202.388C99.8073 198.258 97.2435 194.91 94.0809 194.91C90.9183 194.91 88.3545 198.258 88.3545 202.388C88.3545 206.517 90.9183 209.865 94.0809 209.865Z" fill="#3F3D56"/>
<path opacity="0.1" d="M72.6452 139.838C71.8632 138.845 71.1513 137.798 70.5149 136.707L85.568 134.242L69.2878 134.366C67.7292 130.979 66.8789 127.311 66.7888 123.585C66.6987 119.86 67.3706 116.155 68.7637 112.697L90.5914 124.003L70.451 109.217C72.34 105.97 74.8789 103.145 77.9097 100.919C80.9406 98.6918 84.3986 97.1108 88.0685 96.2739C91.7384 95.437 95.5417 95.3621 99.2419 96.0539C102.942 96.7457 106.46 98.1893 109.577 100.295C112.693 102.401 115.342 105.123 117.358 108.294C119.374 111.464 120.715 115.014 121.296 118.723C121.877 122.432 121.686 126.221 120.736 129.853C119.786 133.486 118.096 136.885 115.772 139.838C116.991 141.382 118.04 143.053 118.9 144.822L99.3599 154.951L120.195 147.979C121.658 152.291 122.02 156.899 121.248 161.385C120.476 165.872 118.594 170.096 115.772 173.675C118.955 177.711 120.936 182.559 121.486 187.664C122.037 192.769 121.136 197.926 118.886 202.545C116.636 207.163 113.128 211.058 108.764 213.782C104.399 216.507 99.3537 217.951 94.2045 217.951C89.0552 217.951 84.0099 216.507 79.6453 213.782C75.2807 211.058 71.7729 207.163 69.5231 202.545C67.2733 197.926 66.3721 192.769 66.9227 187.664C67.4734 182.559 69.4535 177.711 72.6367 173.675C68.8329 168.851 66.765 162.893 66.765 156.756C66.765 150.62 68.8329 144.662 72.6367 139.838H72.6452Z" fill="#4206D1"/>
<path opacity="0.1" d="M121.643 156.756C121.653 162.894 119.584 168.855 115.772 173.675C118.955 177.711 120.936 182.559 121.486 187.664C122.037 192.769 121.136 197.926 118.886 202.545C116.636 207.163 113.128 211.058 108.764 213.782C104.399 216.507 99.3537 217.951 94.2044 217.951C89.0552 217.951 84.0099 216.507 79.6453 213.782C75.2807 211.058 71.7729 207.163 69.5231 202.545C67.2733 197.926 66.3721 192.769 66.9227 187.664C67.4733 182.559 69.4535 177.711 72.6367 173.675C68.9597 169.039 121.643 153.685 121.643 156.756Z" fill="black"/>
</g>
<g opacity="0.1">
<path opacity="0.1" d="M223.181 271.213C227.414 271.213 230.846 266.733 230.846 261.207C230.846 255.681 227.414 251.201 223.181 251.201C218.947 251.201 215.516 255.681 215.516 261.207C215.516 266.733 218.947 271.213 223.181 271.213Z" fill="#3F3D56"/>
<path opacity="0.1" d="M229.248 218.397C230.316 216.535 230.868 214.423 230.846 212.279C230.846 206.755 227.437 202.273 223.176 202.273C218.916 202.273 215.507 206.755 215.507 212.279C215.485 214.424 216.038 216.536 217.109 218.397C216.059 220.265 215.507 222.371 215.507 224.513C215.507 226.655 216.059 228.76 217.109 230.629C216.059 232.496 215.507 234.602 215.507 236.743C215.507 238.884 216.059 240.989 217.109 242.857C216.038 244.717 215.485 246.829 215.507 248.975C215.507 254.498 218.941 258.98 223.176 258.98C227.412 258.98 230.846 254.498 230.846 248.975C230.868 246.83 230.316 244.718 229.248 242.857C230.296 240.988 230.846 238.883 230.846 236.743C230.846 234.602 230.296 232.497 229.248 230.629C230.296 228.76 230.846 226.654 230.846 224.513C230.846 222.371 230.296 220.266 229.248 218.397Z" fill="#3F3D56"/>
<path opacity="0.1" d="M223.181 210.056C227.414 210.056 230.846 205.577 230.846 200.051C230.846 194.525 227.414 190.045 223.181 190.045C218.947 190.045 215.516 194.525 215.516 200.051C215.516 205.577 218.947 210.056 223.181 210.056Z" fill="#3F3D56"/>
<path opacity="0.1" d="M223.181 197.824C227.414 197.824 230.846 193.345 230.846 187.819C230.846 182.293 227.414 177.813 223.181 177.813C218.947 177.813 215.516 182.293 215.516 187.819C215.516 193.345 218.947 197.824 223.181 197.824Z" fill="#3F3D56"/>
<path opacity="0.1" d="M194.502 104.119C193.454 102.79 192.5 101.39 191.647 99.9298L211.788 96.6328L190.007 96.7943C187.917 92.2599 186.777 87.3481 186.656 82.3593C186.535 77.3704 187.436 72.4095 189.304 67.7798L218.532 82.8967L191.575 63.1402C194.093 58.7757 197.487 54.9761 201.545 51.9788C205.603 48.9815 210.237 46.8508 215.157 45.72C220.078 44.5892 225.18 44.4825 230.144 45.4066C235.108 46.3307 239.827 48.2658 244.007 51.0908C248.187 53.9159 251.738 57.5703 254.438 61.8256C257.138 66.0809 258.928 70.8458 259.698 75.8224C260.468 80.799 260.2 85.8804 258.911 90.7492C257.623 95.6179 255.341 100.169 252.209 104.119C253.84 106.189 255.243 108.428 256.393 110.798L230.249 124.343L258.127 114.996C260.085 120.766 260.57 126.932 259.536 132.936C258.503 138.94 255.985 144.592 252.209 149.381C256.469 154.782 259.118 161.269 259.855 168.101C260.592 174.933 259.386 181.833 256.375 188.014C253.365 194.195 248.671 199.406 242.83 203.052C236.989 206.698 230.238 208.631 223.347 208.631C216.456 208.631 209.704 206.698 203.864 203.052C198.023 199.406 193.329 194.195 190.318 188.014C187.308 181.833 186.102 174.933 186.838 168.101C187.575 161.269 190.225 154.782 194.485 149.381C189.395 142.926 186.628 134.953 186.628 126.741C186.628 118.53 189.395 110.557 194.485 104.102L194.502 104.119Z" fill="#4206D1"/>
<path opacity="0.1" d="M260.066 126.76C260.078 134.973 257.31 142.95 252.209 149.398C256.469 154.799 259.118 161.286 259.855 168.118C260.592 174.95 259.386 181.85 256.375 188.031C253.365 194.212 248.671 199.423 242.83 203.069C236.989 206.715 230.238 208.648 223.347 208.648C216.456 208.648 209.704 206.715 203.864 203.069C198.023 199.423 193.329 194.212 190.318 188.031C187.308 181.85 186.102 174.95 186.838 168.118C187.575 161.286 190.225 154.799 194.485 149.398C189.564 143.169 260.066 122.648 260.066 126.76Z" fill="black"/>
</g>
<path d="M487 270.312C487 273.231 465.603 275.899 430.226 277.959C423.792 278.329 416.898 278.682 409.587 279.013C403.27 279.296 396.649 279.564 389.724 279.816C383.014 280.054 376.048 280.275 368.825 280.479C346.013 281.129 320.794 281.596 294.002 281.83C287.5 281.889 280.912 281.935 274.237 281.966C267.283 281.997 260.25 282.011 253.138 282.008C123.978 282.008 19.2797 276.778 19.2797 270.325C19.2797 263.871 123.978 258.641 253.138 258.641C308.744 258.641 359.809 259.614 399.945 261.228L404.334 261.406H404.359C454.917 263.544 487 266.76 487 270.312Z" fill="#3F3D56"/>
<path opacity="0.15" d="M487 270.312C487 273.231 465.603 275.899 430.226 277.959C423.792 278.329 416.898 278.682 409.587 279.013C403.27 279.296 396.649 279.564 389.724 279.816C383.014 280.054 376.048 280.275 368.825 280.479C346.013 281.129 320.794 281.596 294.002 281.83C287.5 281.889 280.912 281.935 274.237 281.966C267.283 281.997 260.25 282.011 253.138 282.008C123.978 282.008 19.2797 276.778 19.2797 270.325C19.2797 263.871 123.978 258.641 253.138 258.641C308.744 258.641 359.809 259.614 399.945 261.228L404.334 261.406H404.359C454.917 263.544 487 266.76 487 270.312Z" fill="black"/>
<path d="M467.72 268.255C467.72 270.694 446.323 272.929 410.946 274.628C404.517 274.939 397.619 275.232 390.312 275.508C383.991 275.746 377.37 275.97 370.448 276.179C363.739 276.378 356.773 276.563 349.549 276.736C326.733 277.28 301.514 277.671 274.723 277.866C268.226 277.914 261.638 277.951 254.957 277.976C248.004 278.002 240.972 278.015 233.862 278.015C104.703 278.015 0 273.643 0 268.243C0 262.843 104.703 258.471 233.862 258.471C289.465 258.471 340.529 259.282 380.665 260.633L385.054 260.782H385.084C435.658 262.596 467.72 265.269 467.72 268.255Z" fill="#3F3D56"/>
<path d="M60.3999 179.487L54.5287 161.562L195.132 160.028L200.893 177.775L60.3999 179.487Z" fill="#3F3D56"/>
<path opacity="0.15" d="M60.3999 179.487L54.5287 161.562L195.132 160.028L200.893 177.775L60.3999 179.487Z" fill="black"/>
<path d="M51.0264 179.487L45.1551 161.562L185.759 160.028L191.519 177.775L51.0264 179.487Z" fill="#3F3D56"/>
<path d="M291.054 151.943C276.516 151.943 265.059 146.188 256.683 134.68C248.306 123.172 244.118 109.23 244.118 92.8557C244.118 76.3707 248.168 62.4575 256.269 51.1163C264.37 39.7751 275.798 34.1101 290.551 34.1214C306.196 34.1214 317.984 40.0965 325.915 52.0468C333.846 63.997 337.812 77.828 337.815 93.5397C337.815 109.138 333.711 122.774 325.502 134.446C317.293 146.119 305.81 151.951 291.054 151.943ZM291.48 138.997C301.044 138.997 308.192 134.84 312.924 126.527C317.656 118.213 320.022 107.733 320.022 95.0863C320.022 81.0088 317.601 69.4821 312.758 60.506C307.915 51.5298 300.487 47.0404 290.474 47.0375C271.443 47.0375 261.928 62.112 261.928 92.2609C261.928 123.421 271.776 139 291.471 138.997H291.48ZM296.269 262.97H275.242L412.898 36.4285H433.528L296.269 262.97ZM418.049 265.294C403.292 265.294 391.789 259.487 383.537 247.874C375.285 236.261 371.143 222.318 371.108 206.046C371.108 189.671 375.131 175.813 383.175 164.472C391.219 153.131 402.675 147.466 417.542 147.477C433.076 147.477 444.782 153.452 452.659 165.403C460.535 177.353 464.475 191.182 464.478 206.891C464.478 222.388 460.4 235.998 452.245 247.721C444.09 259.445 432.689 265.303 418.04 265.294H418.049ZM418.296 252.017C427.814 252.017 434.924 247.931 439.625 239.759C444.326 231.588 446.677 221.15 446.677 208.446C446.677 194.85 444.298 183.448 439.54 174.24C434.782 165.031 427.37 160.42 417.303 160.406C398.161 160.406 388.59 175.48 388.59 205.629C388.585 236.557 398.484 252.02 418.287 252.017H418.296Z" fill="#3F3D56"/>
<path d="M291.054 151.943C276.516 151.943 265.059 146.188 256.683 134.68C248.306 123.172 244.118 109.23 244.118 92.8557C244.118 76.3707 248.168 62.4575 256.269 51.1163C264.37 39.7751 275.798 34.1101 290.551 34.1214C306.196 34.1214 317.984 40.0965 325.915 52.0468C333.846 63.997 337.812 77.828 337.815 93.5397C337.815 109.138 333.711 122.774 325.502 134.446C317.293 146.119 305.81 151.951 291.054 151.943ZM291.48 138.997C301.044 138.997 308.192 134.84 312.924 126.527C317.656 118.213 320.022 107.733 320.022 95.0863C320.022 81.0088 317.601 69.4821 312.758 60.506C307.915 51.5298 300.487 47.0404 290.474 47.0375C271.443 47.0375 261.928 62.112 261.928 92.2609C261.928 123.421 271.776 139 291.471 138.997H291.48ZM296.269 262.97H275.242L412.898 36.4285H433.528L296.269 262.97ZM418.049 265.294C403.292 265.294 391.789 259.487 383.537 247.874C375.285 236.261 371.143 222.318 371.108 206.046C371.108 189.671 375.131 175.813 383.175 164.472C391.219 153.131 402.675 147.466 417.542 147.477C433.076 147.477 444.782 153.452 452.659 165.403C460.535 177.353 464.475 191.182 464.478 206.891C464.478 222.388 460.4 235.998 452.245 247.721C444.09 259.445 432.689 265.303 418.04 265.294H418.049ZM418.296 252.017C427.814 252.017 434.924 247.931 439.625 239.759C444.326 231.588 446.677 221.15 446.677 208.446C446.677 194.85 444.298 183.448 439.54 174.24C434.782 165.031 427.37 160.42 417.303 160.406C398.161 160.406 388.59 175.48 388.59 205.629C388.585 236.557 398.484 252.02 418.287 252.017H418.296Z" fill="#3F3D56"/>
<path opacity="0.15" d="M291.054 151.943C276.516 151.943 265.059 146.188 256.683 134.68C248.306 123.172 244.118 109.23 244.118 92.8557C244.118 76.3707 248.168 62.4575 256.269 51.1163C264.37 39.7751 275.798 34.1101 290.551 34.1214C306.196 34.1214 317.984 40.0965 325.915 52.0468C333.846 63.997 337.812 77.828 337.815 93.5397C337.815 109.138 333.711 122.774 325.502 134.446C317.293 146.119 305.81 151.951 291.054 151.943ZM291.48 138.997C301.044 138.997 308.192 134.84 312.924 126.527C317.656 118.213 320.022 107.733 320.022 95.0863C320.022 81.0088 317.601 69.4821 312.758 60.506C307.915 51.5298 300.487 47.0404 290.474 47.0375C271.443 47.0375 261.928 62.112 261.928 92.2609C261.928 123.421 271.776 139 291.471 138.997H291.48ZM296.269 262.97H275.242L412.898 36.4285H433.528L296.269 262.97ZM418.049 265.294C403.292 265.294 391.789 259.487 383.537 247.874C375.285 236.261 371.143 222.318 371.108 206.046C371.108 189.671 375.131 175.813 383.175 164.472C391.219 153.131 402.675 147.466 417.542 147.477C433.076 147.477 444.782 153.452 452.659 165.403C460.535 177.353 464.475 191.182 464.478 206.891C464.478 222.388 460.4 235.998 452.245 247.721C444.09 259.445 432.689 265.303 418.04 265.294H418.049ZM418.296 252.017C427.814 252.017 434.924 247.931 439.625 239.759C444.326 231.588 446.677 221.15 446.677 208.446C446.677 194.85 444.298 183.448 439.54 174.24C434.782 165.031 427.37 160.42 417.303 160.406C398.161 160.406 388.59 175.48 388.59 205.629C388.585 236.557 398.484 252.02 418.287 252.017H418.296Z" fill="black"/>
<path d="M277.846 151.943C263.308 151.943 251.851 146.188 243.474 134.68C235.098 123.172 230.91 109.23 230.91 92.8557C230.91 76.3707 234.96 62.4575 243.061 51.1163C251.162 39.7751 262.589 34.1101 277.343 34.1214C292.988 34.1214 304.776 40.0965 312.707 52.0468C320.637 63.997 324.604 77.828 324.607 93.5397C324.607 109.138 320.503 122.774 312.294 134.446C304.085 146.119 292.602 151.951 277.846 151.943ZM278.272 138.997C287.836 138.997 294.984 134.84 299.716 126.527C304.448 118.213 306.814 107.733 306.814 95.0863C306.814 81.0088 304.393 69.4821 299.55 60.506C294.707 51.5298 287.279 47.0404 277.266 47.0375C258.235 47.0375 248.719 62.112 248.719 92.2609C248.719 123.421 258.567 139 278.263 138.997H278.272ZM283.061 262.97H262.034L399.689 36.4285H420.32L283.061 262.97ZM404.841 265.294C390.084 265.294 378.58 259.487 370.329 247.874C362.077 236.261 357.934 222.318 357.9 206.046C357.9 189.671 361.922 175.813 369.967 164.472C378.011 153.131 389.467 147.466 404.334 147.477C419.868 147.477 431.574 153.452 439.45 165.403C447.327 177.353 451.267 191.182 451.27 206.891C451.27 222.388 447.192 235.998 439.037 247.721C430.882 259.445 419.48 265.303 404.832 265.294H404.841ZM405.088 252.017C414.606 252.017 421.716 247.931 426.417 239.759C431.118 231.588 433.468 221.15 433.468 208.446C433.468 194.85 431.089 183.448 426.332 174.24C421.574 165.031 414.159 160.42 404.086 160.406C384.945 160.406 375.374 175.48 375.374 205.629C375.374 236.557 385.275 252.02 405.079 252.017H405.088Z" fill="#3F3D56"/>
<path d="M323.844 268.655C325.6 265.409 323.606 261.432 321.313 258.534C319.021 255.637 316.226 252.629 316.286 248.937C316.371 243.638 322.012 240.507 326.512 237.694C329.858 235.61 332.944 233.137 335.706 230.327C336.863 229.245 337.819 227.968 338.531 226.554C339.464 224.481 339.434 222.123 339.383 219.854C339.187 212.286 338.812 204.729 338.258 197.183" stroke="#3F3D56" stroke-width="4" stroke-miterlimit="10"/>
<path d="M346.831 196.766C346.767 195.382 346.354 194.036 345.631 192.852C344.908 191.669 343.898 190.686 342.694 189.994L340.836 193.656L340.891 189.221C340.005 188.963 339.083 188.852 338.16 188.894C336.522 188.97 334.944 189.529 333.625 190.501C332.305 191.472 331.304 192.811 330.748 194.349C330.192 195.888 330.106 197.556 330.501 199.143C330.896 200.73 331.754 202.165 332.966 203.266C334.179 204.367 335.691 205.085 337.313 205.328C338.934 205.572 340.592 205.331 342.076 204.635C343.56 203.939 344.804 202.82 345.65 201.42C346.497 200.019 346.907 198.4 346.831 196.766Z" fill="#4206D1"/>
<path d="M332.046 252.739C331.176 254.425 329.752 255.761 328.011 256.523C326.27 257.286 324.32 257.428 322.486 256.927C320.653 256.426 319.048 255.311 317.941 253.77C316.834 252.229 316.292 250.355 316.406 248.463C316.519 246.57 317.282 244.774 318.566 243.376C319.85 241.978 321.577 241.063 323.458 240.784C325.338 240.505 327.257 240.879 328.894 241.843C330.531 242.808 331.785 244.304 332.447 246.081L327.266 250.283L332.975 248.958C332.973 250.274 332.654 251.571 332.046 252.739Z" fill="#4206D1"/>
<path d="M327.952 236.675C326.864 236.726 325.777 236.562 324.752 236.194C323.728 235.826 322.786 235.26 321.981 234.529C321.176 233.798 320.523 232.916 320.06 231.933C319.597 230.951 319.332 229.887 319.281 228.802C319.217 227.507 319.462 226.215 319.997 225.033C320.492 223.929 321.224 222.946 322.141 222.154C323.059 221.362 324.139 220.78 325.306 220.449L325.259 223.848L327.138 220.143C329.335 220.04 331.482 220.812 333.108 222.289C334.734 223.765 335.706 225.825 335.808 228.016C335.911 230.206 335.137 232.348 333.657 233.969C332.176 235.591 330.11 236.559 327.913 236.662L327.952 236.675Z" fill="#4206D1"/>
<path d="M348.079 223.321C346.979 223.394 345.875 223.247 344.831 222.889C343.788 222.532 342.827 221.97 342.005 221.237C341.182 220.505 340.514 219.616 340.04 218.623C339.565 217.63 339.295 216.552 339.243 215.454C339.191 214.355 339.36 213.257 339.739 212.224C340.118 211.191 340.7 210.244 341.451 209.438C342.201 208.632 343.106 207.983 344.111 207.53C345.116 207.077 346.201 206.828 347.304 206.798C348.853 206.722 350.393 207.086 351.743 207.847L350.278 211.849L353.294 208.965C354.913 210.436 355.88 212.488 355.983 214.671C356.021 215.436 355.949 216.203 355.77 216.948C355.358 218.7 354.384 220.27 352.996 221.42C351.608 222.57 349.882 223.237 348.079 223.321Z" fill="#4206D1"/>
<path opacity="0.1" d="M345.715 198.972C343.802 199.18 341.944 199.775 340.022 199.894C338.101 200.013 335.992 199.554 334.777 198.062C334.121 197.264 333.797 196.248 333.244 195.373C332.72 194.558 332.003 193.885 331.156 193.414C330.624 194.462 330.321 195.611 330.269 196.785C330.217 197.959 330.417 199.13 330.854 200.22C331.292 201.311 331.957 202.296 332.807 203.11C333.656 203.924 334.67 204.549 335.78 204.942C336.89 205.334 338.071 205.487 339.245 205.389C340.419 205.291 341.559 204.944 342.588 204.372C343.617 203.801 344.512 203.017 345.214 202.073C345.915 201.129 346.407 200.047 346.656 198.899C346.341 198.916 346.03 198.938 345.715 198.972Z" fill="black"/>
<path opacity="0.1" d="M348.079 223.321C346.651 223.386 345.229 223.082 343.953 222.437C342.677 221.793 341.589 220.831 340.796 219.645C340.002 218.458 339.53 217.087 339.424 215.665C339.319 214.242 339.583 212.817 340.193 211.527C340.85 211.971 341.415 212.536 341.859 213.192C342.451 214.08 342.809 215.108 343.503 215.924C344.782 217.441 347.001 217.934 349 217.844C350.998 217.755 352.932 217.186 354.926 216.995C355.203 216.969 355.484 216.952 355.778 216.944C355.366 218.698 354.392 220.27 353.002 221.421C351.612 222.572 349.884 223.239 348.079 223.321Z" fill="black"/>
<path opacity="0.1" d="M327.952 236.675C326.864 236.726 325.777 236.562 324.752 236.194C323.728 235.826 322.786 235.26 321.981 234.529C321.176 233.798 320.523 232.916 320.06 231.933C319.597 230.951 319.332 229.887 319.281 228.802C319.217 227.507 319.462 226.215 319.997 225.033C320.681 225.487 321.274 226.064 321.748 226.733C322.391 227.638 322.796 228.683 323.55 229.52C324.948 231.071 327.3 231.619 329.417 231.568C331.535 231.517 333.448 231.024 335.489 230.867C334.983 232.49 333.988 233.918 332.64 234.957C331.291 235.996 329.654 236.596 327.952 236.675Z" fill="black"/>
<path opacity="0.1" d="M332.046 252.739C331.081 254.63 329.425 256.079 327.419 256.785C325.413 257.492 323.211 257.403 321.269 256.536C319.327 255.669 317.794 254.092 316.986 252.129C316.178 250.166 316.158 247.969 316.929 245.992C317.612 246.44 318.225 246.985 318.749 247.611C319.537 248.571 320.057 249.659 320.968 250.551C322.673 252.208 325.4 252.892 327.837 252.956C329.243 252.967 330.649 252.895 332.046 252.739Z" fill="black"/>
<path d="M452.092 268.23C453.847 264.984 451.853 261.007 449.561 258.11C447.269 255.212 444.474 252.204 444.533 248.512C444.619 243.213 450.26 240.082 454.759 237.27C458.105 235.185 461.192 232.712 463.954 229.902C465.11 228.82 466.067 227.543 466.779 226.129C467.712 224.056 467.682 221.698 467.631 219.429C467.435 211.861 467.06 204.304 466.506 196.758" stroke="#3F3D56" stroke-width="4" stroke-miterlimit="10"/>
<path d="M475.079 196.342C475.014 194.957 474.602 193.611 473.879 192.428C473.156 191.244 472.146 190.261 470.941 189.569L469.084 193.232L469.139 188.796C468.253 188.538 467.33 188.427 466.408 188.469C464.77 188.545 463.191 189.105 461.872 190.076C460.553 191.047 459.552 192.386 458.996 193.925C458.44 195.463 458.354 197.131 458.749 198.718C459.144 200.305 460.001 201.74 461.214 202.841C462.426 203.942 463.939 204.66 465.561 204.903C467.182 205.147 468.84 204.906 470.324 204.21C471.808 203.514 473.052 202.396 473.898 200.995C474.744 199.594 475.155 197.975 475.079 196.342Z" fill="#4206D1"/>
<path d="M460.294 252.314C459.424 254 457.999 255.336 456.259 256.098C454.518 256.861 452.567 257.004 450.734 256.502C448.9 256.001 447.296 254.886 446.189 253.345C445.081 251.804 444.539 249.93 444.653 248.038C444.767 246.145 445.53 244.35 446.814 242.952C448.098 241.553 449.825 240.638 451.705 240.359C453.585 240.08 455.505 240.454 457.142 241.418C458.778 242.383 460.033 243.879 460.694 245.657L455.513 249.858L461.223 248.533C461.22 249.849 460.902 251.146 460.294 252.314Z" fill="#4206D1"/>
<path d="M456.199 236.25C455.112 236.301 454.024 236.137 453 235.769C451.976 235.401 451.034 234.835 450.229 234.104C449.424 233.373 448.771 232.491 448.307 231.508C447.844 230.526 447.58 229.462 447.529 228.377C447.464 227.082 447.71 225.79 448.245 224.608C448.74 223.504 449.472 222.521 450.389 221.729C451.306 220.937 452.386 220.355 453.553 220.024L453.507 223.423L455.386 219.718H455.407C456.495 219.667 457.582 219.831 458.606 220.199C459.63 220.567 460.572 221.133 461.377 221.864C462.182 222.595 462.835 223.477 463.298 224.46C463.762 225.442 464.026 226.506 464.077 227.591C464.128 228.676 463.964 229.76 463.595 230.781C463.226 231.803 462.659 232.742 461.926 233.544C461.192 234.347 460.308 234.998 459.322 235.46C458.337 235.922 457.27 236.186 456.182 236.237L456.199 236.25Z" fill="#4206D1"/>
<path d="M476.327 222.896C475.226 222.969 474.122 222.822 473.079 222.465C472.036 222.107 471.075 221.545 470.252 220.813C469.429 220.08 468.761 219.191 468.287 218.198C467.813 217.205 467.542 216.127 467.491 215.029C467.439 213.93 467.608 212.832 467.987 211.799C468.366 210.766 468.948 209.819 469.698 209.013C470.449 208.207 471.353 207.558 472.358 207.105C473.363 206.652 474.449 206.403 475.551 206.373C477.101 206.298 478.64 206.661 479.991 207.422L478.525 211.425L481.542 208.54C483.161 210.011 484.128 212.064 484.231 214.246C484.268 215.011 484.197 215.778 484.018 216.523C483.605 218.275 482.631 219.845 481.243 220.995C479.856 222.145 478.129 222.813 476.327 222.896Z" fill="#4206D1"/>
<path opacity="0.1" d="M473.962 198.547C472.049 198.755 470.191 199.35 468.27 199.469C466.348 199.588 464.239 199.129 463.025 197.638C462.369 196.839 462.045 195.823 461.491 194.948C460.968 194.133 460.251 193.46 459.403 192.989C458.871 194.037 458.569 195.186 458.517 196.36C458.465 197.534 458.664 198.705 459.102 199.795C459.539 200.886 460.205 201.871 461.054 202.686C461.904 203.5 462.917 204.124 464.027 204.517C465.138 204.91 466.319 205.062 467.493 204.964C468.667 204.866 469.806 204.519 470.835 203.948C471.865 203.376 472.76 202.592 473.461 201.648C474.163 200.705 474.654 199.623 474.904 198.475C474.588 198.492 474.277 198.513 473.962 198.547Z" fill="black"/>
<path opacity="0.1" d="M476.327 222.896C474.898 222.961 473.477 222.657 472.201 222.013C470.925 221.368 469.837 220.406 469.044 219.22C468.25 218.033 467.778 216.662 467.672 215.24C467.566 213.817 467.831 212.392 468.44 211.102C469.097 211.546 469.663 212.111 470.106 212.767C470.699 213.655 471.056 214.683 471.751 215.499C473.029 217.016 475.249 217.509 477.247 217.42C479.246 217.33 481.18 216.761 483.174 216.57C483.451 216.544 483.732 216.527 484.026 216.519C483.614 218.273 482.639 219.845 481.25 220.996C479.86 222.147 478.132 222.814 476.327 222.896Z" fill="black"/>
<path opacity="0.1" d="M456.199 236.25C455.112 236.301 454.024 236.137 453 235.769C451.976 235.401 451.034 234.835 450.229 234.104C449.424 233.373 448.771 232.491 448.307 231.508C447.844 230.526 447.58 229.462 447.529 228.377C447.464 227.082 447.71 225.79 448.245 224.608C448.928 225.063 449.522 225.639 449.996 226.308C450.639 227.213 451.044 228.258 451.798 229.095C453.195 230.646 455.547 231.194 457.665 231.143C459.719 231.1 461.696 230.599 463.736 230.442C463.231 232.065 462.236 233.493 460.887 234.532C459.539 235.571 457.902 236.171 456.199 236.25Z" fill="black"/>
<path opacity="0.1" d="M460.294 252.314C459.329 254.205 457.672 255.654 455.666 256.36C453.66 257.067 451.459 256.978 449.517 256.111C447.575 255.245 446.042 253.667 445.234 251.704C444.426 249.742 444.405 247.544 445.177 245.567C445.859 246.015 446.472 246.561 446.996 247.186C447.784 248.146 448.304 249.234 449.216 250.126C450.92 251.783 453.647 252.467 456.084 252.531C457.49 252.542 458.896 252.47 460.294 252.314Z" fill="black"/>
<path d="M46.8381 262.707C45.0827 259.461 47.0767 255.484 49.3689 252.586C51.6612 249.689 54.4562 246.68 54.3966 242.988C54.3114 237.69 48.6702 234.559 44.1709 231.746C40.8246 229.662 37.7382 227.189 34.9762 224.379C33.8196 223.297 32.8634 222.019 32.1514 220.606C31.2183 218.533 31.2481 216.175 31.2992 213.906C31.4952 206.337 31.8702 198.78 32.4241 191.235" stroke="#3F3D56" stroke-width="4" stroke-miterlimit="10"/>
<path d="M23.8515 190.818C23.9156 189.434 24.3282 188.088 25.0512 186.904C25.7742 185.721 26.7844 184.738 27.9887 184.046L29.8463 187.708L29.791 183.273C30.6771 183.014 31.5998 182.904 32.5221 182.945C34.1601 183.022 35.7386 183.581 37.0579 184.552C38.3772 185.523 39.3782 186.863 39.9341 188.401C40.4901 189.94 40.5761 191.608 40.1813 193.195C39.7865 194.782 38.9286 196.217 37.7161 197.318C36.5037 198.419 34.991 199.136 33.3695 199.38C31.748 199.624 30.0904 199.382 28.6064 198.687C27.1224 197.991 25.8785 196.872 25.0322 195.472C24.1858 194.071 23.7749 192.452 23.8515 190.818Z" fill="#4206D1"/>
<path d="M38.6362 246.791C39.5062 248.477 40.9309 249.813 42.6714 250.575C44.412 251.338 46.3626 251.48 48.196 250.979C50.0295 250.478 51.6343 249.363 52.7415 247.822C53.8486 246.281 54.3907 244.407 54.2769 242.514C54.163 240.622 53.4002 238.826 52.1162 237.428C50.8323 236.03 49.1053 235.115 47.2249 234.836C45.3445 234.556 43.425 234.931 41.7883 235.895C40.1517 236.86 38.8973 238.356 38.2357 240.133L43.4167 244.335L37.7073 243.01C37.7097 244.326 38.0282 245.622 38.6362 246.791Z" fill="#4206D1"/>
<path d="M42.7307 230.727C43.8184 230.777 44.9056 230.614 45.93 230.246C46.9544 229.878 47.8961 229.312 48.7013 228.581C49.5064 227.85 50.1593 226.968 50.6226 225.985C51.0858 225.002 51.3504 223.938 51.4013 222.854C51.4658 221.559 51.2204 220.267 50.6855 219.085C50.1902 217.981 49.4582 216.998 48.541 216.206C47.6238 215.414 46.5436 214.832 45.3766 214.501L45.4235 217.9L43.5445 214.195C41.3478 214.092 39.2001 214.864 37.5741 216.341C35.9481 217.817 34.9768 219.877 34.8739 222.068C34.7711 224.258 35.5452 226.4 37.0258 228.021C38.5064 229.643 40.5723 230.611 42.7691 230.714L42.7307 230.727Z" fill="#4206D1"/>
<path d="M22.6031 217.373C23.7037 217.446 24.8078 217.299 25.8509 216.941C26.894 216.583 27.855 216.022 28.6778 215.289C29.5006 214.557 30.1686 213.668 30.6428 212.675C31.117 211.682 31.3877 210.604 31.4393 209.505C31.4909 208.407 31.3222 207.309 30.9431 206.276C30.564 205.243 29.9822 204.296 29.2316 203.49C28.481 202.684 27.5767 202.035 26.5717 201.582C25.5667 201.128 24.4812 200.879 23.3785 200.85C21.8361 200.778 20.3048 201.142 18.9602 201.899L20.4259 205.901L17.388 203.029C15.772 204.498 14.8053 206.545 14.6995 208.722C14.6617 209.488 14.7335 210.255 14.9125 211C15.3248 212.752 16.2988 214.322 17.6866 215.472C19.0745 216.622 20.8005 217.289 22.6031 217.373Z" fill="#4206D1"/>
<path opacity="0.1" d="M24.9678 193.023C26.8809 193.232 28.7385 193.826 30.6601 193.945C32.5817 194.064 34.6908 193.605 35.9051 192.114C36.5612 191.315 36.885 190.3 37.4389 189.425C37.962 188.61 38.6793 187.937 39.5267 187.466C40.0589 188.514 40.3611 189.663 40.413 190.837C40.465 192.01 40.2656 193.181 39.8281 194.272C39.3905 195.363 38.725 196.348 37.8757 197.162C37.0264 197.976 36.0129 198.601 34.9027 198.993C33.7924 199.386 32.611 199.539 31.4371 199.441C30.2632 199.342 29.1237 198.996 28.0946 198.424C27.0654 197.853 26.1703 197.069 25.4688 196.125C24.7673 195.181 24.2755 194.099 24.0262 192.951C24.3415 192.968 24.6525 192.989 24.9678 193.023Z" fill="black"/>
<path opacity="0.1" d="M22.6031 217.373C24.0319 217.438 25.4533 217.133 26.7294 216.489C28.0055 215.845 29.093 214.883 29.8865 213.696C30.68 212.51 31.1525 211.139 31.2581 209.716C31.3638 208.294 31.0991 206.869 30.4897 205.578C29.8328 206.022 29.2673 206.588 28.8238 207.244C28.2315 208.132 27.8736 209.16 27.1791 209.976C25.9009 211.493 23.6811 211.985 21.6828 211.896C19.6845 211.807 17.7502 211.238 15.7561 211.046C15.4792 211.021 15.198 211.004 14.904 210.995C15.3159 212.749 16.2908 214.321 17.6804 215.472C19.07 216.623 20.7985 217.291 22.6031 217.373Z" fill="black"/>
<path opacity="0.1" d="M42.7307 230.727C43.8185 230.777 44.9056 230.614 45.93 230.246C46.9545 229.878 47.8962 229.312 48.7013 228.581C49.5065 227.85 50.1593 226.968 50.6226 225.985C51.0859 225.002 51.3505 223.938 51.4013 222.854C51.4658 221.559 51.2205 220.267 50.6855 219.085C50.0019 219.539 49.4082 220.115 48.9344 220.784C48.291 221.689 47.8862 222.735 47.1321 223.572C45.7346 225.122 43.3826 225.671 41.2651 225.62C39.2114 225.577 37.2344 225.076 35.1935 224.919C35.6994 226.541 36.6943 227.97 38.0429 229.009C39.3914 230.048 41.0283 230.648 42.7307 230.727Z" fill="black"/>
<path opacity="0.1" d="M38.6362 246.791C39.601 248.682 41.2577 250.13 43.2637 250.837C45.2696 251.544 47.4713 251.455 49.4131 250.588C51.3549 249.721 52.8884 248.143 53.6962 246.181C54.5041 244.218 54.5245 242.021 53.7532 240.044C53.0706 240.492 52.4576 241.037 51.9339 241.663C51.1456 242.623 50.6258 243.711 49.714 244.603C48.0097 246.26 45.2829 246.944 42.8458 247.008C41.4395 247.019 40.0338 246.947 38.6362 246.791Z" fill="black"/>
<path d="M286.959 222.892C286.967 221.862 286.733 220.844 286.276 219.92C285.819 218.997 285.151 218.193 284.326 217.572C284.224 213.676 281.437 210.494 277.854 210.001C277.577 208.678 276.956 207.45 276.052 206.442C275.149 205.433 273.995 204.68 272.707 204.257C272.394 204.158 272.073 204.083 271.749 204.032H271.655L271.489 204.011H271.348H271.207H271.024H270.913H270.611C266.955 204.011 263.913 206.798 263.287 210.473C260.922 209.929 258.753 210.634 258.366 212.126C258.266 212.521 258.288 212.937 258.43 213.32C258.83 214.475 260.134 215.58 261.902 216.128L262.132 216.196C262.247 216.23 262.362 216.255 262.477 216.281H262.554C261.904 217.663 261.812 219.241 262.296 220.689C262.781 222.138 263.805 223.344 265.157 224.06C265.104 224.089 265.053 224.122 265.004 224.158C264.785 224.358 264.611 224.601 264.493 224.872C264.065 225.619 263.733 226.417 263.504 227.247C263.334 227.956 263.304 228.7 263.078 229.401C262.69 230.676 261.693 231.793 261.578 233.148C261.527 233.752 261.625 234.461 261.195 234.873C261.088 234.965 260.974 235.049 260.854 235.124C260.552 235.33 260.297 235.596 260.104 235.906C259.978 236.162 259.81 236.395 259.606 236.594C259.218 236.887 258.579 236.857 258.387 237.308C258.195 237.758 258.689 238.289 258.574 238.782C258.481 239.181 258.042 239.364 257.722 239.632C257.365 240.018 257.115 240.492 256.998 241.004C256.361 241.127 255.706 241.107 255.077 240.948C254.449 240.789 253.864 240.493 253.364 240.082C253.535 240.52 253.661 240.974 253.739 241.438C253.232 240.898 252.396 240.741 251.779 240.46C250.982 240.096 250.27 239.569 249.691 238.914L250.807 238.761L245.865 231.283L244.408 230.986L245.716 233.488C245.609 233.539 245.515 233.614 245.441 233.707C245.367 233.8 245.315 233.908 245.29 234.024C245.219 234.301 245.202 234.589 245.238 234.873C245.308 235.544 245.42 236.21 245.575 236.866L245.954 238.625C245.986 238.79 246.028 238.953 246.078 239.113C245.584 239.096 245.09 239.152 244.612 239.279C243.632 238.918 242.612 238.677 241.574 238.561C241.346 238.521 241.111 238.533 240.888 238.595C240.635 238.712 240.415 238.89 240.249 239.113C239.397 240.096 238.641 241.157 237.991 242.283C235.336 246.889 231.792 250.908 228.472 255.072C226.18 256.002 223.871 256.886 221.557 257.761L216.585 259.652C215.592 260.03 214.561 260.417 213.505 260.349C213.027 260.319 212.448 260.247 212.179 260.65C212.049 260.85 211.947 261.068 211.877 261.296C211.702 261.296 211.528 261.339 211.366 261.347H211.336C211.021 260.565 210.748 259.728 210.143 259.159C210.021 259.178 209.906 259.226 209.808 259.3C209.71 259.375 209.631 259.472 209.58 259.584C209.461 259.805 209.389 260.047 209.252 260.251C208.984 260.642 208.52 260.833 208.187 261.164C207.855 261.496 207.646 262.014 207.288 262.337C206.787 262.7 206.2 262.927 205.584 262.996C204.661 263.212 203.772 263.549 202.938 263.998C202.63 264.187 202.302 264.338 201.958 264.449C201.58 264.521 201.194 264.534 200.812 264.487L198.179 264.296C197.944 264.265 197.707 264.275 197.476 264.325C197.204 264.425 196.974 264.61 196.82 264.854C196.665 265.098 196.597 265.385 196.624 265.672C196.656 265.957 196.746 266.232 196.889 266.48C197.032 266.729 197.224 266.945 197.454 267.117C197.912 267.451 198.417 267.713 198.954 267.894C201.242 268.778 203.601 269.467 206.006 269.955V270.486C207.672 271.323 209.512 271.76 211.378 271.761C211.516 271.771 211.654 271.746 211.779 271.688C211.951 271.559 212.071 271.372 212.116 271.162C212.674 269.495 213.028 267.768 213.168 266.016C213.497 265.995 213.819 265.913 214.118 265.774C215.026 265.528 215.925 266.148 216.858 266.25C218.008 266.373 219.078 265.706 220.164 265.294C220.322 265.235 220.479 265.184 220.637 265.133C220.327 265.532 219.961 265.886 219.551 266.182C219.099 266.505 218.592 266.743 218.149 267.079C217.78 267.414 217.386 267.72 216.969 267.992C216.674 268.129 216.371 268.245 216.061 268.34C215.611 268.504 215.182 268.719 214.783 268.982C214.425 269.192 214.121 269.483 213.897 269.832C213.783 269.994 213.714 270.183 213.694 270.38C213.675 270.577 213.707 270.776 213.786 270.957C213.865 271.139 213.99 271.297 214.148 271.417C214.306 271.536 214.492 271.614 214.689 271.642C215.045 271.705 215.408 271.715 215.767 271.671C217.19 271.565 218.609 271.433 220.028 271.306C220.628 271.266 221.225 271.181 221.813 271.051C222.124 270.975 222.431 270.873 222.742 270.792C223.272 270.652 223.817 270.571 224.365 270.55C224.524 270.537 224.684 270.553 224.838 270.596C225.17 270.703 225.405 271.021 225.741 271.106C225.96 271.128 226.18 271.097 226.385 271.017C227.423 270.792 228.483 270.68 229.546 270.681C230.011 270.656 230.556 270.567 230.773 270.138C231.037 269.607 230.594 269.012 230.42 268.438C230.331 268.073 230.282 267.7 230.275 267.325C230.194 266.399 229.927 265.499 229.491 264.678C229.259 264.295 229.063 263.891 228.907 263.471C230.943 262.699 232.891 261.714 234.719 260.531C235.767 259.881 236.849 259.18 238.034 258.942C239.414 258.666 240.837 259.031 242.196 259.422C245.434 260.356 248.618 261.464 251.736 262.741C253.227 263.348 254.718 263.994 256.244 264.44C256.69 265.04 257.229 265.565 257.842 265.995C258.864 266.654 260.113 266.845 261.314 266.938C262.937 267.086 264.567 267.147 266.197 267.121C267.441 267.1 268.723 267.015 269.836 266.45C270.107 266.311 270.363 266.143 270.598 265.948C271.45 266.101 272.324 265.647 272.993 265.065C273.878 264.314 274.516 263.314 274.825 262.197C275.217 260.663 274.914 258.874 275.86 257.621C276.112 257.285 276.44 257.013 276.687 256.673C276.991 256.218 277.14 255.678 277.113 255.131L277.155 255.067C277.369 254.574 277.513 254.054 277.581 253.521C277.694 253.105 277.836 252.697 278.008 252.301C278.488 251.116 278.906 249.906 279.26 248.677C279.507 247.862 279.7 247.032 279.84 246.192C279.942 245.521 280.002 244.845 280.057 244.169C280.125 243.112 280.332 242.068 280.671 241.064C281.511 238.667 281.987 236.158 282.081 233.62C282.081 233.569 282.081 233.522 282.081 233.471C283.318 233.336 284.46 232.745 285.283 231.815C286.107 230.885 286.552 229.681 286.533 228.441C286.534 227.693 286.378 226.953 286.073 226.27C286.661 225.241 286.967 224.076 286.959 222.892ZM262.865 252.085C262.937 252.344 263.023 252.603 263.108 252.862C262.716 252.476 262.328 252.076 261.932 251.694C262.09 251.741 262.247 251.792 262.401 251.847C262.564 251.911 262.721 251.991 262.869 252.085H262.865ZM260.956 250.81C258.63 248.796 255.937 247.233 253.555 245.287C254.834 245.928 256.112 246.672 257.39 247.386C258.878 248.235 260.384 249.048 261.906 249.825C261.657 250.202 261.339 250.531 260.969 250.793L260.956 250.81ZM261.949 245.737L262.06 245.623C262.06 245.907 262.06 246.175 262.06 246.417C261.851 246.349 261.634 246.281 261.433 246.205C261.617 246.055 261.791 245.893 261.953 245.72L261.949 245.737ZM241.468 251.193C242.426 250.112 243.259 248.928 243.952 247.662C244.872 249.272 246.372 250.432 247.65 251.779C245.596 251.49 243.538 251.265 241.472 251.176L241.468 251.193Z" fill="url(#paint0_linear)"/>
<path d="M244.791 231.606L246.261 231.903L251.267 239.279L249.056 239.577L244.791 231.606Z" fill="#2F2E41"/>
<path d="M209.193 261.542C209.589 262.85 210.077 264.128 210.654 265.366C212.313 265.02 213.945 264.556 215.537 263.977C215.229 263.498 214.89 263.04 214.523 262.605C214.131 262.171 213.664 261.812 213.142 261.547C212.635 261.326 212.009 261.491 211.468 261.521C210.71 261.55 209.951 261.557 209.193 261.542Z" fill="#FBBEBE"/>
<path d="M213.151 263.514C212.324 263.255 211.817 262.422 211.481 261.619C211.144 260.816 210.871 259.941 210.232 259.35C210.111 259.369 209.996 259.418 209.898 259.492C209.799 259.566 209.721 259.663 209.67 259.775C209.546 259.987 209.474 260.23 209.333 260.434C209.069 260.816 208.6 261.003 208.264 261.33C207.927 261.657 207.719 262.154 207.356 262.481C206.854 262.842 206.267 263.067 205.652 263.136C204.723 263.346 203.826 263.677 202.985 264.121C202.673 264.301 202.342 264.444 201.996 264.546C201.616 264.618 201.226 264.631 200.842 264.585L198.187 264.393C197.951 264.364 197.712 264.376 197.48 264.427C197.21 264.521 196.979 264.703 196.824 264.943C196.67 265.184 196.6 265.469 196.628 265.753C196.663 266.036 196.757 266.309 196.904 266.554C197.05 266.799 197.247 267.011 197.48 267.176C197.941 267.505 198.45 267.763 198.988 267.941C201.301 268.808 203.681 269.486 206.104 269.968V270.49C207.788 271.321 209.64 271.757 211.519 271.765C211.665 271.778 211.812 271.753 211.945 271.693C212.118 271.567 212.239 271.382 212.286 271.174C212.923 269.318 213.294 267.381 213.39 265.421C213.438 264.926 213.401 264.426 213.279 263.943C213.134 263.467 213.628 263.667 213.168 263.48" fill="#2F2E41"/>
<path d="M264.041 253.538C256.171 254.014 248.4 251.711 240.517 251.465C239.539 251.405 238.557 251.468 237.595 251.651C236.591 251.92 235.62 252.296 234.697 252.773C230.475 254.732 226.103 256.355 221.736 257.978L216.726 259.839C215.72 260.208 214.685 260.586 213.615 260.523C213.138 260.493 212.554 260.421 212.282 260.82C211.468 262.023 211.856 263.794 212.392 265.145C212.567 265.57 212.861 266.059 213.33 266.11C213.661 266.087 213.986 266.005 214.288 265.868C215.2 265.625 216.112 266.237 217.049 266.335C218.213 266.458 219.291 265.8 220.386 265.396C222.201 264.729 224.186 264.75 226.095 264.432C229.299 263.9 232.264 262.418 235.042 260.727C236.099 260.085 237.173 259.397 238.383 259.163C239.776 258.891 241.212 259.248 242.58 259.635C245.84 260.555 249.05 261.646 252.196 262.902C253.834 263.611 255.512 264.222 257.224 264.729C260.953 265.708 264.899 265.479 268.489 264.075C269.767 263.578 271.114 262.702 271.186 261.347C271.229 260.574 270.628 259.894 270.227 259.223C269.968 258.798 269.712 258.373 269.431 257.969C268.076 255.998 266.431 253.393 264.041 253.538Z" fill="#2F2E41"/>
<path opacity="0.1" d="M264.041 253.538C256.171 254.014 248.4 251.711 240.517 251.465C239.539 251.405 238.557 251.468 237.595 251.651C236.591 251.92 235.62 252.296 234.697 252.773C230.475 254.732 226.103 256.355 221.736 257.978L216.726 259.839C215.72 260.208 214.685 260.586 213.615 260.523C213.138 260.493 212.554 260.421 212.282 260.82C211.468 262.023 211.856 263.794 212.392 265.145C212.567 265.57 212.861 266.059 213.33 266.11C213.661 266.087 213.986 266.005 214.288 265.868C215.2 265.625 216.112 266.237 217.049 266.335C218.213 266.458 219.291 265.8 220.386 265.396C222.201 264.729 224.186 264.75 226.095 264.432C229.299 263.9 232.264 262.418 235.042 260.727C236.099 260.085 237.173 259.397 238.383 259.163C239.776 258.891 241.212 259.248 242.58 259.635C245.84 260.555 249.05 261.646 252.196 262.902C253.834 263.611 255.512 264.222 257.224 264.729C260.953 265.708 264.899 265.479 268.489 264.075C269.767 263.578 271.114 262.702 271.186 261.347C271.229 260.574 270.628 259.894 270.227 259.223C269.968 258.798 269.712 258.373 269.431 257.969C268.076 255.998 266.431 253.393 264.041 253.538Z" fill="black"/>
<path d="M224.297 261.925C225.53 262.341 226.771 262.726 228.021 263.081C228.724 261.929 230.036 261.13 230.334 259.817C230.351 259.761 230.351 259.7 230.334 259.643C230.302 259.587 230.253 259.543 230.194 259.516C229.296 259.022 228.299 258.732 227.275 258.666C226.466 258.615 226.099 259.456 225.733 260.047C225.605 260.285 224.625 262.035 224.297 261.925Z" fill="#FBBEBE"/>
<path d="M226.031 261.084C225.663 261.023 225.312 260.886 225 260.681C224.688 260.477 224.423 260.211 224.22 259.898C224.046 259.596 223.862 259.189 223.513 259.21C223.164 259.231 223.044 259.613 222.972 259.932C222.736 261.122 222.395 262.29 221.954 263.42C221.508 264.554 220.754 265.542 219.776 266.271C219.32 266.586 218.813 266.824 218.366 267.155C217.993 267.487 217.594 267.788 217.173 268.056C216.876 268.191 216.57 268.305 216.257 268.396C215.798 268.555 215.359 268.768 214.949 269.029C214.59 269.239 214.285 269.53 214.058 269.878C213.949 270.055 213.885 270.256 213.872 270.464C213.859 270.671 213.896 270.879 213.982 271.068C214.074 271.222 214.197 271.355 214.344 271.458C214.491 271.561 214.658 271.633 214.834 271.667C215.193 271.727 215.559 271.735 215.92 271.693C217.356 271.586 218.788 271.459 220.219 271.332C220.826 271.294 221.428 271.212 222.022 271.085C222.337 271.009 222.644 270.907 222.955 270.826C223.492 270.689 224.042 270.61 224.595 270.588C224.756 270.576 224.917 270.592 225.072 270.635C225.405 270.741 225.639 271.06 225.98 271.136C226.2 271.159 226.421 271.13 226.628 271.051C227.675 270.83 228.744 270.719 229.815 270.72C230.283 270.694 230.837 270.605 231.05 270.184C231.319 269.662 230.876 269.075 230.697 268.515C230.608 268.155 230.558 267.788 230.547 267.418C230.467 266.505 230.198 265.619 229.759 264.814C229.393 264.143 228.907 263.403 229.15 262.69C229.281 262.467 229.363 262.219 229.393 261.963C229.333 260.812 226.679 261.237 226.031 261.084Z" fill="#2F2E41"/>
<path d="M252.243 240.953C250.849 240.34 249.732 239.233 249.107 237.847C248.979 237.55 248.868 237.24 248.745 236.938C248.33 235.941 247.688 235.054 246.87 234.346C246.783 234.25 246.675 234.174 246.555 234.124C246.435 234.073 246.306 234.049 246.176 234.053C246.05 234.091 245.936 234.161 245.846 234.256C245.756 234.352 245.694 234.469 245.664 234.597C245.591 234.874 245.573 235.163 245.609 235.447C245.682 236.106 245.796 236.76 245.95 237.405L246.333 239.139C246.382 239.405 246.462 239.665 246.572 239.912C246.736 240.203 246.953 240.461 247.211 240.673C247.56 240.996 247.914 241.306 248.272 241.607C248.469 241.786 248.685 241.942 248.915 242.075C249.293 242.254 249.698 242.371 250.113 242.423C251.676 242.712 253.266 243.128 254.582 244.123C254.582 244.123 254.582 242.963 254.552 242.848C254.536 242.512 254.421 242.188 254.22 241.918C253.726 241.387 252.874 241.229 252.243 240.953Z" fill="#FBBEBE"/>
<path opacity="0.1" d="M252.243 240.953C250.849 240.34 249.732 239.233 249.107 237.847C248.979 237.55 248.868 237.24 248.745 236.938C248.33 235.941 247.688 235.054 246.87 234.346C246.783 234.25 246.675 234.174 246.555 234.124C246.435 234.073 246.306 234.049 246.176 234.053C246.05 234.091 245.936 234.161 245.846 234.256C245.756 234.352 245.694 234.469 245.664 234.597C245.591 234.874 245.573 235.163 245.609 235.447C245.682 236.106 245.796 236.76 245.95 237.405L246.333 239.139C246.382 239.405 246.462 239.665 246.572 239.912C246.736 240.203 246.953 240.461 247.211 240.673C247.56 240.996 247.914 241.306 248.272 241.607C248.469 241.786 248.685 241.942 248.915 242.075C249.293 242.254 249.698 242.371 250.113 242.423C251.676 242.712 253.266 243.128 254.582 244.123C254.582 244.123 254.582 242.963 254.552 242.848C254.536 242.512 254.421 242.188 254.22 241.918C253.726 241.387 252.874 241.229 252.243 240.953Z" fill="black"/>
<path d="M268.263 227.697C269.32 227.697 270.176 226.837 270.176 225.777C270.176 224.716 269.32 223.856 268.263 223.856C267.207 223.856 266.35 224.716 266.35 225.777C266.35 226.837 267.207 227.697 268.263 227.697Z" fill="#2F2E41"/>
<path d="M267.079 224.617C266.565 224.5 266.026 224.577 265.566 224.834C265.345 225.029 265.169 225.269 265.051 225.539C264.62 226.272 264.285 227.058 264.054 227.876C263.883 228.577 263.853 229.307 263.628 230C263.236 231.275 262.23 232.358 262.115 233.688C262.064 234.283 262.162 234.984 261.727 235.387C261.619 235.478 261.504 235.559 261.382 235.63C261.08 235.832 260.823 236.095 260.628 236.403C260.498 236.679 260.317 236.928 260.095 237.138C259.704 237.427 259.06 237.397 258.868 237.843C258.677 238.289 259.171 238.808 259.056 239.292C258.962 239.687 258.519 239.87 258.204 240.142C257.845 240.521 257.593 240.989 257.475 241.497C256.835 241.617 256.177 241.598 255.545 241.44C254.913 241.282 254.323 240.99 253.815 240.584C254.348 241.896 254.361 243.345 254.382 244.76C254.443 245.213 254.322 245.671 254.045 246.035C255.571 246.069 257.053 246.46 258.54 246.812C259.176 247.025 259.864 247.025 260.5 246.812C260.84 246.63 261.145 246.388 261.399 246.098C262.209 245.278 263.057 244.399 263.253 243.256C263.305 242.613 263.316 241.967 263.287 241.323C263.365 240.527 263.529 239.742 263.777 238.982C264.205 237.403 264.49 235.789 264.629 234.159C264.718 233.153 265.588 232.345 266.048 231.445C266.9 229.745 267.795 227.982 267.863 226.078C267.922 225.458 267.709 224.698 267.079 224.617Z" fill="#2F2E41"/>
<path opacity="0.1" d="M267.079 224.617C266.565 224.5 266.026 224.577 265.566 224.834C265.345 225.029 265.169 225.269 265.051 225.539C264.62 226.272 264.285 227.058 264.054 227.876C263.883 228.577 263.853 229.307 263.628 230C263.236 231.275 262.23 232.358 262.115 233.688C262.064 234.283 262.162 234.984 261.727 235.387C261.619 235.478 261.504 235.559 261.382 235.63C261.08 235.832 260.823 236.095 260.628 236.403C260.498 236.679 260.317 236.928 260.095 237.138C259.704 237.427 259.06 237.397 258.868 237.843C258.677 238.289 259.171 238.808 259.056 239.292C258.962 239.687 258.519 239.87 258.204 240.142C257.845 240.521 257.593 240.989 257.475 241.497C256.835 241.617 256.177 241.598 255.545 241.44C254.913 241.282 254.323 240.99 253.815 240.584C254.348 241.896 254.361 243.345 254.382 244.76C254.443 245.213 254.322 245.671 254.045 246.035C255.571 246.069 257.053 246.46 258.54 246.812C259.176 247.025 259.864 247.025 260.5 246.812C260.84 246.63 261.145 246.388 261.399 246.098C262.209 245.278 263.057 244.399 263.253 243.256C263.305 242.613 263.316 241.967 263.287 241.323C263.365 240.527 263.529 239.742 263.777 238.982C264.205 237.403 264.49 235.789 264.629 234.159C264.718 233.153 265.588 232.345 266.048 231.445C266.9 229.745 267.795 227.982 267.863 226.078C267.922 225.458 267.709 224.698 267.079 224.617Z" fill="black"/>
<path d="M265.289 255.191C263.649 254.413 262.452 252.964 261.127 251.724C258.596 249.353 255.502 247.679 252.844 245.457C251.084 243.987 249.508 242.275 247.569 241.042C245.864 239.958 243.93 239.282 241.919 239.067C241.69 239.027 241.454 239.038 241.229 239.101C240.975 239.214 240.754 239.389 240.586 239.611C239.727 240.576 238.963 241.622 238.306 242.733C234.936 248.435 230.151 253.232 226.184 258.539C226.057 258.664 225.982 258.832 225.973 259.01C225.964 259.188 226.023 259.362 226.138 259.499L226.943 261.075C227.395 261.955 228.119 262.983 229.073 262.809C229.511 262.683 229.903 262.433 230.202 262.091L233.824 258.636L237.62 255.016C239.844 252.892 242.107 250.725 243.56 248.015C244.693 249.973 246.704 251.256 248.085 253.054C248.609 253.733 249.035 254.485 249.503 255.208C250.258 256.368 251.11 257.455 251.962 258.539L256.321 264.083C256.87 264.873 257.552 265.563 258.336 266.123C259.367 266.773 260.624 266.947 261.838 267.053C263.474 267.202 265.117 267.261 266.759 267.231C268.012 267.21 269.316 267.13 270.423 266.573C271.531 266.016 272.473 264.873 272.413 263.629C272.345 262.976 272.131 262.348 271.787 261.789C270.249 258.942 268.212 256.563 265.289 255.191Z" fill="#2F2E41"/>
<path d="M269.439 228.581C270.251 228.581 270.909 227.921 270.909 227.107C270.909 226.292 270.251 225.632 269.439 225.632C268.627 225.632 267.969 226.292 267.969 227.107C267.969 227.921 268.627 228.581 269.439 228.581Z" fill="#E8E8F0"/>
<path d="M269.115 225.998C269.448 226.657 269.506 227.42 269.277 228.122C269.05 228.812 268.732 229.47 268.331 230.076C267.987 230.703 267.574 231.29 267.1 231.827C269.371 231.937 271.574 231.049 273.576 229.97C275.191 229.12 276.802 228.037 277.662 226.418C277.406 226.479 277.14 226.486 276.881 226.439C276.622 226.391 276.376 226.29 276.158 226.142C275.725 225.841 275.336 225.481 275.004 225.071L273.866 223.797C273.597 223.517 273.362 223.208 273.163 222.875C272.914 222.423 272.809 221.905 272.861 221.392C272.408 221.865 271.902 222.284 271.352 222.641C270.538 223.172 269.648 223.555 268.826 224.077C268.536 224.264 267.893 224.566 268.059 224.927C268.225 225.288 268.885 225.59 269.115 225.998Z" fill="#FBBEBE"/>
<path opacity="0.1" d="M269.115 225.998C269.448 226.657 269.506 227.42 269.277 228.122C269.05 228.812 268.732 229.47 268.331 230.076C267.987 230.703 267.574 231.29 267.1 231.827C269.371 231.937 271.574 231.049 273.576 229.97C275.191 229.12 276.802 228.037 277.662 226.418C277.406 226.479 277.14 226.486 276.881 226.439C276.622 226.391 276.376 226.29 276.158 226.142C275.725 225.841 275.336 225.481 275.004 225.071L273.866 223.797C273.597 223.517 273.362 223.208 273.163 222.875C272.914 222.423 272.809 221.905 272.861 221.392C272.408 221.865 271.902 222.284 271.352 222.641C270.538 223.172 269.648 223.555 268.826 224.077C268.536 224.264 267.893 224.566 268.059 224.927C268.225 225.288 268.885 225.59 269.115 225.998Z" fill="black"/>
<path d="M269.145 226.219C268.916 226.542 268.792 226.929 268.792 227.325C268.792 227.722 268.916 228.109 269.145 228.432C269.209 228.513 269.452 229.018 269.571 229.023C269.672 229.014 269.765 228.967 269.831 228.891C270.346 228.355 270.827 227.787 271.271 227.192C271.72 226.588 272.37 226.164 273.103 225.993C273.994 225.853 274.85 226.325 275.63 226.775C275.965 226.941 276.257 227.183 276.482 227.48C276.646 227.776 276.744 228.104 276.768 228.441C276.991 230.466 277.077 232.505 277.023 234.542C277.065 236.011 276.968 237.48 276.734 238.931C276.589 239.679 276.371 240.409 276.269 241.166C276.195 241.831 276.165 242.501 276.18 243.171V245.975C276.161 246.489 276.198 247.003 276.29 247.509C276.466 248.112 276.673 248.706 276.908 249.289C277.116 249.983 277.258 250.694 277.334 251.413L277.718 254.315C277.841 255.233 277.931 256.232 277.373 256.967C277.126 257.302 276.793 257.566 276.521 257.897C275.562 259.112 275.881 260.875 275.455 262.384C275.14 263.49 274.495 264.476 273.606 265.209C272.929 265.783 272.051 266.237 271.173 266.059C269.993 265.838 269.282 264.61 268.958 263.45C268.634 262.29 268.532 261.024 267.82 260.051C267.249 259.248 266.367 258.747 265.571 258.173C264.774 257.6 263.99 256.865 263.815 255.896C263.738 255.471 263.785 255.046 263.743 254.621C263.679 254.08 263.471 253.565 263.14 253.132C262.808 252.698 262.366 252.361 261.859 252.157C261.254 251.923 260.505 251.838 260.155 251.307C261.023 250.764 261.655 249.917 261.928 248.932C262.192 247.962 262.335 246.963 262.354 245.958L262.558 242.585C262.648 241.076 262.69 239.581 263.355 238.225C263.653 237.622 264.024 237.053 264.331 236.454C264.742 235.613 265.092 234.744 265.379 233.854C265.86 232.473 266.346 231.088 266.776 229.69C266.949 229.013 267.206 228.36 267.543 227.748C267.939 227.111 268.464 226.346 269.145 226.219Z" fill="#E8E8F0"/>
<path d="M261.634 248.138L262.528 248.167L262.72 246.821C262.746 246.551 262.809 246.287 262.908 246.035C263.056 245.769 263.229 245.517 263.423 245.283C264.305 244.042 264.241 242.393 264.458 240.885C264.748 238.876 265.592 236.989 266.427 235.137L268.165 231.275C268.32 230.957 268.444 230.626 268.536 230.285C268.612 229.908 268.648 229.525 268.643 229.142C268.643 228.547 268.839 226.376 268.851 225.777C268.851 225.556 268.366 225.679 268.263 225.484C268.046 225.059 267.748 226.214 267.339 226.469C266.953 226.763 266.672 227.173 266.538 227.638C266.163 228.611 265.933 229.635 265.583 230.612C265.277 231.612 264.718 232.518 263.96 233.242C263.606 233.556 263.193 233.803 262.856 234.134C261.774 235.2 261.672 236.883 261.634 238.383C261.608 239.313 261.433 248.138 261.634 248.138Z" fill="#2F2E41"/>
<path d="M274.522 224.608C273.67 224.948 273.176 225.883 272.933 226.792C272.69 227.701 272.588 228.662 272.119 229.469C271.028 231.364 268.246 231.916 267.475 233.964C267.279 234.656 267.174 235.37 267.164 236.088C267.028 237.554 266.542 238.973 266.397 240.439C266.322 241.579 266.349 242.724 266.478 243.859L267.454 255.429C267.643 257.132 267.544 258.856 267.16 260.527C268.16 260.671 269.181 260.503 270.083 260.047C270.999 259.622 271.834 259.061 272.711 258.577C274.224 257.727 275.894 257.153 277.215 256.028C277.455 255.841 277.661 255.616 277.824 255.361C278.036 254.874 278.18 254.361 278.25 253.835C278.362 253.426 278.505 253.025 278.676 252.637C279.166 251.471 279.592 250.28 279.955 249.068C280.203 248.265 280.398 247.446 280.538 246.617C280.645 245.958 280.7 245.291 280.76 244.628C280.828 243.586 281.036 242.557 281.378 241.569C282.223 239.213 282.701 236.741 282.797 234.24C282.826 233.879 282.802 233.515 282.724 233.161C282.577 232.732 282.38 232.321 282.136 231.937C281.731 231.177 281.489 230.34 281.105 229.571C280.253 227.829 278.723 226.508 277.126 225.399C276.307 224.859 275.408 224.273 274.522 224.608Z" fill="#2F2E41"/>
<path d="M254.182 243.485C253.49 243.125 252.863 242.651 252.328 242.083C252.085 241.799 251.902 241.48 251.638 241.2C251.012 240.534 250.2 240.072 249.307 239.874C248.421 239.679 247.514 239.592 246.606 239.615C246 239.573 245.391 239.647 244.812 239.832C244.522 239.926 244.26 240.093 244.051 240.316C243.843 240.539 243.694 240.811 243.619 241.106C243.487 241.828 243.96 242.529 244.527 242.988C245.054 243.418 245.674 243.719 246.338 243.868C246.879 243.961 247.425 244.025 247.974 244.059C251.195 244.395 254.071 246.141 256.891 247.734C259.371 249.131 261.899 250.438 264.475 251.656C264.578 250.887 264.62 250.111 264.603 249.336C264.603 248.758 264.561 247.874 264.011 247.534C263.372 247.135 262.307 247.046 261.599 246.808C259.939 246.268 258.318 245.615 256.747 244.854C255.856 244.424 255.004 243.97 254.182 243.485Z" fill="#FBBEBE"/>
<path d="M268.263 225.339C271.433 225.339 274.003 222.762 274.003 219.582C274.003 216.403 271.433 213.825 268.263 213.825C265.094 213.825 262.524 216.403 262.524 219.582C262.524 222.762 265.094 225.339 268.263 225.339Z" fill="#FBBEBE"/>
<path d="M276.163 231.134C275.706 231.775 275.332 232.47 275.051 233.204C274.339 234.661 273.227 235.91 272.673 237.452C272.085 239.054 272.106 240.962 270.969 242.224C270.74 242.415 270.568 242.664 270.47 242.946C270.463 243.121 270.443 243.296 270.411 243.468C270.249 243.927 269.495 243.948 269.354 244.416C269.316 244.552 269.354 244.701 269.286 244.841C269.171 245.142 268.775 245.185 268.506 245.368C267.948 245.746 268.08 246.621 267.654 247.165C267.481 247.367 267.257 247.519 267.006 247.607C266.754 247.695 266.484 247.716 266.222 247.666C265.7 247.556 265.197 247.369 264.731 247.11C264.567 247.018 264.386 246.961 264.199 246.944C263.976 246.949 263.76 247.021 263.581 247.152C262.52 247.823 262.021 249.157 262.03 250.415C262.105 251.673 262.403 252.907 262.912 254.06C262.972 254.26 263.072 254.445 263.206 254.604C263.555 254.974 264.169 254.914 264.637 254.706C265.077 254.447 265.544 254.239 266.031 254.086C266.917 253.924 267.786 254.536 268.685 254.485C269.343 254.386 269.962 254.113 270.479 253.695C271.391 253.142 272.209 252.447 272.899 251.634C273.291 251.12 273.581 250.534 273.926 249.986C274.367 249.313 274.85 248.668 275.374 248.057L278.685 244.016C279.017 243.634 279.315 243.223 279.575 242.789C279.874 242.201 280.107 241.583 280.27 240.945C280.625 239.88 280.855 238.778 280.956 237.66C280.973 236.735 280.891 235.811 280.713 234.903C280.602 234 280.362 233.117 280.002 232.282C279.264 230.794 277.513 229.562 276.163 231.134Z" fill="#2F2E41"/>
<path d="M287.692 223.635C287.697 222.615 287.458 221.607 286.996 220.697C286.534 219.786 285.861 218.998 285.033 218.397C285.008 216.585 284.339 214.84 283.144 213.475C281.949 212.109 280.307 211.211 278.51 210.94C278.163 209.224 277.219 207.685 275.845 206.594C274.471 205.503 272.756 204.931 271 204.979C269.245 205.026 267.563 205.689 266.25 206.852C264.937 208.015 264.078 209.603 263.824 211.335C261.438 210.8 259.256 211.497 258.86 212.963C258.434 214.496 260.138 216.289 262.66 216.969C263.451 217.192 264.274 217.274 265.093 217.211C265.68 218.07 266.44 218.797 267.325 219.346C268.21 219.895 269.2 220.253 270.232 220.398C270.535 221.784 271.22 223.058 272.21 224.076C273.2 225.095 274.455 225.818 275.835 226.163C276.216 227.083 276.809 227.901 277.564 228.551C277.564 228.73 277.535 228.912 277.535 229.099C277.507 229.752 277.612 230.404 277.844 231.016C278.076 231.627 278.429 232.186 278.883 232.658C279.337 233.129 279.881 233.505 280.484 233.761C281.087 234.018 281.736 234.15 282.392 234.15C283.047 234.15 283.696 234.018 284.299 233.761C284.902 233.505 285.447 233.129 285.901 232.658C286.354 232.186 286.708 231.627 286.939 231.016C287.171 230.404 287.276 229.752 287.249 229.099C287.249 228.366 287.091 227.641 286.785 226.975C287.384 225.964 287.697 224.81 287.692 223.635Z" fill="#F86D70"/>
<path opacity="0.1" d="M260.479 213.256C260.875 211.79 263.035 211.093 265.443 211.629C265.723 209.869 266.617 208.264 267.968 207.098C269.319 205.932 271.04 205.279 272.827 205.255C272.993 205.255 273.159 205.255 273.321 205.255C272.63 205.045 271.912 204.939 271.19 204.941C269.404 204.965 267.683 205.618 266.332 206.784C264.981 207.95 264.087 209.554 263.807 211.314C261.421 210.779 259.239 211.476 258.843 212.941C258.417 214.475 260.121 216.268 262.643 216.948C263.113 217.078 263.594 217.16 264.079 217.194C261.685 216.498 260.074 214.756 260.479 213.256Z" fill="black"/>
<path opacity="0.1" d="M279.154 229.397C279.154 229.21 279.154 229.027 279.184 228.844C278.428 228.196 277.835 227.379 277.454 226.461C276.075 226.112 274.821 225.387 273.832 224.368C272.842 223.349 272.156 222.076 271.851 220.691C270.819 220.547 269.828 220.189 268.943 219.64C268.058 219.091 267.298 218.364 266.712 217.504C266.235 217.542 265.755 217.529 265.281 217.466C265.87 218.258 266.611 218.925 267.461 219.428C268.311 219.931 269.253 220.261 270.232 220.398C270.535 221.784 271.22 223.058 272.21 224.076C273.2 225.095 274.455 225.818 275.835 226.163C276.216 227.083 276.809 227.901 277.564 228.551C277.564 228.73 277.535 228.912 277.535 229.099C277.513 230.402 278.009 231.66 278.914 232.599C279.819 233.539 281.06 234.083 282.366 234.113C281.413 233.746 280.595 233.098 280.021 232.255C279.447 231.413 279.144 230.415 279.154 229.397Z" fill="black"/>
<path d="M270.889 221.691C271.279 221.396 271.275 220.737 270.881 220.22C270.487 219.702 269.851 219.522 269.461 219.817C269.071 220.112 269.075 220.771 269.469 221.289C269.864 221.806 270.499 221.987 270.889 221.691Z" fill="#FBBEBE"/>
<path d="M133.701 250.339L139.377 247.012C138.61 245.705 137.629 244.534 136.475 243.549L125.772 246.867L134.157 241.952C132.081 240.818 129.744 240.243 127.377 240.283C125.01 240.323 122.694 240.977 120.658 242.18C118.621 243.383 116.934 245.095 115.762 247.146C114.59 249.197 113.974 251.517 113.974 253.878C113.974 261.385 120.08 261.644 127.608 261.644C135.137 261.644 141.243 261.385 141.243 253.878C141.247 251.975 140.848 250.093 140.071 248.354L133.701 250.339Z" fill="#4206D1"/>
<path opacity="0.1" d="M135.146 257.638C134.541 257.034 133.866 256.505 133.135 256.062C132.108 255.378 131.038 254.681 129.824 254.451C128.759 254.247 127.66 254.422 126.573 254.358C124.687 254.243 122.911 253.431 121.592 252.081C120.817 251.282 120.208 250.3 119.275 249.689C118.232 249.071 117.001 248.846 115.806 249.055C115.46 249.104 115.117 249.173 114.779 249.264C114.245 250.744 113.973 252.305 113.974 253.878C113.974 261.385 120.08 261.644 127.608 261.644C131.264 261.644 134.579 261.585 137.029 260.663L136.603 259.902C136.216 259.089 135.726 258.328 135.146 257.638Z" fill="black"/>
</g>
<defs>
<linearGradient id="paint0_linear" x1="241.796" y1="271.765" x2="241.796" y2="203.938" gradientUnits="userSpaceOnUse">
<stop stop-color="#808080" stop-opacity="0.25"/>
<stop offset="0.54" stop-color="#808080" stop-opacity="0.12"/>
<stop offset="1" stop-color="#808080" stop-opacity="0.1"/>
</linearGradient>
<clipPath id="clip0">
<rect width="487" height="282" fill="white"/>
</clipPath>
</defs>
</svg>
